<?xml version="1.0" standalone="no"?>
 <!DOCTYPE svg PUBLIC "-//W3C//DTD SVG 1.1//EN" 
 "http://www.w3.org/Graphics/SVG/1.1/DTD/svg11.dtd"> 
<svg
  xmlns:svg="http://www.w3.org/2000/svg"
  xmlns="http://www.w3.org/2000/svg"
  xmlns:xlink="http://www.w3.org/1999/xlink"
  version="1.1"
  width="29.700220cm" height="21.000720cm" viewBox="0 0 116930 82680">
<title>SVG Picture created as fuente_smps_250w-F_Mask.svg date 2021/10/20 13:02:53 </title>
  <desc>Picture generated by PCBNEW </desc>
<g style="fill:#000000; fill-opacity:1;stroke:#000000; stroke-opacity:1;
stroke-linecap:round; stroke-linejoin:round;"
 transform="translate(0 0) scale(1 1)">
</g>
<g style="fill:#000000; fill-opacity:0.0; 
stroke:#000000; stroke-width:-0.000393701; stroke-opacity:1; 
stroke-linecap:round; stroke-linejoin:round;">
<g >
</g>
<g style="fill:#000000; fill-opacity:1.0; 
stroke:#000000; stroke-width:0; stroke-opacity:1; 
stroke-linecap:round; stroke-linejoin:round;">
<circle cx="50000" cy="7125.98" r="1200.79" /> 
</g>
<g style="fill:#000000; fill-opacity:1.0; 
stroke:#000000; stroke-width:39.3701; stroke-opacity:1; 
stroke-linecap:round; stroke-linejoin:round;">
</g>
<g style="fill:#000000; fill-opacity:1.0; 
stroke:#000000; stroke-width:0; stroke-opacity:1; 
stroke-linecap:round; stroke-linejoin:round;">
<circle cx="52755.9" cy="15393.7" r="1200.79" /> 
</g>
<g style="fill:#000000; fill-opacity:1.0; 
stroke:#000000; stroke-width:39.3701; stroke-opacity:1; 
stroke-linecap:round; stroke-linejoin:round;">
</g>
<g style="fill:#000000; fill-opacity:1.0; 
stroke:#000000; stroke-width:0; stroke-opacity:1; 
stroke-linecap:round; stroke-linejoin:round;">
<circle cx="50000" cy="23661.4" r="1200.79" /> 
</g>
<g style="fill:#000000; fill-opacity:1.0; 
stroke:#000000; stroke-width:39.3701; stroke-opacity:1; 
stroke-linecap:round; stroke-linejoin:round;">
</g>
<g style="fill:#000000; fill-opacity:1.0; 
stroke:#000000; stroke-width:0; stroke-opacity:1; 
stroke-linecap:round; stroke-linejoin:round;">
<circle cx="32677.2" cy="23661.4" r="1200.79" /> 
</g>
<g style="fill:#000000; fill-opacity:1.0; 
stroke:#000000; stroke-width:39.3701; stroke-opacity:1; 
stroke-linecap:round; stroke-linejoin:round;">
</g>
<g style="fill:#000000; fill-opacity:1.0; 
stroke:#000000; stroke-width:0; stroke-opacity:1; 
stroke-linecap:round; stroke-linejoin:round;">
<circle cx="29921.3" cy="15393.7" r="1200.79" /> 
</g>
<g style="fill:#000000; fill-opacity:1.0; 
stroke:#000000; stroke-width:39.3701; stroke-opacity:1; 
stroke-linecap:round; stroke-linejoin:round;">
</g>
<g style="fill:#000000; fill-opacity:1.0; 
stroke:#000000; stroke-width:0; stroke-opacity:1; 
stroke-linecap:round; stroke-linejoin:round;">
<circle cx="32677.2" cy="7125.98" r="1200.79" /> 
</g>
<g style="fill:#000000; fill-opacity:1.0; 
stroke:#000000; stroke-width:39.3701; stroke-opacity:1; 
stroke-linecap:round; stroke-linejoin:round;">
</g>
<g >
</g>
<g style="fill:#000000; fill-opacity:1.0; 
stroke:#000000; stroke-width:39.3701; stroke-opacity:1; 
stroke-linecap:round; stroke-linejoin:round;">
</g>
<g style="fill:#000000; fill-opacity:1.0; 
stroke:#000000; stroke-width:0; stroke-opacity:1; 
stroke-linecap:round; stroke-linejoin:round;">
<circle cx="26771.7" cy="16669.3" r="354.331" /> 
<circle cx="26771.7" cy="15669.3" r="354.331" /> 
<circle cx="26771.7" cy="14669.3" r="354.331" /> 
<circle cx="26771.7" cy="13669.3" r="354.331" /> 
<circle cx="26771.7" cy="12669.3" r="354.331" /> 
<circle cx="26771.7" cy="11669.3" r="354.331" /> 
<path style="fill:#000000; fill-opacity:1.0; 
stroke:#000000; stroke-width:0; stroke-opacity:1; 
stroke-linecap:round; stroke-linejoin:round;fill-rule:evenodd;"
d="M 27108.2,10315.1
27110.1,10315.3
27112,10315.8
27113.8,10316.5
27115.6,10317.3
27117.2,10318.3
27118.8,10319.4
27120.2,10320.7
27121.5,10322.2
27122.7,10323.7
27123.7,10325.4
27124.5,10327.1
27125.1,10328.9
27125.6,10330.8
27125.9,10332.7
27126,10334.6
27126,11003.9
27125.9,11005.9
27125.6,11007.8
27125.1,11009.7
27124.5,11011.5
27123.7,11013.2
27122.7,11014.9
27121.5,11016.4
27120.2,11017.9
27118.8,11019.2
27117.2,11020.3
27115.6,11021.3
27113.8,11022.1
27112,11022.8
27110.1,11023.2
27108.2,11023.5
27106.3,11023.6
26437,11023.6
26435.1,11023.5
26433.2,11023.2
26431.3,11022.8
26429.5,11022.1
26427.7,11021.3
26426.1,11020.3
26424.5,11019.2
26423.1,11017.9
26421.8,11016.4
26420.6,11014.9
26419.6,11013.2
26418.8,11011.5
26418.2,11009.7
26417.7,11007.8
26417.4,11005.9
26417.3,11003.9
26417.3,10334.6
26417.4,10332.7
26417.7,10330.8
26418.2,10328.9
26418.8,10327.1
26419.6,10325.4
26420.6,10323.7
26421.8,10322.2
26423.1,10320.7
26424.5,10319.4
26426.1,10318.3
26427.7,10317.3
26429.5,10316.5
26431.3,10315.8
26433.2,10315.3
26435.1,10315.1
26437,10315
27106.3,10315
Z" /> 
</g>
<g >
</g>
<g style="fill:#000000; fill-opacity:1.0; 
stroke:#000000; stroke-width:0; stroke-opacity:1; 
stroke-linecap:round; stroke-linejoin:round;">
<circle cx="15078.7" cy="13322.8" r="354.331" /> 
<circle cx="15078.7" cy="12322.8" r="354.331" /> 
<circle cx="15078.7" cy="11322.8" r="354.331" /> 
<circle cx="15078.7" cy="10322.8" r="354.331" /> 
<circle cx="15078.7" cy="9322.83" r="354.331" /> 
<circle cx="15078.7" cy="8322.83" r="354.331" /> 
<path style="fill:#000000; fill-opacity:1.0; 
stroke:#000000; stroke-width:0; stroke-opacity:1; 
stroke-linecap:round; stroke-linejoin:round;fill-rule:evenodd;"
d="M 15415.3,6968.6
15417.2,6968.88
15419.1,6969.35
15420.9,6970
15422.7,6970.83
15424.3,6971.82
15425.9,6972.97
15427.3,6974.27
15428.6,6975.7
15429.8,6977.25
15430.7,6978.91
15431.6,6980.66
15432.2,6982.47
15432.7,6984.35
15433,6986.26
15433.1,6988.19
15433.1,7657.48
15433,7659.41
15432.7,7661.32
15432.2,7663.19
15431.6,7665.01
15430.7,7666.76
15429.8,7668.42
15428.6,7669.97
15427.3,7671.4
15425.9,7672.7
15424.3,7673.85
15422.7,7674.84
15420.9,7675.67
15419.1,7676.32
15417.2,7676.79
15415.3,7677.07
15413.4,7677.17
14744.1,7677.17
14742.2,7677.07
14740.3,7676.79
14738.4,7676.32
14736.6,7675.67
14734.8,7674.84
14733.2,7673.85
14731.6,7672.7
14730.2,7671.4
14728.9,7669.97
14727.7,7668.42
14726.7,7666.76
14725.9,7665.01
14725.3,7663.19
14724.8,7661.32
14724.5,7659.41
14724.4,7657.48
14724.4,6988.19
14724.5,6986.26
14724.8,6984.35
14725.3,6982.47
14725.9,6980.66
14726.7,6978.91
14727.7,6977.25
14728.9,6975.7
14730.2,6974.27
14731.6,6972.97
14733.2,6971.82
14734.8,6970.83
14736.6,6970
14738.4,6969.35
14740.3,6968.88
14742.2,6968.6
14744.1,6968.5
15413.4,6968.5
Z" /> 
</g>
<g >
</g>
<g style="fill:#000000; fill-opacity:1.0; 
stroke:#000000; stroke-width:0; stroke-opacity:1; 
stroke-linecap:round; stroke-linejoin:round;">
<circle cx="11063" cy="15023.6" r="334.646" /> 
<circle cx="11063" cy="11023.6" r="334.646" /> 
</g>
<g style="fill:#000000; fill-opacity:1.0; 
stroke:#000000; stroke-width:39.3701; stroke-opacity:1; 
stroke-linecap:round; stroke-linejoin:round;">
</g>
<g >
</g>
<g style="fill:#000000; fill-opacity:1.0; 
stroke:#000000; stroke-width:39.3701; stroke-opacity:1; 
stroke-linecap:round; stroke-linejoin:round;">
</g>
<g style="fill:#000000; fill-opacity:1.0; 
stroke:#000000; stroke-width:0; stroke-opacity:1; 
stroke-linecap:round; stroke-linejoin:round;">
<circle cx="11063" cy="6078.74" r="334.646" /> 
<circle cx="11063" cy="10078.7" r="334.646" /> 
</g>
<g style="fill:#000000; fill-opacity:1.0; 
stroke:#000000; stroke-width:39.3701; stroke-opacity:1; 
stroke-linecap:round; stroke-linejoin:round;">
</g>
<g >
</g>
<g style="fill:#000000; fill-opacity:1.0; 
stroke:#000000; stroke-width:39.3701; stroke-opacity:1; 
stroke-linecap:round; stroke-linejoin:round;">
</g>
<g style="fill:#000000; fill-opacity:1.0; 
stroke:#000000; stroke-width:0; stroke-opacity:1; 
stroke-linecap:round; stroke-linejoin:round;">
<path style="fill:#000000; fill-opacity:1.0; 
stroke:#000000; stroke-width:0; stroke-opacity:1; 
stroke-linecap:round; stroke-linejoin:round;fill-rule:evenodd;"
d="M 13072.8,13307.2
13074.7,13307.5
13076.6,13307.9
13078.4,13308.6
13080.1,13309.4
13081.8,13310.4
13083.4,13311.6
13084.8,13312.9
13086.1,13314.3
13087.2,13315.8
13088.2,13317.5
13089.1,13319.2
13089.7,13321.1
13090.2,13322.9
13090.5,13324.8
13090.6,13326.8
13090.6,13759.8
13090.5,13761.8
13090.2,13763.7
13089.7,13765.6
13089.1,13767.4
13088.2,13769.1
13087.2,13770.8
13086.1,13772.3
13084.8,13773.8
13083.4,13775.1
13081.8,13776.2
13080.1,13777.2
13078.4,13778
13076.6,13778.7
13074.7,13779.1
13072.8,13779.4
13070.9,13779.5
12362.2,13779.5
12360.3,13779.4
12358.4,13779.1
12356.5,13778.7
12354.7,13778
12352.9,13777.2
12351.3,13776.2
12349.7,13775.1
12348.3,13773.8
12347,13772.3
12345.8,13770.8
12344.8,13769.1
12344,13767.4
12343.4,13765.6
12342.9,13763.7
12342.6,13761.8
12342.5,13759.8
12342.5,13326.8
12342.6,13324.8
12342.9,13322.9
12343.4,13321.1
12344,13319.2
12344.8,13317.5
12345.8,13315.8
12347,13314.3
12348.3,13312.9
12349.7,13311.6
12351.3,13310.4
12352.9,13309.4
12354.7,13308.6
12356.5,13307.9
12358.4,13307.5
12360.3,13307.2
12362.2,13307.1
13070.9,13307.1
Z" /> 
<path style="fill:#000000; fill-opacity:1.0; 
stroke:#000000; stroke-width:0; stroke-opacity:1; 
stroke-linecap:round; stroke-linejoin:round;fill-rule:evenodd;"
d="M 12984,14307.7
12995.5,14309.4
13006.7,14312.2
13017.6,14316.1
13028.1,14321
13038.1,14327
13047.4,14333.9
13056,14341.7
13063.7,14350.3
13070.6,14359.6
13076.6,14369.5
13081.6,14380
13085.5,14390.9
13088.3,14402.2
13090,14413.6
13090.6,14425.2
13090.6,14661.4
13090,14673
13088.3,14684.5
13085.5,14695.7
13081.6,14706.6
13076.6,14717.1
13070.6,14727
13063.7,14736.3
13056,14744.9
13047.4,14752.7
13038.1,14759.6
13028.1,14765.6
13017.6,14770.5
13006.7,14774.4
12995.5,14777.3
12984,14779
12972.4,14779.5
12460.6,14779.5
12449.1,14779
12437.6,14777.3
12426.3,14774.4
12415.4,14770.5
12405,14765.6
12395,14759.6
12385.7,14752.7
12377.1,14744.9
12369.3,14736.3
12362.4,14727
12356.5,14717.1
12351.5,14706.6
12347.6,14695.7
12344.8,14684.5
12343.1,14673
12342.5,14661.4
12342.5,14425.2
12343.1,14413.6
12344.8,14402.2
12347.6,14390.9
12351.5,14380
12356.5,14369.5
12362.4,14359.6
12369.3,14350.3
12377.1,14341.7
12385.7,14333.9
12395,14327
12405,14321
12415.4,14316.1
12426.3,14312.2
12437.6,14309.4
12449.1,14307.7
12460.6,14307.1
12972.4,14307.1
Z" /> 
<path style="fill:#000000; fill-opacity:1.0; 
stroke:#000000; stroke-width:0; stroke-opacity:1; 
stroke-linecap:round; stroke-linejoin:round;fill-rule:evenodd;"
d="M 13799,13807.7
13810.4,13809.4
13821.7,13812.2
13832.6,13816.1
13843.1,13821
13853,13827
13862.3,13833.9
13870.9,13841.7
13878.7,13850.3
13885.6,13859.6
13891.6,13869.5
13896.5,13880
13900.4,13890.9
13903.2,13902.2
13904.9,13913.6
13905.5,13925.2
13905.5,14161.4
13904.9,14173
13903.2,14184.5
13900.4,14195.7
13896.5,14206.6
13891.6,14217.1
13885.6,14227
13878.7,14236.3
13870.9,14244.9
13862.3,14252.7
13853,14259.6
13843.1,14265.6
13832.6,14270.5
13821.7,14274.4
13810.4,14277.3
13799,14279
13787.4,14279.5
13275.6,14279.5
13264,14279
13252.5,14277.3
13241.3,14274.4
13230.4,14270.5
13219.9,14265.6
13210,14259.6
13200.7,14252.7
13192.1,14244.9
13184.3,14236.3
13177.4,14227
13171.4,14217.1
13166.5,14206.6
13162.6,14195.7
13159.7,14184.5
13158,14173
13157.5,14161.4
13157.5,13925.2
13158,13913.6
13159.7,13902.2
13162.6,13890.9
13166.5,13880
13171.4,13869.5
13177.4,13859.6
13184.3,13850.3
13192.1,13841.7
13200.7,13833.9
13210,13827
13219.9,13821
13230.4,13816.1
13241.3,13812.2
13252.5,13809.4
13264,13807.7
13275.6,13807.1
13787.4,13807.1
Z" /> 
</g>
<g >
</g>
<g style="fill:#000000; fill-opacity:1.0; 
stroke:#000000; stroke-width:0; stroke-opacity:1; 
stroke-linecap:round; stroke-linejoin:round;">
<path style="fill:#000000; fill-opacity:1.0; 
stroke:#000000; stroke-width:0; stroke-opacity:1; 
stroke-linecap:round; stroke-linejoin:round;fill-rule:evenodd;"
d="M 13781.5,12126.1
13783.4,12126.4
13785.2,12126.8
13787.1,12127.5
13788.8,12128.3
13790.5,12129.3
13792,12130.5
13793.4,12131.8
13794.7,12133.2
13795.9,12134.7
13796.9,12136.4
13797.7,12138.1
13798.4,12140
13798.8,12141.8
13799.1,12143.7
13799.2,12145.7
13799.2,12578.7
13799.1,12580.7
13798.8,12582.6
13798.4,12584.5
13797.7,12586.3
13796.9,12588
13795.9,12589.7
13794.7,12591.2
13793.4,12592.7
13792,12594
13790.5,12595.1
13788.8,12596.1
13787.1,12596.9
13785.2,12597.6
13783.4,12598
13781.5,12598.3
13779.5,12598.4
13070.9,12598.4
13068.9,12598.3
13067,12598
13065.2,12597.6
13063.3,12596.9
13061.6,12596.1
13059.9,12595.1
13058.4,12594
13056.9,12592.7
13055.6,12591.2
13054.5,12589.7
13053.5,12588
13052.7,12586.3
13052,12584.5
13051.6,12582.6
13051.3,12580.7
13051.2,12578.7
13051.2,12145.7
13051.3,12143.7
13051.6,12141.8
13052,12140
13052.7,12138.1
13053.5,12136.4
13054.5,12134.7
13055.6,12133.2
13056.9,12131.8
13058.4,12130.5
13059.9,12129.3
13061.6,12128.3
13063.3,12127.5
13065.2,12126.8
13067,12126.4
13068.9,12126.1
13070.9,12126
13779.5,12126
Z" /> 
<path style="fill:#000000; fill-opacity:1.0; 
stroke:#000000; stroke-width:0; stroke-opacity:1; 
stroke-linecap:round; stroke-linejoin:round;fill-rule:evenodd;"
d="M 13692.7,11126.6
13704.1,11128.3
13715.4,11131.1
13726.3,11135
13736.8,11139.9
13746.7,11145.9
13756,11152.8
13764.6,11160.6
13772.4,11169.2
13779.3,11178.5
13785.3,11188.4
13790.2,11198.9
13794.1,11209.8
13796.9,11221.1
13798.6,11232.5
13799.2,11244.1
13799.2,11480.3
13798.6,11491.9
13796.9,11503.4
13794.1,11514.6
13790.2,11525.5
13785.3,11536
13779.3,11545.9
13772.4,11555.2
13764.6,11563.8
13756,11571.6
13746.7,11578.5
13736.8,11584.5
13726.3,11589.4
13715.4,11593.3
13704.1,11596.2
13692.7,11597.9
13681.1,11598.4
13169.3,11598.4
13157.7,11597.9
13146.2,11596.2
13135,11593.3
13124.1,11589.4
13113.6,11584.5
13103.7,11578.5
13094.4,11571.6
13085.8,11563.8
13078,11555.2
13071.1,11545.9
13065.1,11536
13060.2,11525.5
13056.3,11514.6
13053.5,11503.4
13051.8,11491.9
13051.2,11480.3
13051.2,11244.1
13051.8,11232.5
13053.5,11221.1
13056.3,11209.8
13060.2,11198.9
13065.1,11188.4
13071.1,11178.5
13078,11169.2
13085.8,11160.6
13094.4,11152.8
13103.7,11145.9
13113.6,11139.9
13124.1,11135
13135,11131.1
13146.2,11128.3
13157.7,11126.6
13169.3,11126
13681.1,11126
Z" /> 
<path style="fill:#000000; fill-opacity:1.0; 
stroke:#000000; stroke-width:0; stroke-opacity:1; 
stroke-linecap:round; stroke-linejoin:round;fill-rule:evenodd;"
d="M 12877.7,11626.6
12889.2,11628.3
12900.4,11631.1
12911.3,11635
12921.8,11639.9
12931.8,11645.9
12941.1,11652.8
12949.7,11660.6
12957.4,11669.2
12964.3,11678.5
12970.3,11688.4
12975.3,11698.9
12979.2,11709.8
12982,11721.1
12983.7,11732.5
12984.3,11744.1
12984.3,11980.3
12983.7,11991.9
12982,12003.4
12979.2,12014.6
12975.3,12025.5
12970.3,12036
12964.3,12045.9
12957.4,12055.2
12949.7,12063.8
12941.1,12071.6
12931.8,12078.5
12921.8,12084.5
12911.3,12089.4
12900.4,12093.3
12889.2,12096.2
12877.7,12097.9
12866.1,12098.4
12354.3,12098.4
12342.8,12097.9
12331.3,12096.2
12320,12093.3
12309.1,12089.4
12298.7,12084.5
12288.7,12078.5
12279.4,12071.6
12270.8,12063.8
12263,12055.2
12256.1,12045.9
12250.2,12036
12245.2,12025.5
12241.3,12014.6
12238.5,12003.4
12236.8,11991.9
12236.2,11980.3
12236.2,11744.1
12236.8,11732.5
12238.5,11721.1
12241.3,11709.8
12245.2,11698.9
12250.2,11688.4
12256.1,11678.5
12263,11669.2
12270.8,11660.6
12279.4,11652.8
12288.7,11645.9
12298.7,11639.9
12309.1,11635
12320,11631.1
12331.3,11628.3
12342.8,11626.6
12354.3,11626
12866.1,11626
Z" /> 
</g>
<g >
</g>
<g style="fill:#000000; fill-opacity:1.0; 
stroke:#000000; stroke-width:0; stroke-opacity:1; 
stroke-linecap:round; stroke-linejoin:round;">
<path style="fill:#000000; fill-opacity:1.0; 
stroke:#000000; stroke-width:0; stroke-opacity:1; 
stroke-linecap:round; stroke-linejoin:round;fill-rule:evenodd;"
d="M 13781.5,7559.15
13783.4,7559.43
13785.2,7559.9
13787.1,7560.55
13788.8,7561.38
13790.5,7562.37
13792,7563.52
13793.4,7564.82
13794.7,7566.25
13795.9,7567.8
13796.9,7569.46
13797.7,7571.21
13798.4,7573.03
13798.8,7574.9
13799.1,7576.81
13799.2,7578.74
13799.2,8011.81
13799.1,8013.74
13798.8,8015.65
13798.4,8017.53
13797.7,8019.34
13796.9,8021.09
13795.9,8022.75
13794.7,8024.3
13793.4,8025.73
13792,8027.03
13790.5,8028.18
13788.8,8029.17
13787.1,8030
13785.2,8030.65
13783.4,8031.12
13781.5,8031.4
13779.5,8031.5
13070.9,8031.5
13068.9,8031.4
13067,8031.12
13065.2,8030.65
13063.3,8030
13061.6,8029.17
13059.9,8028.18
13058.4,8027.03
13056.9,8025.73
13055.6,8024.3
13054.5,8022.75
13053.5,8021.09
13052.7,8019.34
13052,8017.53
13051.6,8015.65
13051.3,8013.74
13051.2,8011.81
13051.2,7578.74
13051.3,7576.81
13051.6,7574.9
13052,7573.03
13052.7,7571.21
13053.5,7569.46
13054.5,7567.8
13055.6,7566.25
13056.9,7564.82
13058.4,7563.52
13059.9,7562.37
13061.6,7561.38
13063.3,7560.55
13065.2,7559.9
13067,7559.43
13068.9,7559.15
13070.9,7559.06
13779.5,7559.06
Z" /> 
<path style="fill:#000000; fill-opacity:1.0; 
stroke:#000000; stroke-width:0; stroke-opacity:1; 
stroke-linecap:round; stroke-linejoin:round;fill-rule:evenodd;"
d="M 13692.7,6559.62
13704.1,6561.32
13715.4,6564.14
13726.3,6568.05
13736.8,6573
13746.7,6578.96
13756,6585.86
13764.6,6593.65
13772.4,6602.24
13779.3,6611.55
13785.3,6621.49
13790.2,6631.97
13794.1,6642.88
13796.9,6654.12
13798.6,6665.59
13799.2,6677.17
13799.2,6913.39
13798.6,6924.96
13796.9,6936.43
13794.1,6947.67
13790.2,6958.58
13785.3,6969.06
13779.3,6979
13772.4,6988.31
13764.6,6996.9
13756,7004.69
13746.7,7011.59
13736.8,7017.55
13726.3,7022.51
13715.4,7026.41
13704.1,7029.23
13692.7,7030.93
13681.1,7031.5
13169.3,7031.5
13157.7,7030.93
13146.2,7029.23
13135,7026.41
13124.1,7022.51
13113.6,7017.55
13103.7,7011.59
13094.4,7004.69
13085.8,6996.9
13078,6988.31
13071.1,6979
13065.1,6969.06
13060.2,6958.58
13056.3,6947.67
13053.5,6936.43
13051.8,6924.96
13051.2,6913.39
13051.2,6677.17
13051.8,6665.59
13053.5,6654.12
13056.3,6642.88
13060.2,6631.97
13065.1,6621.49
13071.1,6611.55
13078,6602.24
13085.8,6593.65
13094.4,6585.86
13103.7,6578.96
13113.6,6573
13124.1,6568.05
13135,6564.14
13146.2,6561.32
13157.7,6559.62
13169.3,6559.06
13681.1,6559.06
Z" /> 
<path style="fill:#000000; fill-opacity:1.0; 
stroke:#000000; stroke-width:0; stroke-opacity:1; 
stroke-linecap:round; stroke-linejoin:round;fill-rule:evenodd;"
d="M 12877.7,7059.62
12889.2,7061.32
12900.4,7064.14
12911.3,7068.05
12921.8,7073
12931.8,7078.96
12941.1,7085.86
12949.7,7093.65
12957.4,7102.24
12964.3,7111.55
12970.3,7121.49
12975.3,7131.97
12979.2,7142.88
12982,7154.12
12983.7,7165.59
12984.3,7177.17
12984.3,7413.39
12983.7,7424.96
12982,7436.43
12979.2,7447.67
12975.3,7458.58
12970.3,7469.06
12964.3,7479
12957.4,7488.31
12949.7,7496.9
12941.1,7504.69
12931.8,7511.59
12921.8,7517.55
12911.3,7522.51
12900.4,7526.41
12889.2,7529.23
12877.7,7530.93
12866.1,7531.5
12354.3,7531.5
12342.8,7530.93
12331.3,7529.23
12320,7526.41
12309.1,7522.51
12298.7,7517.55
12288.7,7511.59
12279.4,7504.69
12270.8,7496.9
12263,7488.31
12256.1,7479
12250.2,7469.06
12245.2,7458.58
12241.3,7447.67
12238.5,7436.43
12236.8,7424.96
12236.2,7413.39
12236.2,7177.17
12236.8,7165.59
12238.5,7154.12
12241.3,7142.88
12245.2,7131.97
12250.2,7121.49
12256.1,7111.55
12263,7102.24
12270.8,7093.65
12279.4,7085.86
12288.7,7078.96
12298.7,7073
12309.1,7068.05
12320,7064.14
12331.3,7061.32
12342.8,7059.62
12354.3,7059.06
12866.1,7059.06
Z" /> 
</g>
<g >
</g>
<g style="fill:#000000; fill-opacity:1.0; 
stroke:#000000; stroke-width:0; stroke-opacity:1; 
stroke-linecap:round; stroke-linejoin:round;">
<path style="fill:#000000; fill-opacity:1.0; 
stroke:#000000; stroke-width:0; stroke-opacity:1; 
stroke-linecap:round; stroke-linejoin:round;fill-rule:evenodd;"
d="M 13072.8,8818.99
13074.7,8819.28
13076.6,8819.75
13078.4,8820.4
13080.1,8821.22
13081.8,8822.22
13083.4,8823.37
13084.8,8824.66
13086.1,8826.09
13087.2,8827.65
13088.2,8829.3
13089.1,8831.05
13089.7,8832.87
13090.2,8834.74
13090.5,8836.65
13090.6,8838.58
13090.6,9271.65
13090.5,9273.58
13090.2,9275.49
13089.7,9277.37
13089.1,9279.19
13088.2,9280.93
13087.2,9282.59
13086.1,9284.14
13084.8,9285.57
13083.4,9286.87
13081.8,9288.02
13080.1,9289.01
13078.4,9289.84
13076.6,9290.49
13074.7,9290.96
13072.8,9291.24
13070.9,9291.34
12362.2,9291.34
12360.3,9291.24
12358.4,9290.96
12356.5,9290.49
12354.7,9289.84
12352.9,9289.01
12351.3,9288.02
12349.7,9286.87
12348.3,9285.57
12347,9284.14
12345.8,9282.59
12344.8,9280.93
12344,9279.19
12343.4,9277.37
12342.9,9275.49
12342.6,9273.58
12342.5,9271.65
12342.5,8838.58
12342.6,8836.65
12342.9,8834.74
12343.4,8832.87
12344,8831.05
12344.8,8829.3
12345.8,8827.65
12347,8826.09
12348.3,8824.66
12349.7,8823.37
12351.3,8822.22
12352.9,8821.22
12354.7,8820.4
12356.5,8819.75
12358.4,8819.28
12360.3,8818.99
12362.2,8818.9
13070.9,8818.9
Z" /> 
<path style="fill:#000000; fill-opacity:1.0; 
stroke:#000000; stroke-width:0; stroke-opacity:1; 
stroke-linecap:round; stroke-linejoin:round;fill-rule:evenodd;"
d="M 12984,9819.47
12995.5,9821.17
13006.7,9823.98
13017.6,9827.89
13028.1,9832.84
13038.1,9838.8
13047.4,9845.71
13056,9853.49
13063.7,9862.08
13070.6,9871.39
13076.6,9881.33
13081.6,9891.81
13085.5,9902.72
13088.3,9913.97
13090,9925.43
13090.6,9937.01
13090.6,10173.2
13090,10184.8
13088.3,10196.3
13085.5,10207.5
13081.6,10218.4
13076.6,10228.9
13070.6,10238.8
13063.7,10248.2
13056,10256.7
13047.4,10264.5
13038.1,10271.4
13028.1,10277.4
13017.6,10282.3
13006.7,10286.3
12995.5,10289.1
12984,10290.8
12972.4,10291.3
12460.6,10291.3
12449.1,10290.8
12437.6,10289.1
12426.3,10286.3
12415.4,10282.3
12405,10277.4
12395,10271.4
12385.7,10264.5
12377.1,10256.7
12369.3,10248.2
12362.4,10238.8
12356.5,10228.9
12351.5,10218.4
12347.6,10207.5
12344.8,10196.3
12343.1,10184.8
12342.5,10173.2
12342.5,9937.01
12343.1,9925.43
12344.8,9913.97
12347.6,9902.72
12351.5,9891.81
12356.5,9881.33
12362.4,9871.39
12369.3,9862.08
12377.1,9853.49
12385.7,9845.71
12395,9838.8
12405,9832.84
12415.4,9827.89
12426.3,9823.98
12437.6,9821.17
12449.1,9819.47
12460.6,9818.9
12972.4,9818.9
Z" /> 
<path style="fill:#000000; fill-opacity:1.0; 
stroke:#000000; stroke-width:0; stroke-opacity:1; 
stroke-linecap:round; stroke-linejoin:round;fill-rule:evenodd;"
d="M 13799,9319.47
13810.4,9321.17
13821.7,9323.98
13832.6,9327.89
13843.1,9332.84
13853,9338.8
13862.3,9345.71
13870.9,9353.49
13878.7,9362.08
13885.6,9371.39
13891.6,9381.33
13896.5,9391.81
13900.4,9402.72
13903.2,9413.97
13904.9,9425.43
13905.5,9437.01
13905.5,9673.23
13904.9,9684.81
13903.2,9696.27
13900.4,9707.51
13896.5,9718.43
13891.6,9728.91
13885.6,9738.85
13878.7,9748.16
13870.9,9756.74
13862.3,9764.53
13853,9771.43
13843.1,9777.39
13832.6,9782.35
13821.7,9786.25
13810.4,9789.07
13799,9790.77
13787.4,9791.34
13275.6,9791.34
13264,9790.77
13252.5,9789.07
13241.3,9786.25
13230.4,9782.35
13219.9,9777.39
13210,9771.43
13200.7,9764.53
13192.1,9756.74
13184.3,9748.16
13177.4,9738.85
13171.4,9728.91
13166.5,9718.43
13162.6,9707.51
13159.7,9696.27
13158,9684.81
13157.5,9673.23
13157.5,9437.01
13158,9425.43
13159.7,9413.97
13162.6,9402.72
13166.5,9391.81
13171.4,9381.33
13177.4,9371.39
13184.3,9362.08
13192.1,9353.49
13200.7,9345.71
13210,9338.8
13219.9,9332.84
13230.4,9327.89
13241.3,9323.98
13252.5,9321.17
13264,9319.47
13275.6,9318.9
13787.4,9318.9
Z" /> 
</g>
<g >
</g>
<g style="fill:#000000; fill-opacity:1.0; 
stroke:#000000; stroke-width:0; stroke-opacity:1; 
stroke-linecap:round; stroke-linejoin:round;">
<circle cx="45157.5" cy="5275.59" r="324.803" /> 
</g>
<g style="fill:#000000; fill-opacity:1.0; 
stroke:#000000; stroke-width:39.3701; stroke-opacity:1; 
stroke-linecap:round; stroke-linejoin:round;">
</g>
<g style="fill:#000000; fill-opacity:1.0; 
stroke:#000000; stroke-width:0; stroke-opacity:1; 
stroke-linecap:round; stroke-linejoin:round;">
<path style="fill:#000000; fill-opacity:1.0; 
stroke:#000000; stroke-width:0; stroke-opacity:1; 
stroke-linecap:round; stroke-linejoin:round;fill-rule:evenodd;"
d="M 44480.3,2982.38
44482.2,2982.66
44484.1,2983.13
44485.9,2983.78
44487.6,2984.61
44489.3,2985.6
44490.8,2986.75
44492.3,2988.05
44493.6,2989.48
44494.7,2991.03
44495.7,2992.69
44496.5,2994.44
44497.2,2996.25
44497.7,2998.13
44497.9,3000.04
44498,3001.97
44498,3612.2
44497.9,3614.13
44497.7,3616.05
44497.2,3617.92
44496.5,3619.74
44495.7,3621.48
44494.7,3623.14
44493.6,3624.69
44492.3,3626.12
44490.8,3627.42
44489.3,3628.57
44487.6,3629.57
44485.9,3630.39
44484.1,3631.04
44482.2,3631.51
44480.3,3631.79
44478.3,3631.89
43868.1,3631.89
43866.2,3631.79
43864.3,3631.51
43862.4,3631.04
43860.6,3630.39
43858.8,3629.57
43857.2,3628.57
43855.6,3627.42
43854.2,3626.12
43852.9,3624.69
43851.7,3623.14
43850.7,3621.48
43849.9,3619.74
43849.3,3617.92
43848.8,3616.05
43848.5,3614.13
43848.4,3612.2
43848.4,3001.97
43848.5,3000.04
43848.8,2998.13
43849.3,2996.25
43849.9,2994.44
43850.7,2992.69
43851.7,2991.03
43852.9,2989.48
43854.2,2988.05
43855.6,2986.75
43857.2,2985.6
43858.8,2984.61
43860.6,2983.78
43862.4,2983.13
43864.3,2982.66
43866.2,2982.38
43868.1,2982.28
44478.3,2982.28
Z" /> 
<circle cx="46141.7" cy="3307.09" r="324.803" /> 
</g>
<g style="fill:#000000; fill-opacity:1.0; 
stroke:#000000; stroke-width:39.3701; stroke-opacity:1; 
stroke-linecap:round; stroke-linejoin:round;">
</g>
<g >
</g>
<g style="fill:#000000; fill-opacity:1.0; 
stroke:#000000; stroke-width:39.3701; stroke-opacity:1; 
stroke-linecap:round; stroke-linejoin:round;">
</g>
<g style="fill:#000000; fill-opacity:1.0; 
stroke:#000000; stroke-width:669.291; stroke-opacity:1; 
stroke-linecap:round; stroke-linejoin:round;">
</g>
<g style="fill:#000000; fill-opacity:0.0; 
stroke:#000000; stroke-width:669.291; stroke-opacity:1; 
stroke-linecap:round; stroke-linejoin:round;">
<path d="M39933 4976
L39618 4976
" />
<path d="M42933 3976
L42618 3976
" />
<path d="M39933 3976
L39618 3976
" />
</g>
<g style="fill:#000000; fill-opacity:0.0; 
stroke:#000000; stroke-width:0; stroke-opacity:1; 
stroke-linecap:round; stroke-linejoin:round;">
</g>
<g style="fill:#000000; fill-opacity:1.0; 
stroke:#000000; stroke-width:0; stroke-opacity:1; 
stroke-linecap:round; stroke-linejoin:round;">
<path style="fill:#000000; fill-opacity:1.0; 
stroke:#000000; stroke-width:0; stroke-opacity:1; 
stroke-linecap:round; stroke-linejoin:round;fill-rule:evenodd;"
d="M 43250,4641.83
43251.9,4642.11
43253.7,4642.58
43255.6,4643.23
43257.3,4644.06
43259,4645.05
43260.5,4646.2
43262,4647.5
43263.2,4648.93
43264.4,4650.48
43265.4,4652.14
43266.2,4653.88
43266.9,4655.7
43267.3,4657.58
43267.6,4659.49
43267.7,4661.42
43267.7,5291.34
43267.6,5293.27
43267.3,5295.18
43266.9,5297.05
43266.2,5298.87
43265.4,5300.62
43264.4,5302.28
43263.2,5303.83
43262,5305.26
43260.5,5306.56
43259,5307.71
43257.3,5308.7
43255.6,5309.53
43253.7,5310.18
43251.9,5310.65
43250,5310.93
43248,5311.02
42303.1,5311.02
42301.2,5310.93
42299.3,5310.65
42297.4,5310.18
42295.6,5309.53
42293.9,5308.7
42292.2,5307.71
42290.7,5306.56
42289.2,5305.26
42287.9,5303.83
42286.8,5302.28
42285.8,5300.62
42285,5298.87
42284.3,5297.05
42283.8,5295.18
42283.6,5293.27
42283.5,5291.34
42283.5,4661.42
42283.6,4659.49
42283.8,4657.58
42284.3,4655.7
42285,4653.88
42285.8,4652.14
42286.8,4650.48
42287.9,4648.93
42289.2,4647.5
42290.7,4646.2
42292.2,4645.05
42293.9,4644.06
42295.6,4643.23
42297.4,4642.58
42299.3,4642.11
42301.2,4641.83
42303.1,4641.73
43248,4641.73
Z" /> 
</g>
<g >
</g>
<g style="fill:#000000; fill-opacity:1.0; 
stroke:#000000; stroke-width:0; stroke-opacity:1; 
stroke-linecap:round; stroke-linejoin:round;">
<circle cx="28582.7" cy="17307.1" r="334.646" /> 
<circle cx="28582.7" cy="23307.1" r="334.646" /> 
</g>
<g style="fill:#000000; fill-opacity:1.0; 
stroke:#000000; stroke-width:39.3701; stroke-opacity:1; 
stroke-linecap:round; stroke-linejoin:round;">
</g>
<g >
</g>
<g style="fill:#000000; fill-opacity:1.0; 
stroke:#000000; stroke-width:39.3701; stroke-opacity:1; 
stroke-linecap:round; stroke-linejoin:round;">
</g>
<g style="fill:#000000; fill-opacity:1.0; 
stroke:#000000; stroke-width:0; stroke-opacity:1; 
stroke-linecap:round; stroke-linejoin:round;">
<circle cx="28527.6" cy="26456.7" r="334.646" /> 
<circle cx="24527.6" cy="26456.7" r="334.646" /> 
</g>
<g style="fill:#000000; fill-opacity:1.0; 
stroke:#000000; stroke-width:39.3701; stroke-opacity:1; 
stroke-linecap:round; stroke-linejoin:round;">
</g>
<g >
</g>
<g style="fill:#000000; fill-opacity:1.0; 
stroke:#000000; stroke-width:39.3701; stroke-opacity:1; 
stroke-linecap:round; stroke-linejoin:round;">
</g>
<g style="fill:#000000; fill-opacity:1.0; 
stroke:#000000; stroke-width:669.291; stroke-opacity:1; 
stroke-linecap:round; stroke-linejoin:round;">
</g>
<g style="fill:#000000; fill-opacity:0.0; 
stroke:#000000; stroke-width:669.291; stroke-opacity:1; 
stroke-linecap:round; stroke-linejoin:round;">
<path d="M9181 6338
L9496 6338
" />
<path d="M6181 13338
L6496 13338
" />
<path d="M9181 7338
L9496 7338
" />
<path d="M6181 12338
L6496 12338
" />
<path d="M9181 8338
L9496 8338
" />
<path d="M6181 11338
L6496 11338
" />
<path d="M9181 9338
L9496 9338
" />
<path d="M6181 10338
L6496 10338
" />
<path d="M9181 10338
L9496 10338
" />
<path d="M6181 9338
L6496 9338
" />
<path d="M9181 11338
L9496 11338
" />
<path d="M6181 8338
L6496 8338
" />
<path d="M9181 12338
L9496 12338
" />
<path d="M6181 7338
L6496 7338
" />
<path d="M9181 13338
L9496 13338
" />
</g>
<g style="fill:#000000; fill-opacity:0.0; 
stroke:#000000; stroke-width:0; stroke-opacity:1; 
stroke-linecap:round; stroke-linejoin:round;">
</g>
<g style="fill:#000000; fill-opacity:1.0; 
stroke:#000000; stroke-width:0; stroke-opacity:1; 
stroke-linecap:round; stroke-linejoin:round;">
<path style="fill:#000000; fill-opacity:1.0; 
stroke:#000000; stroke-width:0; stroke-opacity:1; 
stroke-linecap:round; stroke-linejoin:round;fill-rule:evenodd;"
d="M 6812.95,6004.03
6814.86,6004.32
6816.74,6004.78
6818.56,6005.44
6820.3,6006.26
6821.96,6007.25
6823.51,6008.41
6824.94,6009.7
6826.24,6011.13
6827.39,6012.69
6828.38,6014.34
6829.21,6016.09
6829.86,6017.91
6830.33,6019.78
6830.61,6021.69
6830.71,6023.62
6830.71,6653.54
6830.61,6655.47
6830.33,6657.38
6829.86,6659.26
6829.21,6661.08
6828.38,6662.82
6827.39,6664.48
6826.24,6666.03
6824.94,6667.46
6823.51,6668.76
6821.96,6669.91
6820.3,6670.9
6818.56,6671.73
6816.74,6672.38
6814.86,6672.85
6812.95,6673.13
6811.02,6673.23
5866.14,6673.23
5864.21,6673.13
5862.3,6672.85
5860.43,6672.38
5858.61,6671.73
5856.86,6670.9
5855.21,6669.91
5853.65,6668.76
5852.22,6667.46
5850.92,6666.03
5849.77,6664.48
5848.78,6662.82
5847.96,6661.08
5847.3,6659.26
5846.84,6657.38
5846.55,6655.47
5846.46,6653.54
5846.46,6023.62
5846.55,6021.69
5846.84,6019.78
5847.3,6017.91
5847.96,6016.09
5848.78,6014.34
5849.77,6012.69
5850.92,6011.13
5852.22,6009.7
5853.65,6008.41
5855.21,6007.25
5856.86,6006.26
5858.61,6005.44
5860.43,6004.78
5862.3,6004.32
5864.21,6004.03
5866.14,6003.94
6811.02,6003.94
Z" /> 
</g>
<g >
</g>
<g style="fill:#000000; fill-opacity:1.0; 
stroke:#000000; stroke-width:0; stroke-opacity:1; 
stroke-linecap:round; stroke-linejoin:round;">
</g>
<g style="fill:#000000; fill-opacity:1.0; 
stroke:#000000; stroke-width:789.37; stroke-opacity:1; 
stroke-linecap:round; stroke-linejoin:round;">
</g>
<g style="fill:#000000; fill-opacity:0.0; 
stroke:#000000; stroke-width:789.37; stroke-opacity:1; 
stroke-linecap:round; stroke-linejoin:round;">
<path d="M53314 26436
L53314 26398
" />
<path d="M54314 26436
L54314 26398
" />
</g>
<g style="fill:#000000; fill-opacity:0.0; 
stroke:#000000; stroke-width:0; stroke-opacity:1; 
stroke-linecap:round; stroke-linejoin:round;">
</g>
<g style="fill:#000000; fill-opacity:1.0; 
stroke:#000000; stroke-width:0; stroke-opacity:1; 
stroke-linecap:round; stroke-linejoin:round;">
<path style="fill:#000000; fill-opacity:1.0; 
stroke:#000000; stroke-width:0; stroke-opacity:1; 
stroke-linecap:round; stroke-linejoin:round;fill-rule:evenodd;"
d="M 55691.9,26004
55693.8,26004.3
55695.7,26004.8
55697.5,26005.4
55699.2,26006.3
55700.9,26007.3
55702.4,26008.4
55703.9,26009.7
55705.2,26011.1
55706.3,26012.7
55707.3,26014.3
55708.1,26016.1
55708.8,26017.9
55709.3,26019.8
55709.6,26021.7
55709.6,26023.6
55709.6,26811
55709.6,26813
55709.3,26814.9
55708.8,26816.7
55708.1,26818.6
55707.3,26820.3
55706.3,26822
55705.2,26823.5
55703.9,26824.9
55702.4,26826.2
55700.9,26827.4
55699.2,26828.4
55697.5,26829.2
55695.7,26829.9
55693.8,26830.3
55691.9,26830.6
55690,26830.7
54940,26830.7
54938,26830.6
54936.1,26830.3
54934.2,26829.9
54932.4,26829.2
54930.7,26828.4
54929,26827.4
54927.5,26826.2
54926,26824.9
54924.7,26823.5
54923.6,26822
54922.6,26820.3
54921.8,26818.6
54921.1,26816.7
54920.7,26814.9
54920.4,26813
54920.3,26811
54920.3,26023.6
54920.4,26021.7
54920.7,26019.8
54921.1,26017.9
54921.8,26016.1
54922.6,26014.3
54923.6,26012.7
54924.7,26011.1
54926,26009.7
54927.5,26008.4
54929,26007.3
54930.7,26006.3
54932.4,26005.4
54934.2,26004.8
54936.1,26004.3
54938,26004
54940,26003.9
55690,26003.9
Z" /> 
</g>
<g >
</g>
<g style="fill:#000000; fill-opacity:1.0; 
stroke:#000000; stroke-width:0; stroke-opacity:1; 
stroke-linecap:round; stroke-linejoin:round;">
</g>
<g style="fill:#000000; fill-opacity:1.0; 
stroke:#000000; stroke-width:789.37; stroke-opacity:1; 
stroke-linecap:round; stroke-linejoin:round;">
</g>
<g style="fill:#000000; fill-opacity:0.0; 
stroke:#000000; stroke-width:789.37; stroke-opacity:1; 
stroke-linecap:round; stroke-linejoin:round;">
<path d="M55346 3367
L55346 3404
" />
<path d="M54346 3367
L54346 3404
" />
</g>
<g style="fill:#000000; fill-opacity:0.0; 
stroke:#000000; stroke-width:0; stroke-opacity:1; 
stroke-linecap:round; stroke-linejoin:round;">
</g>
<g style="fill:#000000; fill-opacity:1.0; 
stroke:#000000; stroke-width:0; stroke-opacity:1; 
stroke-linecap:round; stroke-linejoin:round;">
<path style="fill:#000000; fill-opacity:1.0; 
stroke:#000000; stroke-width:0; stroke-opacity:1; 
stroke-linecap:round; stroke-linejoin:round;fill-rule:evenodd;"
d="M 53723.4,2972.54
53725.3,2972.82
53727.2,2973.29
53729,2973.94
53730.7,2974.77
53732.4,2975.76
53733.9,2976.91
53735.4,2978.21
53736.7,2979.64
53737.8,2981.19
53738.8,2982.85
53739.6,2984.59
53740.3,2986.41
53740.8,2988.29
53741,2990.2
53741.1,2992.13
53741.1,3779.53
53741,3781.46
53740.8,3783.37
53740.3,3785.24
53739.6,3787.06
53738.8,3788.81
53737.8,3790.46
53736.7,3792.02
53735.4,3793.45
53733.9,3794.74
53732.4,3795.89
53730.7,3796.89
53729,3797.71
53727.2,3798.36
53725.3,3798.83
53723.4,3799.12
53721.5,3799.21
52971.5,3799.21
52969.5,3799.12
52967.6,3798.83
52965.7,3798.36
52963.9,3797.71
52962.2,3796.89
52960.5,3795.89
52959,3794.74
52957.5,3793.45
52956.2,3792.02
52955.1,3790.46
52954.1,3788.81
52953.3,3787.06
52952.6,3785.24
52952.2,3783.37
52951.9,3781.46
52951.8,3779.53
52951.8,2992.13
52951.9,2990.2
52952.2,2988.29
52952.6,2986.41
52953.3,2984.59
52954.1,2982.85
52955.1,2981.19
52956.2,2979.64
52957.5,2978.21
52959,2976.91
52960.5,2975.76
52962.2,2974.77
52963.9,2973.94
52965.7,2973.29
52967.6,2972.82
52969.5,2972.54
52971.5,2972.44
53721.5,2972.44
Z" /> 
</g>
<g >
</g>
<g style="fill:#000000; fill-opacity:1.0; 
stroke:#000000; stroke-width:0; stroke-opacity:1; 
stroke-linecap:round; stroke-linejoin:round;">
<circle cx="52204.7" cy="4881.89" r="374.016" /> 
<path style="fill:#000000; fill-opacity:1.0; 
stroke:#000000; stroke-width:0; stroke-opacity:1; 
stroke-linecap:round; stroke-linejoin:round;fill-rule:evenodd;"
d="M 52561,8507.97
52562.9,8508.25
52564.8,8508.72
52566.6,8509.37
52568.3,8510.2
52570,8511.19
52571.5,8512.34
52573,8513.64
52574.3,8515.07
52575.4,8516.62
52576.4,8518.28
52577.2,8520.03
52577.9,8521.84
52578.4,8523.72
52578.6,8525.63
52578.7,8527.56
52578.7,9236.22
52578.6,9238.15
52578.4,9240.06
52577.9,9241.93
52577.2,9243.75
52576.4,9245.5
52575.4,9247.16
52574.3,9248.71
52573,9250.14
52571.5,9251.44
52570,9252.59
52568.3,9253.58
52566.6,9254.41
52564.8,9255.06
52562.9,9255.53
52561,9255.81
52559.1,9255.91
51850.4,9255.91
51848.5,9255.81
51846.6,9255.53
51844.7,9255.06
51842.9,9254.41
51841.1,9253.58
51839.5,9252.59
51837.9,9251.44
51836.5,9250.14
51835.2,9248.71
51834,9247.16
51833,9245.5
51832.2,9243.75
51831.6,9241.93
51831.1,9240.06
51830.8,9238.15
51830.7,9236.22
51830.7,8527.56
51830.8,8525.63
51831.1,8523.72
51831.6,8521.84
51832.2,8520.03
51833,8518.28
51834,8516.62
51835.2,8515.07
51836.5,8513.64
51837.9,8512.34
51839.5,8511.19
51841.1,8510.2
51842.9,8509.37
51844.7,8508.72
51846.6,8508.25
51848.5,8507.97
51850.4,8507.87
52559.1,8507.87
Z" /> 
</g>
<g >
</g>
<g style="fill:#000000; fill-opacity:1.0; 
stroke:#000000; stroke-width:0; stroke-opacity:1; 
stroke-linecap:round; stroke-linejoin:round;">
<circle cx="47496.1" cy="3385.83" r="374.016" /> 
<path style="fill:#000000; fill-opacity:1.0; 
stroke:#000000; stroke-width:0; stroke-opacity:1; 
stroke-linecap:round; stroke-linejoin:round;fill-rule:evenodd;"
d="M 51852.3,3011.91
51854.2,3012.19
51856.1,3012.66
51857.9,3013.31
51859.7,3014.14
51861.3,3015.13
51862.9,3016.28
51864.3,3017.58
51865.6,3019.01
51866.8,3020.56
51867.8,3022.22
51868.6,3023.96
51869.2,3025.78
51869.7,3027.66
51870,3029.57
51870.1,3031.5
51870.1,3740.16
51870,3742.09
51869.7,3744
51869.2,3745.87
51868.6,3747.69
51867.8,3749.44
51866.8,3751.09
51865.6,3752.65
51864.3,3754.08
51862.9,3755.37
51861.3,3756.52
51859.7,3757.52
51857.9,3758.34
51856.1,3758.99
51854.2,3759.46
51852.3,3759.75
51850.4,3759.84
51141.7,3759.84
51139.8,3759.75
51137.9,3759.46
51136,3758.99
51134.2,3758.34
51132.5,3757.52
51130.8,3756.52
51129.2,3755.37
51127.8,3754.08
51126.5,3752.65
51125.4,3751.09
51124.4,3749.44
51123.5,3747.69
51122.9,3745.87
51122.4,3744
51122.1,3742.09
51122,3740.16
51122,3031.5
51122.1,3029.57
51122.4,3027.66
51122.9,3025.78
51123.5,3023.96
51124.4,3022.22
51125.4,3020.56
51126.5,3019.01
51127.8,3017.58
51129.2,3016.28
51130.8,3015.13
51132.5,3014.14
51134.2,3013.31
51136,3012.66
51137.9,3012.19
51139.8,3011.91
51141.7,3011.81
51850.4,3011.81
Z" /> 
</g>
<g >
</g>
<g style="fill:#000000; fill-opacity:1.0; 
stroke:#000000; stroke-width:0; stroke-opacity:1; 
stroke-linecap:round; stroke-linejoin:round;">
<circle cx="66043.3" cy="7027.56" r="334.646" /> 
</g>
<g style="fill:#000000; fill-opacity:1.0; 
stroke:#000000; stroke-width:39.3701; stroke-opacity:1; 
stroke-linecap:round; stroke-linejoin:round;">
</g>
<g style="fill:#000000; fill-opacity:1.0; 
stroke:#000000; stroke-width:0; stroke-opacity:1; 
stroke-linecap:round; stroke-linejoin:round;">
<circle cx="66043.3" cy="6043.31" r="334.646" /> 
</g>
<g style="fill:#000000; fill-opacity:1.0; 
stroke:#000000; stroke-width:39.3701; stroke-opacity:1; 
stroke-linecap:round; stroke-linejoin:round;">
</g>
<g >
</g>
<g style="fill:#000000; fill-opacity:1.0; 
stroke:#000000; stroke-width:39.3701; stroke-opacity:1; 
stroke-linecap:round; stroke-linejoin:round;">
</g>
<g style="fill:#000000; fill-opacity:1.0; 
stroke:#000000; stroke-width:0; stroke-opacity:1; 
stroke-linecap:round; stroke-linejoin:round;">
<circle cx="58779.5" cy="15787.4" r="413.386" /> 
</g>
<g style="fill:#000000; fill-opacity:1.0; 
stroke:#000000; stroke-width:39.3701; stroke-opacity:1; 
stroke-linecap:round; stroke-linejoin:round;">
</g>
<g style="fill:#000000; fill-opacity:1.0; 
stroke:#000000; stroke-width:0; stroke-opacity:1; 
stroke-linecap:round; stroke-linejoin:round;">
<path style="fill:#000000; fill-opacity:1.0; 
stroke:#000000; stroke-width:0; stroke-opacity:1; 
stroke-linecap:round; stroke-linejoin:round;fill-rule:evenodd;"
d="M 59175.2,17342.6
59177.1,17342.9
59178.9,17343.4
59180.8,17344
59182.5,17344.8
59184.2,17345.8
59185.7,17347
59187.1,17348.3
59188.4,17349.7
59189.6,17351.3
59190.6,17352.9
59191.4,17354.7
59192.1,17356.5
59192.5,17358.4
59192.8,17360.3
59192.9,17362.2
59192.9,18149.6
59192.8,18151.5
59192.5,18153.4
59192.1,18155.3
59191.4,18157.1
59190.6,18158.9
59189.6,18160.5
59188.4,18162.1
59187.1,18163.5
59185.7,18164.8
59184.2,18166
59182.5,18167
59180.8,18167.8
59178.9,18168.4
59177.1,18168.9
59175.2,18169.2
59173.2,18169.3
58385.8,18169.3
58383.9,18169.2
58382,18168.9
58380.1,18168.4
58378.3,18167.8
58376.5,18167
58374.9,18166
58373.3,18164.8
58371.9,18163.5
58370.6,18162.1
58369.5,18160.5
58368.5,18158.9
58367.6,18157.1
58367,18155.3
58366.5,18153.4
58366.2,18151.5
58366.1,18149.6
58366.1,17362.2
58366.2,17360.3
58366.5,17358.4
58367,17356.5
58367.6,17354.7
58368.5,17352.9
58369.5,17351.3
58370.6,17349.7
58371.9,17348.3
58373.3,17347
58374.9,17345.8
58376.5,17344.8
58378.3,17344
58380.1,17343.4
58382,17342.9
58383.9,17342.6
58385.8,17342.5
59173.2,17342.5
Z" /> 
</g>
<g >
</g>
<g style="fill:#000000; fill-opacity:1.0; 
stroke:#000000; stroke-width:0; stroke-opacity:1; 
stroke-linecap:round; stroke-linejoin:round;">
<circle cx="63189" cy="9094.49" r="413.386" /> 
</g>
<g style="fill:#000000; fill-opacity:1.0; 
stroke:#000000; stroke-width:39.3701; stroke-opacity:1; 
stroke-linecap:round; stroke-linejoin:round;">
</g>
<g style="fill:#000000; fill-opacity:1.0; 
stroke:#000000; stroke-width:0; stroke-opacity:1; 
stroke-linecap:round; stroke-linejoin:round;">
<path style="fill:#000000; fill-opacity:1.0; 
stroke:#000000; stroke-width:0; stroke-opacity:1; 
stroke-linecap:round; stroke-linejoin:round;fill-rule:evenodd;"
d="M 63584.6,6712.69
63586.5,6712.98
63588.4,6713.45
63590.2,6714.1
63592,6714.92
63593.6,6715.92
63595.2,6717.07
63596.6,6718.36
63597.9,6719.8
63599,6721.35
63600,6723
63600.9,6724.75
63601.5,6726.57
63602,6728.44
63602.3,6730.35
63602.4,6732.28
63602.4,7519.69
63602.3,7521.61
63602,7523.53
63601.5,7525.4
63600.9,7527.22
63600,7528.96
63599,7530.62
63597.9,7532.17
63596.6,7533.6
63595.2,7534.9
63593.6,7536.05
63592,7537.05
63590.2,7537.87
63588.4,7538.52
63586.5,7538.99
63584.6,7539.28
63582.7,7539.37
62795.3,7539.37
62793.3,7539.28
62791.4,7538.99
62789.6,7538.52
62787.7,7537.87
62786,7537.05
62784.3,7536.05
62782.8,7534.9
62781.4,7533.6
62780.1,7532.17
62778.9,7530.62
62777.9,7528.96
62777.1,7527.22
62776.4,7525.4
62776,7523.53
62775.7,7521.61
62775.6,7519.69
62775.6,6732.28
62775.7,6730.35
62776,6728.44
62776.4,6726.57
62777.1,6724.75
62777.9,6723
62778.9,6721.35
62780.1,6719.8
62781.4,6718.36
62782.8,6717.07
62784.3,6715.92
62786,6714.92
62787.7,6714.1
62789.6,6713.45
62791.4,6712.98
62793.3,6712.69
62795.3,6712.6
63582.7,6712.6
Z" /> 
</g>
<g >
</g>
<g style="fill:#000000; fill-opacity:1.0; 
stroke:#000000; stroke-width:0; stroke-opacity:1; 
stroke-linecap:round; stroke-linejoin:round;">
<circle cx="63189" cy="15787.4" r="413.386" /> 
</g>
<g style="fill:#000000; fill-opacity:1.0; 
stroke:#000000; stroke-width:39.3701; stroke-opacity:1; 
stroke-linecap:round; stroke-linejoin:round;">
</g>
<g style="fill:#000000; fill-opacity:1.0; 
stroke:#000000; stroke-width:0; stroke-opacity:1; 
stroke-linecap:round; stroke-linejoin:round;">
<path style="fill:#000000; fill-opacity:1.0; 
stroke:#000000; stroke-width:0; stroke-opacity:1; 
stroke-linecap:round; stroke-linejoin:round;fill-rule:evenodd;"
d="M 63584.6,17342.6
63586.5,17342.9
63588.4,17343.4
63590.2,17344
63592,17344.8
63593.6,17345.8
63595.2,17347
63596.6,17348.3
63597.9,17349.7
63599,17351.3
63600,17352.9
63600.9,17354.7
63601.5,17356.5
63602,17358.4
63602.3,17360.3
63602.4,17362.2
63602.4,18149.6
63602.3,18151.5
63602,18153.4
63601.5,18155.3
63600.9,18157.1
63600,18158.9
63599,18160.5
63597.9,18162.1
63596.6,18163.5
63595.2,18164.8
63593.6,18166
63592,18167
63590.2,18167.8
63588.4,18168.4
63586.5,18168.9
63584.6,18169.2
63582.7,18169.3
62795.3,18169.3
62793.3,18169.2
62791.4,18168.9
62789.6,18168.4
62787.7,18167.8
62786,18167
62784.3,18166
62782.8,18164.8
62781.4,18163.5
62780.1,18162.1
62778.9,18160.5
62777.9,18158.9
62777.1,18157.1
62776.4,18155.3
62776,18153.4
62775.7,18151.5
62775.6,18149.6
62775.6,17362.2
62775.7,17360.3
62776,17358.4
62776.4,17356.5
62777.1,17354.7
62777.9,17352.9
62778.9,17351.3
62780.1,17349.7
62781.4,17348.3
62782.8,17347
62784.3,17345.8
62786,17344.8
62787.7,17344
62789.6,17343.4
62791.4,17342.9
62793.3,17342.6
62795.3,17342.5
63582.7,17342.5
Z" /> 
</g>
<g >
</g>
<g style="fill:#000000; fill-opacity:1.0; 
stroke:#000000; stroke-width:0; stroke-opacity:1; 
stroke-linecap:round; stroke-linejoin:round;">
<circle cx="30393.7" cy="10000" r="334.646" /> 
</g>
<g style="fill:#000000; fill-opacity:1.0; 
stroke:#000000; stroke-width:39.3701; stroke-opacity:1; 
stroke-linecap:round; stroke-linejoin:round;">
</g>
<g style="fill:#000000; fill-opacity:1.0; 
stroke:#000000; stroke-width:0; stroke-opacity:1; 
stroke-linecap:round; stroke-linejoin:round;">
<circle cx="30393.7" cy="11968.5" r="334.646" /> 
</g>
<g style="fill:#000000; fill-opacity:1.0; 
stroke:#000000; stroke-width:39.3701; stroke-opacity:1; 
stroke-linecap:round; stroke-linejoin:round;">
</g>
<g >
</g>
<g style="fill:#000000; fill-opacity:1.0; 
stroke:#000000; stroke-width:39.3701; stroke-opacity:1; 
stroke-linecap:round; stroke-linejoin:round;">
</g>
<g style="fill:#000000; fill-opacity:1.0; 
stroke:#000000; stroke-width:0; stroke-opacity:1; 
stroke-linecap:round; stroke-linejoin:round;">
<circle cx="3110.24" cy="10315" r="334.646" /> 
</g>
<g style="fill:#000000; fill-opacity:1.0; 
stroke:#000000; stroke-width:39.3701; stroke-opacity:1; 
stroke-linecap:round; stroke-linejoin:round;">
</g>
<g style="fill:#000000; fill-opacity:1.0; 
stroke:#000000; stroke-width:0; stroke-opacity:1; 
stroke-linecap:round; stroke-linejoin:round;">
<circle cx="5078.74" cy="10315" r="334.646" /> 
</g>
<g style="fill:#000000; fill-opacity:1.0; 
stroke:#000000; stroke-width:39.3701; stroke-opacity:1; 
stroke-linecap:round; stroke-linejoin:round;">
</g>
<g >
</g>
<g style="fill:#000000; fill-opacity:1.0; 
stroke:#000000; stroke-width:39.3701; stroke-opacity:1; 
stroke-linecap:round; stroke-linejoin:round;">
</g>
<g style="fill:#000000; fill-opacity:1.0; 
stroke:#000000; stroke-width:0; stroke-opacity:1; 
stroke-linecap:round; stroke-linejoin:round;">
<circle cx="2795.28" cy="3700.79" r="255.906" /> 
</g>
<g style="fill:#000000; fill-opacity:1.0; 
stroke:#000000; stroke-width:39.3701; stroke-opacity:1; 
stroke-linecap:round; stroke-linejoin:round;">
</g>
<g style="fill:#000000; fill-opacity:1.0; 
stroke:#000000; stroke-width:0; stroke-opacity:1; 
stroke-linecap:round; stroke-linejoin:round;">
<path style="fill:#000000; fill-opacity:1.0; 
stroke:#000000; stroke-width:0; stroke-opacity:1; 
stroke-linecap:round; stroke-linejoin:round;fill-rule:evenodd;"
d="M 3820.83,3444.98
3822.74,3445.26
3824.61,3445.73
3826.43,3446.38
3828.18,3447.21
3829.83,3448.2
3831.39,3449.35
3832.82,3450.65
3834.11,3452.08
3835.26,3453.63
3836.26,3455.29
3837.08,3457.03
3837.74,3458.85
3838.2,3460.73
3838.49,3462.64
3838.58,3464.57
3838.58,3937.01
3838.49,3938.94
3838.2,3940.85
3837.74,3942.72
3837.08,3944.54
3836.26,3946.29
3835.26,3947.94
3834.11,3949.5
3832.82,3950.93
3831.39,3952.22
3829.83,3953.38
3828.18,3954.37
3826.43,3955.19
3824.61,3955.85
3822.74,3956.31
3820.83,3956.6
3818.9,3956.69
3346.46,3956.69
3344.53,3956.6
3342.62,3956.31
3340.74,3955.85
3338.92,3955.19
3337.18,3954.37
3335.52,3953.38
3333.97,3952.22
3332.54,3950.93
3331.24,3949.5
3330.09,3947.94
3329.1,3946.29
3328.27,3944.54
3327.62,3942.72
3327.15,3940.85
3326.87,3938.94
3326.77,3937.01
3326.77,3464.57
3326.87,3462.64
3327.15,3460.73
3327.62,3458.85
3328.27,3457.03
3329.1,3455.29
3330.09,3453.63
3331.24,3452.08
3332.54,3450.65
3333.97,3449.35
3335.52,3448.2
3337.18,3447.21
3338.92,3446.38
3340.74,3445.73
3342.62,3445.26
3344.53,3444.98
3346.46,3444.88
3818.9,3444.88
Z" /> 
</g>
<g >
</g>
<g style="fill:#000000; fill-opacity:1.0; 
stroke:#000000; stroke-width:0; stroke-opacity:1; 
stroke-linecap:round; stroke-linejoin:round;">
<circle cx="69565.8" cy="23977.5" r="177.165" /> 
</g>
<g style="fill:#000000; fill-opacity:1.0; 
stroke:#000000; stroke-width:39.3701; stroke-opacity:1; 
stroke-linecap:round; stroke-linejoin:round;">
</g>
<g style="fill:#000000; fill-opacity:1.0; 
stroke:#000000; stroke-width:0; stroke-opacity:1; 
stroke-linecap:round; stroke-linejoin:round;">
<circle cx="68897.6" cy="23700.8" r="177.165" /> 
</g>
<g style="fill:#000000; fill-opacity:1.0; 
stroke:#000000; stroke-width:39.3701; stroke-opacity:1; 
stroke-linecap:round; stroke-linejoin:round;">
</g>
<g style="fill:#000000; fill-opacity:1.0; 
stroke:#000000; stroke-width:0; stroke-opacity:1; 
stroke-linecap:round; stroke-linejoin:round;">
<circle cx="68229.5" cy="23977.5" r="177.165" /> 
</g>
<g style="fill:#000000; fill-opacity:1.0; 
stroke:#000000; stroke-width:39.3701; stroke-opacity:1; 
stroke-linecap:round; stroke-linejoin:round;">
</g>
<g style="fill:#000000; fill-opacity:1.0; 
stroke:#000000; stroke-width:0; stroke-opacity:1; 
stroke-linecap:round; stroke-linejoin:round;">
<circle cx="67952.8" cy="24645.7" r="177.165" /> 
</g>
<g style="fill:#000000; fill-opacity:1.0; 
stroke:#000000; stroke-width:39.3701; stroke-opacity:1; 
stroke-linecap:round; stroke-linejoin:round;">
</g>
<g style="fill:#000000; fill-opacity:1.0; 
stroke:#000000; stroke-width:0; stroke-opacity:1; 
stroke-linecap:round; stroke-linejoin:round;">
<circle cx="68229.5" cy="25313.8" r="177.165" /> 
</g>
<g style="fill:#000000; fill-opacity:1.0; 
stroke:#000000; stroke-width:39.3701; stroke-opacity:1; 
stroke-linecap:round; stroke-linejoin:round;">
</g>
<g style="fill:#000000; fill-opacity:1.0; 
stroke:#000000; stroke-width:0; stroke-opacity:1; 
stroke-linecap:round; stroke-linejoin:round;">
<circle cx="68897.6" cy="25590.6" r="177.165" /> 
</g>
<g style="fill:#000000; fill-opacity:1.0; 
stroke:#000000; stroke-width:39.3701; stroke-opacity:1; 
stroke-linecap:round; stroke-linejoin:round;">
</g>
<g style="fill:#000000; fill-opacity:1.0; 
stroke:#000000; stroke-width:0; stroke-opacity:1; 
stroke-linecap:round; stroke-linejoin:round;">
<circle cx="69565.8" cy="25313.8" r="177.165" /> 
</g>
<g style="fill:#000000; fill-opacity:1.0; 
stroke:#000000; stroke-width:39.3701; stroke-opacity:1; 
stroke-linecap:round; stroke-linejoin:round;">
</g>
<g style="fill:#000000; fill-opacity:1.0; 
stroke:#000000; stroke-width:0; stroke-opacity:1; 
stroke-linecap:round; stroke-linejoin:round;">
<circle cx="69842.5" cy="24645.7" r="177.165" /> 
</g>
<g style="fill:#000000; fill-opacity:1.0; 
stroke:#000000; stroke-width:39.3701; stroke-opacity:1; 
stroke-linecap:round; stroke-linejoin:round;">
</g>
<g style="fill:#000000; fill-opacity:1.0; 
stroke:#000000; stroke-width:0; stroke-opacity:1; 
stroke-linecap:round; stroke-linejoin:round;">
<circle cx="68897.6" cy="24645.7" r="1279.53" /> 
</g>
<g style="fill:#000000; fill-opacity:1.0; 
stroke:#000000; stroke-width:39.3701; stroke-opacity:1; 
stroke-linecap:round; stroke-linejoin:round;">
</g>
<g >
</g>
<g style="fill:#000000; fill-opacity:1.0; 
stroke:#000000; stroke-width:39.3701; stroke-opacity:1; 
stroke-linecap:round; stroke-linejoin:round;">
</g>
<g style="fill:#000000; fill-opacity:1.0; 
stroke:#000000; stroke-width:0; stroke-opacity:1; 
stroke-linecap:round; stroke-linejoin:round;">
<circle cx="69565.8" cy="4292.5" r="177.165" /> 
</g>
<g style="fill:#000000; fill-opacity:1.0; 
stroke:#000000; stroke-width:39.3701; stroke-opacity:1; 
stroke-linecap:round; stroke-linejoin:round;">
</g>
<g style="fill:#000000; fill-opacity:1.0; 
stroke:#000000; stroke-width:0; stroke-opacity:1; 
stroke-linecap:round; stroke-linejoin:round;">
<circle cx="68897.6" cy="4015.75" r="177.165" /> 
</g>
<g style="fill:#000000; fill-opacity:1.0; 
stroke:#000000; stroke-width:39.3701; stroke-opacity:1; 
stroke-linecap:round; stroke-linejoin:round;">
</g>
<g style="fill:#000000; fill-opacity:1.0; 
stroke:#000000; stroke-width:0; stroke-opacity:1; 
stroke-linecap:round; stroke-linejoin:round;">
<circle cx="68229.5" cy="4292.5" r="177.165" /> 
</g>
<g style="fill:#000000; fill-opacity:1.0; 
stroke:#000000; stroke-width:39.3701; stroke-opacity:1; 
stroke-linecap:round; stroke-linejoin:round;">
</g>
<g style="fill:#000000; fill-opacity:1.0; 
stroke:#000000; stroke-width:0; stroke-opacity:1; 
stroke-linecap:round; stroke-linejoin:round;">
<circle cx="67952.8" cy="4960.63" r="177.165" /> 
</g>
<g style="fill:#000000; fill-opacity:1.0; 
stroke:#000000; stroke-width:39.3701; stroke-opacity:1; 
stroke-linecap:round; stroke-linejoin:round;">
</g>
<g style="fill:#000000; fill-opacity:1.0; 
stroke:#000000; stroke-width:0; stroke-opacity:1; 
stroke-linecap:round; stroke-linejoin:round;">
<circle cx="68229.5" cy="5628.76" r="177.165" /> 
</g>
<g style="fill:#000000; fill-opacity:1.0; 
stroke:#000000; stroke-width:39.3701; stroke-opacity:1; 
stroke-linecap:round; stroke-linejoin:round;">
</g>
<g style="fill:#000000; fill-opacity:1.0; 
stroke:#000000; stroke-width:0; stroke-opacity:1; 
stroke-linecap:round; stroke-linejoin:round;">
<circle cx="68897.6" cy="5905.51" r="177.165" /> 
</g>
<g style="fill:#000000; fill-opacity:1.0; 
stroke:#000000; stroke-width:39.3701; stroke-opacity:1; 
stroke-linecap:round; stroke-linejoin:round;">
</g>
<g style="fill:#000000; fill-opacity:1.0; 
stroke:#000000; stroke-width:0; stroke-opacity:1; 
stroke-linecap:round; stroke-linejoin:round;">
<circle cx="69565.8" cy="5628.76" r="177.165" /> 
</g>
<g style="fill:#000000; fill-opacity:1.0; 
stroke:#000000; stroke-width:39.3701; stroke-opacity:1; 
stroke-linecap:round; stroke-linejoin:round;">
</g>
<g style="fill:#000000; fill-opacity:1.0; 
stroke:#000000; stroke-width:0; stroke-opacity:1; 
stroke-linecap:round; stroke-linejoin:round;">
<circle cx="69842.5" cy="4960.63" r="177.165" /> 
</g>
<g style="fill:#000000; fill-opacity:1.0; 
stroke:#000000; stroke-width:39.3701; stroke-opacity:1; 
stroke-linecap:round; stroke-linejoin:round;">
</g>
<g style="fill:#000000; fill-opacity:1.0; 
stroke:#000000; stroke-width:0; stroke-opacity:1; 
stroke-linecap:round; stroke-linejoin:round;">
<circle cx="68897.6" cy="4960.63" r="1279.53" /> 
</g>
<g style="fill:#000000; fill-opacity:1.0; 
stroke:#000000; stroke-width:39.3701; stroke-opacity:1; 
stroke-linecap:round; stroke-linejoin:round;">
</g>
<g >
</g>
<g style="fill:#000000; fill-opacity:1.0; 
stroke:#000000; stroke-width:39.3701; stroke-opacity:1; 
stroke-linecap:round; stroke-linejoin:round;">
</g>
<g style="fill:#000000; fill-opacity:1.0; 
stroke:#000000; stroke-width:0; stroke-opacity:1; 
stroke-linecap:round; stroke-linejoin:round;">
<circle cx="21140.6" cy="21221.6" r="177.165" /> 
</g>
<g style="fill:#000000; fill-opacity:1.0; 
stroke:#000000; stroke-width:39.3701; stroke-opacity:1; 
stroke-linecap:round; stroke-linejoin:round;">
</g>
<g style="fill:#000000; fill-opacity:1.0; 
stroke:#000000; stroke-width:0; stroke-opacity:1; 
stroke-linecap:round; stroke-linejoin:round;">
<circle cx="20472.4" cy="20944.9" r="177.165" /> 
</g>
<g style="fill:#000000; fill-opacity:1.0; 
stroke:#000000; stroke-width:39.3701; stroke-opacity:1; 
stroke-linecap:round; stroke-linejoin:round;">
</g>
<g style="fill:#000000; fill-opacity:1.0; 
stroke:#000000; stroke-width:0; stroke-opacity:1; 
stroke-linecap:round; stroke-linejoin:round;">
<circle cx="19804.3" cy="21221.6" r="177.165" /> 
</g>
<g style="fill:#000000; fill-opacity:1.0; 
stroke:#000000; stroke-width:39.3701; stroke-opacity:1; 
stroke-linecap:round; stroke-linejoin:round;">
</g>
<g style="fill:#000000; fill-opacity:1.0; 
stroke:#000000; stroke-width:0; stroke-opacity:1; 
stroke-linecap:round; stroke-linejoin:round;">
<circle cx="19527.6" cy="21889.8" r="177.165" /> 
</g>
<g style="fill:#000000; fill-opacity:1.0; 
stroke:#000000; stroke-width:39.3701; stroke-opacity:1; 
stroke-linecap:round; stroke-linejoin:round;">
</g>
<g style="fill:#000000; fill-opacity:1.0; 
stroke:#000000; stroke-width:0; stroke-opacity:1; 
stroke-linecap:round; stroke-linejoin:round;">
<circle cx="19804.3" cy="22557.9" r="177.165" /> 
</g>
<g style="fill:#000000; fill-opacity:1.0; 
stroke:#000000; stroke-width:39.3701; stroke-opacity:1; 
stroke-linecap:round; stroke-linejoin:round;">
</g>
<g style="fill:#000000; fill-opacity:1.0; 
stroke:#000000; stroke-width:0; stroke-opacity:1; 
stroke-linecap:round; stroke-linejoin:round;">
<circle cx="20472.4" cy="22834.6" r="177.165" /> 
</g>
<g style="fill:#000000; fill-opacity:1.0; 
stroke:#000000; stroke-width:39.3701; stroke-opacity:1; 
stroke-linecap:round; stroke-linejoin:round;">
</g>
<g style="fill:#000000; fill-opacity:1.0; 
stroke:#000000; stroke-width:0; stroke-opacity:1; 
stroke-linecap:round; stroke-linejoin:round;">
<circle cx="21140.6" cy="22557.9" r="177.165" /> 
</g>
<g style="fill:#000000; fill-opacity:1.0; 
stroke:#000000; stroke-width:39.3701; stroke-opacity:1; 
stroke-linecap:round; stroke-linejoin:round;">
</g>
<g style="fill:#000000; fill-opacity:1.0; 
stroke:#000000; stroke-width:0; stroke-opacity:1; 
stroke-linecap:round; stroke-linejoin:round;">
<circle cx="21417.3" cy="21889.8" r="177.165" /> 
</g>
<g style="fill:#000000; fill-opacity:1.0; 
stroke:#000000; stroke-width:39.3701; stroke-opacity:1; 
stroke-linecap:round; stroke-linejoin:round;">
</g>
<g style="fill:#000000; fill-opacity:1.0; 
stroke:#000000; stroke-width:0; stroke-opacity:1; 
stroke-linecap:round; stroke-linejoin:round;">
<circle cx="20472.4" cy="21889.8" r="1279.53" /> 
</g>
<g style="fill:#000000; fill-opacity:1.0; 
stroke:#000000; stroke-width:39.3701; stroke-opacity:1; 
stroke-linecap:round; stroke-linejoin:round;">
</g>
<g >
</g>
<g style="fill:#000000; fill-opacity:1.0; 
stroke:#000000; stroke-width:39.3701; stroke-opacity:1; 
stroke-linecap:round; stroke-linejoin:round;">
</g>
<g style="fill:#000000; fill-opacity:1.0; 
stroke:#000000; stroke-width:0; stroke-opacity:1; 
stroke-linecap:round; stroke-linejoin:round;">
<circle cx="24787.4" cy="4960.63" r="334.646" /> 
<circle cx="20787.4" cy="4960.63" r="334.646" /> 
</g>
<g style="fill:#000000; fill-opacity:1.0; 
stroke:#000000; stroke-width:39.3701; stroke-opacity:1; 
stroke-linecap:round; stroke-linejoin:round;">
</g>
<g >
</g>
<g style="fill:#000000; fill-opacity:1.0; 
stroke:#000000; stroke-width:39.3701; stroke-opacity:1; 
stroke-linecap:round; stroke-linejoin:round;">
</g>
<g style="fill:#000000; fill-opacity:1.0; 
stroke:#000000; stroke-width:0; stroke-opacity:1; 
stroke-linecap:round; stroke-linejoin:round;">
<circle cx="24976.4" cy="3110.24" r="334.646" /> 
<circle cx="28976.4" cy="3110.24" r="334.646" /> 
</g>
<g style="fill:#000000; fill-opacity:1.0; 
stroke:#000000; stroke-width:39.3701; stroke-opacity:1; 
stroke-linecap:round; stroke-linejoin:round;">
</g>
<g >
</g>
<g style="fill:#000000; fill-opacity:1.0; 
stroke:#000000; stroke-width:39.3701; stroke-opacity:1; 
stroke-linecap:round; stroke-linejoin:round;">
</g>
<g style="fill:#000000; fill-opacity:1.0; 
stroke:#000000; stroke-width:0; stroke-opacity:1; 
stroke-linecap:round; stroke-linejoin:round;">
<circle cx="26708.7" cy="24409.4" r="334.646" /> 
<circle cx="30708.7" cy="24409.4" r="334.646" /> 
</g>
<g style="fill:#000000; fill-opacity:1.0; 
stroke:#000000; stroke-width:39.3701; stroke-opacity:1; 
stroke-linecap:round; stroke-linejoin:round;">
</g>
<g >
</g>
<g style="fill:#000000; fill-opacity:1.0; 
stroke:#000000; stroke-width:39.3701; stroke-opacity:1; 
stroke-linecap:round; stroke-linejoin:round;">
</g>
<g style="fill:#000000; fill-opacity:1.0; 
stroke:#000000; stroke-width:0; stroke-opacity:1; 
stroke-linecap:round; stroke-linejoin:round;">
<circle cx="9944.88" cy="14724.4" r="334.646" /> 
<circle cx="5944.88" cy="14724.4" r="334.646" /> 
</g>
<g style="fill:#000000; fill-opacity:1.0; 
stroke:#000000; stroke-width:39.3701; stroke-opacity:1; 
stroke-linecap:round; stroke-linejoin:round;">
</g>
<g >
</g>
<g style="fill:#000000; fill-opacity:1.0; 
stroke:#000000; stroke-width:39.3701; stroke-opacity:1; 
stroke-linecap:round; stroke-linejoin:round;">
</g>
<g style="fill:#000000; fill-opacity:1.0; 
stroke:#000000; stroke-width:0; stroke-opacity:1; 
stroke-linecap:round; stroke-linejoin:round;">
<circle cx="4842.52" cy="15417.3" r="334.646" /> 
<circle cx="4842.52" cy="11417.3" r="334.646" /> 
</g>
<g style="fill:#000000; fill-opacity:1.0; 
stroke:#000000; stroke-width:39.3701; stroke-opacity:1; 
stroke-linecap:round; stroke-linejoin:round;">
</g>
<g >
</g>
<g style="fill:#000000; fill-opacity:1.0; 
stroke:#000000; stroke-width:39.3701; stroke-opacity:1; 
stroke-linecap:round; stroke-linejoin:round;">
</g>
<g style="fill:#000000; fill-opacity:1.0; 
stroke:#000000; stroke-width:0; stroke-opacity:1; 
stroke-linecap:round; stroke-linejoin:round;">
<circle cx="4763.78" cy="7346.46" r="334.646" /> 
<circle cx="4763.78" cy="3346.46" r="334.646" /> 
</g>
<g style="fill:#000000; fill-opacity:1.0; 
stroke:#000000; stroke-width:39.3701; stroke-opacity:1; 
stroke-linecap:round; stroke-linejoin:round;">
</g>
<g >
</g>
<g style="fill:#000000; fill-opacity:1.0; 
stroke:#000000; stroke-width:39.3701; stroke-opacity:1; 
stroke-linecap:round; stroke-linejoin:round;">
</g>
<g style="fill:#000000; fill-opacity:1.0; 
stroke:#000000; stroke-width:0; stroke-opacity:1; 
stroke-linecap:round; stroke-linejoin:round;">
<circle cx="9984.25" cy="3503.94" r="334.646" /> 
<circle cx="5984.25" cy="3503.94" r="334.646" /> 
</g>
<g style="fill:#000000; fill-opacity:1.0; 
stroke:#000000; stroke-width:39.3701; stroke-opacity:1; 
stroke-linecap:round; stroke-linejoin:round;">
</g>
<g >
</g>
<g style="fill:#000000; fill-opacity:1.0; 
stroke:#000000; stroke-width:39.3701; stroke-opacity:1; 
stroke-linecap:round; stroke-linejoin:round;">
</g>
<g style="fill:#000000; fill-opacity:1.0; 
stroke:#000000; stroke-width:0; stroke-opacity:1; 
stroke-linecap:round; stroke-linejoin:round;">
<circle cx="3464.57" cy="15417.3" r="334.646" /> 
<circle cx="3464.57" cy="11417.3" r="334.646" /> 
</g>
<g style="fill:#000000; fill-opacity:1.0; 
stroke:#000000; stroke-width:39.3701; stroke-opacity:1; 
stroke-linecap:round; stroke-linejoin:round;">
</g>
<g >
</g>
<g style="fill:#000000; fill-opacity:1.0; 
stroke:#000000; stroke-width:39.3701; stroke-opacity:1; 
stroke-linecap:round; stroke-linejoin:round;">
</g>
<g style="fill:#000000; fill-opacity:1.0; 
stroke:#000000; stroke-width:0; stroke-opacity:1; 
stroke-linecap:round; stroke-linejoin:round;">
<circle cx="3464.57" cy="9118.11" r="334.646" /> 
<circle cx="3464.57" cy="5118.11" r="334.646" /> 
</g>
<g style="fill:#000000; fill-opacity:1.0; 
stroke:#000000; stroke-width:39.3701; stroke-opacity:1; 
stroke-linecap:round; stroke-linejoin:round;">
</g>
<g >
</g>
<g style="fill:#000000; fill-opacity:1.0; 
stroke:#000000; stroke-width:39.3701; stroke-opacity:1; 
stroke-linecap:round; stroke-linejoin:round;">
</g>
<g style="fill:#000000; fill-opacity:1.0; 
stroke:#000000; stroke-width:0; stroke-opacity:1; 
stroke-linecap:round; stroke-linejoin:round;">
<circle cx="52889.8" cy="10275.6" r="334.646" /> 
<circle cx="56889.8" cy="10275.6" r="334.646" /> 
</g>
<g style="fill:#000000; fill-opacity:1.0; 
stroke:#000000; stroke-width:39.3701; stroke-opacity:1; 
stroke-linecap:round; stroke-linejoin:round;">
</g>
<g >
</g>
<g style="fill:#000000; fill-opacity:1.0; 
stroke:#000000; stroke-width:39.3701; stroke-opacity:1; 
stroke-linecap:round; stroke-linejoin:round;">
</g>
<g style="fill:#000000; fill-opacity:1.0; 
stroke:#000000; stroke-width:0; stroke-opacity:1; 
stroke-linecap:round; stroke-linejoin:round;">
<circle cx="38488.2" cy="3976.38" r="334.646" /> 
<circle cx="34488.2" cy="3976.38" r="334.646" /> 
</g>
<g style="fill:#000000; fill-opacity:1.0; 
stroke:#000000; stroke-width:39.3701; stroke-opacity:1; 
stroke-linecap:round; stroke-linejoin:round;">
</g>
<g >
</g>
<g style="fill:#000000; fill-opacity:1.0; 
stroke:#000000; stroke-width:39.3701; stroke-opacity:1; 
stroke-linecap:round; stroke-linejoin:round;">
</g>
<g style="fill:#000000; fill-opacity:1.0; 
stroke:#000000; stroke-width:789.37; stroke-opacity:1; 
stroke-linecap:round; stroke-linejoin:round;">
</g>
<g style="fill:#000000; fill-opacity:0.0; 
stroke:#000000; stroke-width:789.37; stroke-opacity:1; 
stroke-linecap:round; stroke-linejoin:round;">
<path d="M22834 3367
L22834 3404
" />
<path d="M21834 3367
L21834 3404
" />
</g>
<g style="fill:#000000; fill-opacity:0.0; 
stroke:#000000; stroke-width:0; stroke-opacity:1; 
stroke-linecap:round; stroke-linejoin:round;">
</g>
<g style="fill:#000000; fill-opacity:1.0; 
stroke:#000000; stroke-width:0; stroke-opacity:1; 
stroke-linecap:round; stroke-linejoin:round;">
<path style="fill:#000000; fill-opacity:1.0; 
stroke:#000000; stroke-width:0; stroke-opacity:1; 
stroke-linecap:round; stroke-linejoin:round;fill-rule:evenodd;"
d="M 21211.6,2972.54
21213.5,2972.82
21215.4,2973.29
21217.2,2973.94
21218.9,2974.77
21220.6,2975.76
21222.1,2976.91
21223.6,2978.21
21224.9,2979.64
21226,2981.19
21227,2982.85
21227.8,2984.59
21228.5,2986.41
21229,2988.29
21229.2,2990.2
21229.3,2992.13
21229.3,3779.53
21229.2,3781.46
21229,3783.37
21228.5,3785.24
21227.8,3787.06
21227,3788.81
21226,3790.46
21224.9,3792.02
21223.6,3793.45
21222.1,3794.74
21220.6,3795.89
21218.9,3796.89
21217.2,3797.71
21215.4,3798.36
21213.5,3798.83
21211.6,3799.12
21209.6,3799.21
20459.6,3799.21
20457.7,3799.12
20455.8,3798.83
20453.9,3798.36
20452.1,3797.71
20450.4,3796.89
20448.7,3795.89
20447.2,3794.74
20445.7,3793.45
20444.4,3792.02
20443.3,3790.46
20442.3,3788.81
20441.5,3787.06
20440.8,3785.24
20440.3,3783.37
20440.1,3781.46
20440,3779.53
20440,2992.13
20440.1,2990.2
20440.3,2988.29
20440.8,2986.41
20441.5,2984.59
20442.3,2982.85
20443.3,2981.19
20444.4,2979.64
20445.7,2978.21
20447.2,2976.91
20448.7,2975.76
20450.4,2974.77
20452.1,2973.94
20453.9,2973.29
20455.8,2972.82
20457.7,2972.54
20459.6,2972.44
21209.6,2972.44
Z" /> 
</g>
<g >
</g>
<g style="fill:#000000; fill-opacity:1.0; 
stroke:#000000; stroke-width:0; stroke-opacity:1; 
stroke-linecap:round; stroke-linejoin:round;">
</g>
<g style="fill:#000000; fill-opacity:1.0; 
stroke:#000000; stroke-width:789.37; stroke-opacity:1; 
stroke-linecap:round; stroke-linejoin:round;">
</g>
<g style="fill:#000000; fill-opacity:0.0; 
stroke:#000000; stroke-width:789.37; stroke-opacity:1; 
stroke-linecap:round; stroke-linejoin:round;">
<path d="M30511 26436
L30511 26398
" />
<path d="M31511 26436
L31511 26398
" />
</g>
<g style="fill:#000000; fill-opacity:0.0; 
stroke:#000000; stroke-width:0; stroke-opacity:1; 
stroke-linecap:round; stroke-linejoin:round;">
</g>
<g style="fill:#000000; fill-opacity:1.0; 
stroke:#000000; stroke-width:0; stroke-opacity:1; 
stroke-linecap:round; stroke-linejoin:round;">
<path style="fill:#000000; fill-opacity:1.0; 
stroke:#000000; stroke-width:0; stroke-opacity:1; 
stroke-linecap:round; stroke-linejoin:round;fill-rule:evenodd;"
d="M 32888.7,26004
32890.7,26004.3
32892.5,26004.8
32894.3,26005.4
32896.1,26006.3
32897.7,26007.3
32899.3,26008.4
32900.7,26009.7
32902,26011.1
32903.2,26012.7
32904.2,26014.3
32905,26016.1
32905.6,26017.9
32906.1,26019.8
32906.4,26021.7
32906.5,26023.6
32906.5,26811
32906.4,26813
32906.1,26814.9
32905.6,26816.7
32905,26818.6
32904.2,26820.3
32903.2,26822
32902,26823.5
32900.7,26824.9
32899.3,26826.2
32897.7,26827.4
32896.1,26828.4
32894.3,26829.2
32892.5,26829.9
32890.7,26830.3
32888.7,26830.6
32886.8,26830.7
32136.8,26830.7
32134.9,26830.6
32133,26830.3
32131.1,26829.9
32129.3,26829.2
32127.5,26828.4
32125.9,26827.4
32124.3,26826.2
32122.9,26824.9
32121.6,26823.5
32120.4,26822
32119.5,26820.3
32118.6,26818.6
32118,26816.7
32117.5,26814.9
32117.2,26813
32117.1,26811
32117.1,26023.6
32117.2,26021.7
32117.5,26019.8
32118,26017.9
32118.6,26016.1
32119.5,26014.3
32120.4,26012.7
32121.6,26011.1
32122.9,26009.7
32124.3,26008.4
32125.9,26007.3
32127.5,26006.3
32129.3,26005.4
32131.1,26004.8
32133,26004.3
32134.9,26004
32136.8,26003.9
32886.8,26003.9
Z" /> 
</g>
<g >
</g>
<g style="fill:#000000; fill-opacity:1.0; 
stroke:#000000; stroke-width:0; stroke-opacity:1; 
stroke-linecap:round; stroke-linejoin:round;">
</g>
<g style="fill:#000000; fill-opacity:1.0; 
stroke:#000000; stroke-width:789.37; stroke-opacity:1; 
stroke-linecap:round; stroke-linejoin:round;">
</g>
<g style="fill:#000000; fill-opacity:0.0; 
stroke:#000000; stroke-width:789.37; stroke-opacity:1; 
stroke-linecap:round; stroke-linejoin:round;">
<path d="M32708 3367
L32708 3404
" />
<path d="M31708 3367
L31708 3404
" />
</g>
<g style="fill:#000000; fill-opacity:0.0; 
stroke:#000000; stroke-width:0; stroke-opacity:1; 
stroke-linecap:round; stroke-linejoin:round;">
</g>
<g style="fill:#000000; fill-opacity:1.0; 
stroke:#000000; stroke-width:0; stroke-opacity:1; 
stroke-linecap:round; stroke-linejoin:round;">
<path style="fill:#000000; fill-opacity:1.0; 
stroke:#000000; stroke-width:0; stroke-opacity:1; 
stroke-linecap:round; stroke-linejoin:round;fill-rule:evenodd;"
d="M 31085.6,2972.54
31087.5,2972.82
31089.4,2973.29
31091.2,2973.94
31092.9,2974.77
31094.6,2975.76
31096.1,2976.91
31097.6,2978.21
31098.9,2979.64
31100,2981.19
31101,2982.85
31101.8,2984.59
31102.5,2986.41
31103,2988.29
31103.3,2990.2
31103.3,2992.13
31103.3,3779.53
31103.3,3781.46
31103,3783.37
31102.5,3785.24
31101.8,3787.06
31101,3788.81
31100,3790.46
31098.9,3792.02
31097.6,3793.45
31096.1,3794.74
31094.6,3795.89
31092.9,3796.89
31091.2,3797.71
31089.4,3798.36
31087.5,3798.83
31085.6,3799.12
31083.7,3799.21
30333.7,3799.21
30331.7,3799.12
30329.8,3798.83
30327.9,3798.36
30326.1,3797.71
30324.4,3796.89
30322.7,3795.89
30321.2,3794.74
30319.7,3793.45
30318.4,3792.02
30317.3,3790.46
30316.3,3788.81
30315.5,3787.06
30314.8,3785.24
30314.4,3783.37
30314.1,3781.46
30314,3779.53
30314,2992.13
30314.1,2990.2
30314.4,2988.29
30314.8,2986.41
30315.5,2984.59
30316.3,2982.85
30317.3,2981.19
30318.4,2979.64
30319.7,2978.21
30321.2,2976.91
30322.7,2975.76
30324.4,2974.77
30326.1,2973.94
30327.9,2973.29
30329.8,2972.82
30331.7,2972.54
30333.7,2972.44
31083.7,2972.44
Z" /> 
</g>
<g >
</g>
<g style="fill:#000000; fill-opacity:1.0; 
stroke:#000000; stroke-width:0; stroke-opacity:1; 
stroke-linecap:round; stroke-linejoin:round;">
</g>
<g style="fill:#000000; fill-opacity:1.0; 
stroke:#000000; stroke-width:789.37; stroke-opacity:1; 
stroke-linecap:round; stroke-linejoin:round;">
</g>
<g style="fill:#000000; fill-opacity:0.0; 
stroke:#000000; stroke-width:789.37; stroke-opacity:1; 
stroke-linecap:round; stroke-linejoin:round;">
<path d="M20637 26436
L20637 26398
" />
<path d="M21637 26436
L21637 26398
" />
</g>
<g style="fill:#000000; fill-opacity:0.0; 
stroke:#000000; stroke-width:0; stroke-opacity:1; 
stroke-linecap:round; stroke-linejoin:round;">
</g>
<g style="fill:#000000; fill-opacity:1.0; 
stroke:#000000; stroke-width:0; stroke-opacity:1; 
stroke-linecap:round; stroke-linejoin:round;">
<path style="fill:#000000; fill-opacity:1.0; 
stroke:#000000; stroke-width:0; stroke-opacity:1; 
stroke-linecap:round; stroke-linejoin:round;fill-rule:evenodd;"
d="M 23014.7,26004
23016.6,26004.3
23018.5,26004.8
23020.3,26005.4
23022.1,26006.3
23023.7,26007.3
23025.3,26008.4
23026.7,26009.7
23028,26011.1
23029.2,26012.7
23030.2,26014.3
23031,26016.1
23031.6,26017.9
23032.1,26019.8
23032.4,26021.7
23032.5,26023.6
23032.5,26811
23032.4,26813
23032.1,26814.9
23031.6,26816.7
23031,26818.6
23030.2,26820.3
23029.2,26822
23028,26823.5
23026.7,26824.9
23025.3,26826.2
23023.7,26827.4
23022.1,26828.4
23020.3,26829.2
23018.5,26829.9
23016.6,26830.3
23014.7,26830.6
23012.8,26830.7
22262.8,26830.7
22260.9,26830.6
22259,26830.3
22257.1,26829.9
22255.3,26829.2
22253.5,26828.4
22251.9,26827.4
22250.3,26826.2
22248.9,26824.9
22247.6,26823.5
22246.4,26822
22245.4,26820.3
22244.6,26818.6
22244,26816.7
22243.5,26814.9
22243.2,26813
22243.1,26811
22243.1,26023.6
22243.2,26021.7
22243.5,26019.8
22244,26017.9
22244.6,26016.1
22245.4,26014.3
22246.4,26012.7
22247.6,26011.1
22248.9,26009.7
22250.3,26008.4
22251.9,26007.3
22253.5,26006.3
22255.3,26005.4
22257.1,26004.8
22259,26004.3
22260.9,26004
22262.8,26003.9
23012.8,26003.9
Z" /> 
</g>
<g >
</g>
<g style="fill:#000000; fill-opacity:1.0; 
stroke:#000000; stroke-width:0; stroke-opacity:1; 
stroke-linecap:round; stroke-linejoin:round;">
</g>
<g style="fill:#000000; fill-opacity:1.0; 
stroke:#000000; stroke-width:1338.58; stroke-opacity:1; 
stroke-linecap:round; stroke-linejoin:round;">
</g>
<g style="fill:#000000; fill-opacity:0.0; 
stroke:#000000; stroke-width:1338.58; stroke-opacity:1; 
stroke-linecap:round; stroke-linejoin:round;">
<path d="M68149 11161
L69448 11161
" />
<path d="M68149 15098
L69448 15098
" />
</g>
<g style="fill:#000000; fill-opacity:0.0; 
stroke:#000000; stroke-width:0; stroke-opacity:1; 
stroke-linecap:round; stroke-linejoin:round;">
</g>
<g style="fill:#000000; fill-opacity:1.0; 
stroke:#000000; stroke-width:0; stroke-opacity:1; 
stroke-linecap:round; stroke-linejoin:round;">
<path style="fill:#000000; fill-opacity:1.0; 
stroke:#000000; stroke-width:0; stroke-opacity:1; 
stroke-linecap:round; stroke-linejoin:round;fill-rule:evenodd;"
d="M 70100.4,18366.2
70102.3,18366.5
70104.1,18367
70106,18367.6
70107.7,18368.5
70109.4,18369.5
70110.9,18370.6
70112.3,18371.9
70113.6,18373.3
70114.8,18374.9
70115.8,18376.5
70116.6,18378.3
70117.3,18380.1
70117.7,18382
70118,18383.9
70118.1,18385.8
70118.1,19685
70118,19687
70117.7,19688.9
70117.3,19690.8
70116.6,19692.6
70115.8,19694.3
70114.8,19696
70113.6,19697.5
70112.3,19699
70110.9,19700.3
70109.4,19701.4
70107.7,19702.4
70106,19703.2
70104.1,19703.9
70102.3,19704.3
70100.4,19704.6
70098.4,19704.7
67500,19704.7
67498.1,19704.6
67496.2,19704.3
67494.3,19703.9
67492.5,19703.2
67490.7,19702.4
67489.1,19701.4
67487.5,19700.3
67486.1,19699
67484.8,19697.5
67483.6,19696
67482.6,19694.3
67481.8,19692.6
67481.2,19690.8
67480.7,19688.9
67480.4,19687
67480.3,19685
67480.3,18385.8
67480.4,18383.9
67480.7,18382
67481.2,18380.1
67481.8,18378.3
67482.6,18376.5
67483.6,18374.9
67484.8,18373.3
67486.1,18371.9
67487.5,18370.6
67489.1,18369.5
67490.7,18368.5
67492.5,18367.6
67494.3,18367
67496.2,18366.5
67498.1,18366.2
67500,18366.1
70098.4,18366.1
Z" /> 
</g>
<g >
</g>
<g style="fill:#000000; fill-opacity:1.0; 
stroke:#000000; stroke-width:0; stroke-opacity:1; 
stroke-linecap:round; stroke-linejoin:round;">
</g>
<g style="fill:#000000; fill-opacity:1.0; 
stroke:#000000; stroke-width:1338.58; stroke-opacity:1; 
stroke-linecap:round; stroke-linejoin:round;">
</g>
<g style="fill:#000000; fill-opacity:0.0; 
stroke:#000000; stroke-width:1338.58; stroke-opacity:1; 
stroke-linecap:round; stroke-linejoin:round;">
<path d="M20019 9488
L21318 9488
" />
<path d="M20019 13425
L21318 13425
" />
</g>
<g style="fill:#000000; fill-opacity:0.0; 
stroke:#000000; stroke-width:0; stroke-opacity:1; 
stroke-linecap:round; stroke-linejoin:round;">
</g>
<g style="fill:#000000; fill-opacity:1.0; 
stroke:#000000; stroke-width:0; stroke-opacity:1; 
stroke-linecap:round; stroke-linejoin:round;">
<path style="fill:#000000; fill-opacity:1.0; 
stroke:#000000; stroke-width:0; stroke-opacity:1; 
stroke-linecap:round; stroke-linejoin:round;fill-rule:evenodd;"
d="M 21970.4,16693
21972.3,16693.3
21974.2,16693.8
21976,16694.4
21977.8,16695.2
21979.4,16696.2
21981,16697.4
21982.4,16698.7
21983.7,16700.1
21984.9,16701.7
21985.9,16703.3
21986.7,16705.1
21987.3,16706.9
21987.8,16708.8
21988.1,16710.7
21988.2,16712.6
21988.2,18011.8
21988.1,18013.7
21987.8,18015.7
21987.3,18017.5
21986.7,18019.3
21985.9,18021.1
21984.9,18022.7
21983.7,18024.3
21982.4,18025.7
21981,18027
21979.4,18028.2
21977.8,18029.2
21976,18030
21974.2,18030.6
21972.3,18031.1
21970.4,18031.4
21968.5,18031.5
19370.1,18031.5
19368.1,18031.4
19366.2,18031.1
19364.4,18030.6
19362.5,18030
19360.8,18029.2
19359.1,18028.2
19357.6,18027
19356.2,18025.7
19354.9,18024.3
19353.7,18022.7
19352.7,18021.1
19351.9,18019.3
19351.2,18017.5
19350.8,18015.7
19350.5,18013.7
19350.4,18011.8
19350.4,16712.6
19350.5,16710.7
19350.8,16708.8
19351.2,16706.9
19351.9,16705.1
19352.7,16703.3
19353.7,16701.7
19354.9,16700.1
19356.2,16698.7
19357.6,16697.4
19359.1,16696.2
19360.8,16695.2
19362.5,16694.4
19364.4,16693.8
19366.2,16693.3
19368.1,16693
19370.1,16692.9
21968.5,16692.9
Z" /> 
</g>
<g >
</g>
<g style="fill:#000000; fill-opacity:1.0; 
stroke:#000000; stroke-width:0; stroke-opacity:1; 
stroke-linecap:round; stroke-linejoin:round;">
<circle cx="66141.7" cy="23267.7" r="334.646" /> 
</g>
<g style="fill:#000000; fill-opacity:1.0; 
stroke:#000000; stroke-width:39.3701; stroke-opacity:1; 
stroke-linecap:round; stroke-linejoin:round;">
</g>
<g style="fill:#000000; fill-opacity:1.0; 
stroke:#000000; stroke-width:0; stroke-opacity:1; 
stroke-linecap:round; stroke-linejoin:round;">
<circle cx="66141.7" cy="22283.5" r="334.646" /> 
</g>
<g style="fill:#000000; fill-opacity:1.0; 
stroke:#000000; stroke-width:39.3701; stroke-opacity:1; 
stroke-linecap:round; stroke-linejoin:round;">
</g>
<g >
</g>
<g style="fill:#000000; fill-opacity:1.0; 
stroke:#000000; stroke-width:39.3701; stroke-opacity:1; 
stroke-linecap:round; stroke-linejoin:round;">
</g>
<g style="fill:#000000; fill-opacity:1.0; 
stroke:#000000; stroke-width:0; stroke-opacity:1; 
stroke-linecap:round; stroke-linejoin:round;">
<circle cx="58779.5" cy="9094.49" r="413.386" /> 
</g>
<g style="fill:#000000; fill-opacity:1.0; 
stroke:#000000; stroke-width:39.3701; stroke-opacity:1; 
stroke-linecap:round; stroke-linejoin:round;">
</g>
<g style="fill:#000000; fill-opacity:1.0; 
stroke:#000000; stroke-width:0; stroke-opacity:1; 
stroke-linecap:round; stroke-linejoin:round;">
<path style="fill:#000000; fill-opacity:1.0; 
stroke:#000000; stroke-width:0; stroke-opacity:1; 
stroke-linecap:round; stroke-linejoin:round;fill-rule:evenodd;"
d="M 59175.2,6712.69
59177.1,6712.98
59178.9,6713.45
59180.8,6714.1
59182.5,6714.92
59184.2,6715.92
59185.7,6717.07
59187.1,6718.36
59188.4,6719.8
59189.6,6721.35
59190.6,6723
59191.4,6724.75
59192.1,6726.57
59192.5,6728.44
59192.8,6730.35
59192.9,6732.28
59192.9,7519.69
59192.8,7521.61
59192.5,7523.53
59192.1,7525.4
59191.4,7527.22
59190.6,7528.96
59189.6,7530.62
59188.4,7532.17
59187.1,7533.6
59185.7,7534.9
59184.2,7536.05
59182.5,7537.05
59180.8,7537.87
59178.9,7538.52
59177.1,7538.99
59175.2,7539.28
59173.2,7539.37
58385.8,7539.37
58383.9,7539.28
58382,7538.99
58380.1,7538.52
58378.3,7537.87
58376.5,7537.05
58374.9,7536.05
58373.3,7534.9
58371.9,7533.6
58370.6,7532.17
58369.5,7530.62
58368.5,7528.96
58367.6,7527.22
58367,7525.4
58366.5,7523.53
58366.2,7521.61
58366.1,7519.69
58366.1,6732.28
58366.2,6730.35
58366.5,6728.44
58367,6726.57
58367.6,6724.75
58368.5,6723
58369.5,6721.35
58370.6,6719.8
58371.9,6718.36
58373.3,6717.07
58374.9,6715.92
58376.5,6714.92
58378.3,6714.1
58380.1,6713.45
58382,6712.98
58383.9,6712.69
58385.8,6712.6
59173.2,6712.6
Z" /> 
</g>
<g >
</g>
<g style="fill:#000000; fill-opacity:1.0; 
stroke:#000000; stroke-width:0; stroke-opacity:1; 
stroke-linecap:round; stroke-linejoin:round;">
<circle cx="58779.5" cy="22165.4" r="413.386" /> 
</g>
<g style="fill:#000000; fill-opacity:1.0; 
stroke:#000000; stroke-width:39.3701; stroke-opacity:1; 
stroke-linecap:round; stroke-linejoin:round;">
</g>
<g style="fill:#000000; fill-opacity:1.0; 
stroke:#000000; stroke-width:0; stroke-opacity:1; 
stroke-linecap:round; stroke-linejoin:round;">
<path style="fill:#000000; fill-opacity:1.0; 
stroke:#000000; stroke-width:0; stroke-opacity:1; 
stroke-linecap:round; stroke-linejoin:round;fill-rule:evenodd;"
d="M 59175.2,19783.6
59177.1,19783.8
59178.9,19784.3
59180.8,19785
59182.5,19785.8
59184.2,19786.8
59185.7,19787.9
59187.1,19789.2
59188.4,19790.7
59189.6,19792.2
59190.6,19793.9
59191.4,19795.6
59192.1,19797.4
59192.5,19799.3
59192.8,19801.2
59192.9,19803.1
59192.9,20590.6
59192.8,20592.5
59192.5,20594.4
59192.1,20596.3
59191.4,20598.1
59190.6,20599.8
59189.6,20601.5
59188.4,20603
59187.1,20604.5
59185.7,20605.8
59184.2,20606.9
59182.5,20607.9
59180.8,20608.7
59178.9,20609.4
59177.1,20609.9
59175.2,20610.1
59173.2,20610.2
58385.8,20610.2
58383.9,20610.1
58382,20609.9
58380.1,20609.4
58378.3,20608.7
58376.5,20607.9
58374.9,20606.9
58373.3,20605.8
58371.9,20604.5
58370.6,20603
58369.5,20601.5
58368.5,20599.8
58367.6,20598.1
58367,20596.3
58366.5,20594.4
58366.2,20592.5
58366.1,20590.6
58366.1,19803.1
58366.2,19801.2
58366.5,19799.3
58367,19797.4
58367.6,19795.6
58368.5,19793.9
58369.5,19792.2
58370.6,19790.7
58371.9,19789.2
58373.3,19787.9
58374.9,19786.8
58376.5,19785.8
58378.3,19785
58380.1,19784.3
58382,19783.8
58383.9,19783.6
58385.8,19783.5
59173.2,19783.5
Z" /> 
</g>
<g >
</g>
<g style="fill:#000000; fill-opacity:1.0; 
stroke:#000000; stroke-width:0; stroke-opacity:1; 
stroke-linecap:round; stroke-linejoin:round;">
<circle cx="58779.5" cy="13503.9" r="413.386" /> 
</g>
<g style="fill:#000000; fill-opacity:1.0; 
stroke:#000000; stroke-width:39.3701; stroke-opacity:1; 
stroke-linecap:round; stroke-linejoin:round;">
</g>
<g style="fill:#000000; fill-opacity:1.0; 
stroke:#000000; stroke-width:0; stroke-opacity:1; 
stroke-linecap:round; stroke-linejoin:round;">
<path style="fill:#000000; fill-opacity:1.0; 
stroke:#000000; stroke-width:0; stroke-opacity:1; 
stroke-linecap:round; stroke-linejoin:round;fill-rule:evenodd;"
d="M 59175.2,11122.1
59177.1,11122.4
59178.9,11122.9
59180.8,11123.5
59182.5,11124.4
59184.2,11125.4
59185.7,11126.5
59187.1,11127.8
59188.4,11129.2
59189.6,11130.8
59190.6,11132.5
59191.4,11134.2
59192.1,11136
59192.5,11137.9
59192.8,11139.8
59192.9,11141.7
59192.9,11929.1
59192.8,11931.1
59192.5,11933
59192.1,11934.8
59191.4,11936.7
59190.6,11938.4
59189.6,11940.1
59188.4,11941.6
59187.1,11943.1
59185.7,11944.4
59184.2,11945.5
59182.5,11946.5
59180.8,11947.3
59178.9,11948
59177.1,11948.4
59175.2,11948.7
59173.2,11948.8
58385.8,11948.8
58383.9,11948.7
58382,11948.4
58380.1,11948
58378.3,11947.3
58376.5,11946.5
58374.9,11945.5
58373.3,11944.4
58371.9,11943.1
58370.6,11941.6
58369.5,11940.1
58368.5,11938.4
58367.6,11936.7
58367,11934.8
58366.5,11933
58366.2,11931.1
58366.1,11929.1
58366.1,11141.7
58366.2,11139.8
58366.5,11137.9
58367,11136
58367.6,11134.2
58368.5,11132.5
58369.5,11130.8
58370.6,11129.2
58371.9,11127.8
58373.3,11126.5
58374.9,11125.4
58376.5,11124.4
58378.3,11123.5
58380.1,11122.9
58382,11122.4
58383.9,11122.1
58385.8,11122
59173.2,11122
Z" /> 
</g>
<g >
</g>
<g style="fill:#000000; fill-opacity:1.0; 
stroke:#000000; stroke-width:0; stroke-opacity:1; 
stroke-linecap:round; stroke-linejoin:round;">
<circle cx="63110.2" cy="22165.4" r="413.386" /> 
</g>
<g style="fill:#000000; fill-opacity:1.0; 
stroke:#000000; stroke-width:39.3701; stroke-opacity:1; 
stroke-linecap:round; stroke-linejoin:round;">
</g>
<g style="fill:#000000; fill-opacity:1.0; 
stroke:#000000; stroke-width:0; stroke-opacity:1; 
stroke-linecap:round; stroke-linejoin:round;">
<path style="fill:#000000; fill-opacity:1.0; 
stroke:#000000; stroke-width:0; stroke-opacity:1; 
stroke-linecap:round; stroke-linejoin:round;fill-rule:evenodd;"
d="M 63505.9,19783.6
63507.8,19783.8
63509.7,19784.3
63511.5,19785
63513.2,19785.8
63514.9,19786.8
63516.4,19787.9
63517.9,19789.2
63519.2,19790.7
63520.3,19792.2
63521.3,19793.9
63522.1,19795.6
63522.8,19797.4
63523.2,19799.3
63523.5,19801.2
63523.6,19803.1
63523.6,20590.6
63523.5,20592.5
63523.2,20594.4
63522.8,20596.3
63522.1,20598.1
63521.3,20599.8
63520.3,20601.5
63519.2,20603
63517.9,20604.5
63516.4,20605.8
63514.9,20606.9
63513.2,20607.9
63511.5,20608.7
63509.7,20609.4
63507.8,20609.9
63505.9,20610.1
63503.9,20610.2
62716.5,20610.2
62714.6,20610.1
62712.7,20609.9
62710.8,20609.4
62709,20608.7
62707.3,20607.9
62705.6,20606.9
62704,20605.8
62702.6,20604.5
62701.3,20603
62700.2,20601.5
62699.2,20599.8
62698.3,20598.1
62697.7,20596.3
62697.2,20594.4
62696.9,20592.5
62696.9,20590.6
62696.9,19803.1
62696.9,19801.2
62697.2,19799.3
62697.7,19797.4
62698.3,19795.6
62699.2,19793.9
62700.2,19792.2
62701.3,19790.7
62702.6,19789.2
62704,19787.9
62705.6,19786.8
62707.3,19785.8
62709,19785
62710.8,19784.3
62712.7,19783.8
62714.6,19783.6
62716.5,19783.5
63503.9,19783.5
Z" /> 
</g>
<g >
</g>
<g style="fill:#000000; fill-opacity:1.0; 
stroke:#000000; stroke-width:0; stroke-opacity:1; 
stroke-linecap:round; stroke-linejoin:round;">
<circle cx="63110.2" cy="13503.9" r="413.386" /> 
</g>
<g style="fill:#000000; fill-opacity:1.0; 
stroke:#000000; stroke-width:39.3701; stroke-opacity:1; 
stroke-linecap:round; stroke-linejoin:round;">
</g>
<g style="fill:#000000; fill-opacity:1.0; 
stroke:#000000; stroke-width:0; stroke-opacity:1; 
stroke-linecap:round; stroke-linejoin:round;">
<path style="fill:#000000; fill-opacity:1.0; 
stroke:#000000; stroke-width:0; stroke-opacity:1; 
stroke-linecap:round; stroke-linejoin:round;fill-rule:evenodd;"
d="M 63505.9,11122.1
63507.8,11122.4
63509.7,11122.9
63511.5,11123.5
63513.2,11124.4
63514.9,11125.4
63516.4,11126.5
63517.9,11127.8
63519.2,11129.2
63520.3,11130.8
63521.3,11132.5
63522.1,11134.2
63522.8,11136
63523.2,11137.9
63523.5,11139.8
63523.6,11141.7
63523.6,11929.1
63523.5,11931.1
63523.2,11933
63522.8,11934.8
63522.1,11936.7
63521.3,11938.4
63520.3,11940.1
63519.2,11941.6
63517.9,11943.1
63516.4,11944.4
63514.9,11945.5
63513.2,11946.5
63511.5,11947.3
63509.7,11948
63507.8,11948.4
63505.9,11948.7
63503.9,11948.8
62716.5,11948.8
62714.6,11948.7
62712.7,11948.4
62710.8,11948
62709,11947.3
62707.3,11946.5
62705.6,11945.5
62704,11944.4
62702.6,11943.1
62701.3,11941.6
62700.2,11940.1
62699.2,11938.4
62698.3,11936.7
62697.7,11934.8
62697.2,11933
62696.9,11931.1
62696.9,11929.1
62696.9,11141.7
62696.9,11139.8
62697.2,11137.9
62697.7,11136
62698.3,11134.2
62699.2,11132.5
62700.2,11130.8
62701.3,11129.2
62702.6,11127.8
62704,11126.5
62705.6,11125.4
62707.3,11124.4
62709,11123.5
62710.8,11122.9
62712.7,11122.4
62714.6,11122.1
62716.5,11122
63503.9,11122
Z" /> 
</g>
<g >
</g>
<g >
</g>
<g >
</g>
</g> 
</svg>
