M48
; DRILL file {KiCad (5.1.10)-1} date 10/20/21 10:08:54
; FORMAT={-:-/ absolute / metric / decimal}
; #@! TF.CreationDate,2021-10-20T10:08:54-05:00
; #@! TF.GenerationSoftware,Kicad,Pcbnew,(5.1.10)-1
FMAT,2
METRIC
T1C0.500
T2C0.600
T3C0.750
T4C0.800
T5C0.900
T6C1.000
T7C1.100
T8C2.200
T9C3.000
T10C3.200
%
G90
G05
T1
X49.6Y-55.6
X50.303Y-53.903
X50.303Y-57.297
X52.0Y-53.2
X52.0Y-58.0
X53.697Y-53.903
X53.697Y-57.297
X54.4Y-55.6
X172.6Y-12.6
X172.6Y-62.6
X173.303Y-10.903
X173.303Y-14.297
X173.303Y-60.903
X173.303Y-64.297
X175.0Y-10.2
X175.0Y-15.0
X175.0Y-60.2
X175.0Y-65.0
X176.697Y-10.903
X176.697Y-14.297
X176.697Y-60.903
X176.697Y-64.297
X177.4Y-12.6
X177.4Y-62.6
T2
X7.1Y-9.4
X9.1Y-9.4
T3
X32.43Y-18.53
X32.43Y-30.13
X32.7Y-23.0
X32.7Y-25.54
X32.7Y-34.4
X32.7Y-36.94
X33.7Y-17.26
X33.7Y-19.8
X33.7Y-28.86
X33.7Y-31.4
X33.97Y-24.27
X33.97Y-35.67
T4
X7.9Y-26.2
X8.8Y-13.0
X8.8Y-23.16
X8.8Y-29.0
X8.8Y-39.16
X12.1Y-8.5
X12.1Y-18.66
X12.3Y-29.0
X12.3Y-39.16
X12.9Y-26.2
X15.1Y-37.4
X15.2Y-8.9
X16.1Y-16.1
X16.1Y-18.64
X16.1Y-21.18
X16.1Y-23.72
X16.1Y-26.26
X16.1Y-28.8
X16.1Y-31.34
X16.1Y-33.88
X23.72Y-16.1
X23.72Y-18.64
X23.72Y-21.18
X23.72Y-23.72
X23.72Y-26.26
X23.72Y-28.8
X23.72Y-31.34
X23.72Y-33.88
X25.26Y-37.4
X25.36Y-8.9
X28.1Y-15.44
X28.1Y-25.6
X28.1Y-28.0
X28.1Y-38.16
X52.8Y-12.6
X62.3Y-67.2
X62.96Y-12.6
X63.44Y-7.9
X67.84Y-62.0
X72.46Y-67.2
X72.6Y-43.96
X72.6Y-59.2
X73.6Y-7.9
X77.2Y-25.4
X77.2Y-30.4
X78.0Y-62.0
X87.6Y-10.1
X97.76Y-10.1
X101.03Y-10.1
X101.03Y-12.64
X108.65Y-10.1
X108.65Y-12.64
X134.34Y-26.1
X144.5Y-26.1
X167.75Y-15.35
X167.75Y-17.85
X168.0Y-56.6
X168.0Y-59.1
T5
X120.64Y-8.6
X130.8Y-8.6
X132.6Y-12.4
X132.6Y-22.56
T6
X16.1Y-11.6
X25.9Y-13.25
X29.75Y-9.0
X34.3Y-9.0
X37.5Y-11.6
X38.3Y-18.6
X38.3Y-21.14
X38.3Y-23.68
X38.3Y-26.22
X38.3Y-28.76
X38.3Y-31.3
X38.3Y-33.84
X40.7Y-13.2
X63.5Y-39.9
X63.6Y-60.0
X68.0Y-12.6
X68.0Y-22.2
X68.0Y-27.1
X68.0Y-29.64
X68.0Y-32.18
X68.0Y-34.72
X68.0Y-37.26
X68.0Y-39.8
X68.0Y-42.34
X112.2Y-8.4
X114.7Y-13.4
X117.2Y-8.4
X118.45Y-30.1
X133.0Y-56.1
X134.0Y-30.1
X142.5Y-56.1
X149.3Y-18.1
X149.3Y-23.1
X149.3Y-29.3
X149.3Y-34.3
X149.3Y-40.1
X149.3Y-45.1
X149.3Y-51.3
X149.3Y-56.3
X160.3Y-29.3
X160.3Y-34.3
X160.3Y-51.3
X160.3Y-56.3
X160.5Y-18.1
X160.5Y-23.1
X160.5Y-40.1
X160.5Y-45.1
T7
X52.42Y-67.1
X52.92Y-8.6
X54.96Y-67.1
X55.46Y-8.6
X57.5Y-67.1
X58.0Y-8.6
X77.5Y-67.1
X78.0Y-8.6
X80.04Y-67.1
X80.54Y-8.6
X82.58Y-67.1
X83.08Y-8.6
X135.42Y-67.1
X135.5Y-8.6
X137.96Y-67.1
X138.04Y-8.6
X140.5Y-67.1
X140.58Y-8.6
T8
X52.5Y-24.1
X52.5Y-34.1
X52.5Y-44.1
X174.75Y-28.35
X174.75Y-38.35
X174.75Y-48.35
T9
X76.0Y-39.1
X83.0Y-18.1
X83.0Y-60.1
X127.0Y-18.1
X127.0Y-60.1
X134.0Y-39.1
T10
X52.0Y-55.6
X175.0Y-12.6
X175.0Y-62.6
T0
M30
