%TF.GenerationSoftware,KiCad,Pcbnew,(5.1.6)-1*%
%TF.CreationDate,2020-12-26T12:13:23-05:00*%
%TF.ProjectId,fuente_smps_250w,6675656e-7465-45f7-936d-70735f323530,rev?*%
%TF.SameCoordinates,Original*%
%TF.FileFunction,Soldermask,Top*%
%TF.FilePolarity,Negative*%
%FSLAX46Y46*%
G04 Gerber Fmt 4.6, Leading zero omitted, Abs format (unit mm)*
G04 Created by KiCad (PCBNEW (5.1.6)-1) date 2020-12-26 12:13:23*
%MOMM*%
%LPD*%
G01*
G04 APERTURE LIST*
%ADD10C,1.650000*%
%ADD11R,1.650000X1.650000*%
%ADD12O,2.500000X1.700000*%
%ADD13R,2.500000X1.700000*%
%ADD14O,1.700000X1.700000*%
%ADD15C,1.700000*%
%ADD16O,2.005000X2.100000*%
%ADD17R,2.005000X2.100000*%
%ADD18O,1.900000X1.900000*%
%ADD19R,1.900000X1.900000*%
%ADD20C,2.100000*%
%ADD21R,2.100000X2.100000*%
%ADD22C,1.300000*%
%ADD23R,1.300000X1.300000*%
%ADD24C,0.900000*%
%ADD25C,6.500000*%
%ADD26R,1.150000X1.600000*%
%ADD27R,1.600000X1.150000*%
%ADD28C,4.100000*%
%ADD29O,6.700000X3.400000*%
%ADD30R,6.700000X3.400000*%
%ADD31O,8.100000X3.900000*%
G04 APERTURE END LIST*
D10*
%TO.C,RV1*%
X157100000Y-73800000D03*
D11*
X154600000Y-68800000D03*
D10*
X159600000Y-68800000D03*
%TD*%
D12*
%TO.C,U1*%
X143430000Y-73040000D03*
X151050000Y-70500000D03*
X143430000Y-70500000D03*
D13*
X151050000Y-73040000D03*
%TD*%
D14*
%TO.C,R15*%
X120740000Y-109000000D03*
D15*
X105500000Y-109000000D03*
%TD*%
D14*
%TO.C,R12*%
X111660000Y-117500000D03*
D15*
X101500000Y-117500000D03*
%TD*%
D12*
%TO.C,IC1*%
X100360000Y-85180000D03*
X92740000Y-102960000D03*
X100360000Y-87720000D03*
X92740000Y-100420000D03*
X100360000Y-90260000D03*
X92740000Y-97880000D03*
X100360000Y-92800000D03*
X92740000Y-95340000D03*
X100360000Y-95340000D03*
X92740000Y-92800000D03*
X100360000Y-97880000D03*
X92740000Y-90260000D03*
X100360000Y-100420000D03*
X92740000Y-87720000D03*
X100360000Y-102960000D03*
D13*
X92740000Y-85180000D03*
%TD*%
D16*
%TO.C,D4*%
X170420000Y-121500000D03*
X172960000Y-121500000D03*
D17*
X175500000Y-121500000D03*
%TD*%
D16*
%TO.C,D3*%
X175580000Y-68500000D03*
X173040000Y-68500000D03*
D17*
X170500000Y-68500000D03*
%TD*%
D18*
%TO.C,D2*%
X176500000Y-92340000D03*
D19*
X176500000Y-102500000D03*
%TD*%
D18*
%TO.C,D1*%
X167840000Y-72500000D03*
D19*
X178000000Y-72500000D03*
%TD*%
D15*
%TO.C,C13*%
X202750000Y-75250000D03*
X202750000Y-72750000D03*
%TD*%
D20*
%TO.C,C6*%
X184300000Y-97500000D03*
D21*
X184300000Y-102500000D03*
%TD*%
D20*
%TO.C,C5*%
X195500000Y-80500000D03*
D21*
X195500000Y-75500000D03*
%TD*%
D20*
%TO.C,C4*%
X195500000Y-97500000D03*
D21*
X195500000Y-102500000D03*
%TD*%
D15*
%TO.C,C3*%
X123000000Y-78820000D03*
X123000000Y-83820000D03*
%TD*%
%TO.C,C2*%
X84500000Y-95500000D03*
X89500000Y-95500000D03*
%TD*%
D22*
%TO.C,C1*%
X80500000Y-98000000D03*
D23*
X80500000Y-96000000D03*
%TD*%
D24*
%TO.C,H4*%
X211697056Y-118302944D03*
X210000000Y-117600000D03*
X208302944Y-118302944D03*
X207600000Y-120000000D03*
X208302944Y-121697056D03*
X210000000Y-122400000D03*
X211697056Y-121697056D03*
X212400000Y-120000000D03*
D25*
X210000000Y-120000000D03*
%TD*%
D24*
%TO.C,H3*%
X211697056Y-68302944D03*
X210000000Y-67600000D03*
X208302944Y-68302944D03*
X207600000Y-70000000D03*
X208302944Y-71697056D03*
X210000000Y-72400000D03*
X211697056Y-71697056D03*
X212400000Y-70000000D03*
D25*
X210000000Y-70000000D03*
%TD*%
D24*
%TO.C,H2*%
X71697056Y-68302944D03*
X70000000Y-67600000D03*
X68302944Y-68302944D03*
X67600000Y-70000000D03*
X68302944Y-71697056D03*
X70000000Y-72400000D03*
X71697056Y-71697056D03*
X72400000Y-70000000D03*
D25*
X70000000Y-70000000D03*
%TD*%
D24*
%TO.C,H1*%
X71697056Y-118302944D03*
X70000000Y-117600000D03*
X68302944Y-118302944D03*
X67600000Y-120000000D03*
X68302944Y-121697056D03*
X70000000Y-122400000D03*
X71697056Y-121697056D03*
X72400000Y-120000000D03*
D25*
X70000000Y-120000000D03*
%TD*%
D14*
%TO.C,R14*%
X102660000Y-72500000D03*
D15*
X92500000Y-72500000D03*
%TD*%
D14*
%TO.C,R13*%
X109840000Y-72500000D03*
D15*
X120000000Y-72500000D03*
%TD*%
D26*
%TO.C,Q4*%
X113500000Y-91000000D03*
G36*
G01*
X111535000Y-90487500D02*
X111535000Y-91512500D01*
G75*
G02*
X111247500Y-91800000I-287500J0D01*
G01*
X110672500Y-91800000D01*
G75*
G02*
X110385000Y-91512500I0J287500D01*
G01*
X110385000Y-90487500D01*
G75*
G02*
X110672500Y-90200000I287500J0D01*
G01*
X111247500Y-90200000D01*
G75*
G02*
X111535000Y-90487500I0J-287500D01*
G01*
G37*
G36*
G01*
X112805000Y-90487500D02*
X112805000Y-91512500D01*
G75*
G02*
X112517500Y-91800000I-287500J0D01*
G01*
X111942500Y-91800000D01*
G75*
G02*
X111655000Y-91512500I0J287500D01*
G01*
X111655000Y-90487500D01*
G75*
G02*
X111942500Y-90200000I287500J0D01*
G01*
X112517500Y-90200000D01*
G75*
G02*
X112805000Y-90487500I0J-287500D01*
G01*
G37*
%TD*%
%TO.C,Q3*%
X113500000Y-96000000D03*
G36*
G01*
X111535000Y-95487500D02*
X111535000Y-96512500D01*
G75*
G02*
X111247500Y-96800000I-287500J0D01*
G01*
X110672500Y-96800000D01*
G75*
G02*
X110385000Y-96512500I0J287500D01*
G01*
X110385000Y-95487500D01*
G75*
G02*
X110672500Y-95200000I287500J0D01*
G01*
X111247500Y-95200000D01*
G75*
G02*
X111535000Y-95487500I0J-287500D01*
G01*
G37*
G36*
G01*
X112805000Y-95487500D02*
X112805000Y-96512500D01*
G75*
G02*
X112517500Y-96800000I-287500J0D01*
G01*
X111942500Y-96800000D01*
G75*
G02*
X111655000Y-96512500I0J287500D01*
G01*
X111655000Y-95487500D01*
G75*
G02*
X111942500Y-95200000I287500J0D01*
G01*
X112517500Y-95200000D01*
G75*
G02*
X112805000Y-95487500I0J-287500D01*
G01*
G37*
%TD*%
D27*
%TO.C,Q2*%
X110500000Y-102700000D03*
G36*
G01*
X109987500Y-104665000D02*
X111012500Y-104665000D01*
G75*
G02*
X111300000Y-104952500I0J-287500D01*
G01*
X111300000Y-105527500D01*
G75*
G02*
X111012500Y-105815000I-287500J0D01*
G01*
X109987500Y-105815000D01*
G75*
G02*
X109700000Y-105527500I0J287500D01*
G01*
X109700000Y-104952500D01*
G75*
G02*
X109987500Y-104665000I287500J0D01*
G01*
G37*
G36*
G01*
X109987500Y-103395000D02*
X111012500Y-103395000D01*
G75*
G02*
X111300000Y-103682500I0J-287500D01*
G01*
X111300000Y-104257500D01*
G75*
G02*
X111012500Y-104545000I-287500J0D01*
G01*
X109987500Y-104545000D01*
G75*
G02*
X109700000Y-104257500I0J287500D01*
G01*
X109700000Y-103682500D01*
G75*
G02*
X109987500Y-103395000I287500J0D01*
G01*
G37*
%TD*%
%TO.C,Q1*%
X105500000Y-102700000D03*
G36*
G01*
X104987500Y-104665000D02*
X106012500Y-104665000D01*
G75*
G02*
X106300000Y-104952500I0J-287500D01*
G01*
X106300000Y-105527500D01*
G75*
G02*
X106012500Y-105815000I-287500J0D01*
G01*
X104987500Y-105815000D01*
G75*
G02*
X104700000Y-105527500I0J287500D01*
G01*
X104700000Y-104952500D01*
G75*
G02*
X104987500Y-104665000I287500J0D01*
G01*
G37*
G36*
G01*
X104987500Y-103395000D02*
X106012500Y-103395000D01*
G75*
G02*
X106300000Y-103682500I0J-287500D01*
G01*
X106300000Y-104257500D01*
G75*
G02*
X106012500Y-104545000I-287500J0D01*
G01*
X104987500Y-104545000D01*
G75*
G02*
X104700000Y-104257500I0J287500D01*
G01*
X104700000Y-103682500D01*
G75*
G02*
X104987500Y-103395000I287500J0D01*
G01*
G37*
%TD*%
D28*
%TO.C,TR1*%
X165000000Y-78500000D03*
X172000000Y-96500000D03*
X165000000Y-114500000D03*
X129000000Y-114500000D03*
X122000000Y-96500000D03*
X129000000Y-78500000D03*
%TD*%
D14*
%TO.C,R11*%
X114840000Y-117500000D03*
D15*
X125000000Y-117500000D03*
%TD*%
D14*
%TO.C,R10*%
X107500000Y-87340000D03*
D15*
X107500000Y-97500000D03*
%TD*%
D14*
%TO.C,R9*%
X117000000Y-93840000D03*
D15*
X117000000Y-104000000D03*
%TD*%
D14*
%TO.C,R8*%
X104000000Y-97660000D03*
D15*
X104000000Y-87500000D03*
%TD*%
D14*
%TO.C,R7*%
X79340000Y-101500000D03*
D15*
X89500000Y-101500000D03*
%TD*%
D14*
%TO.C,R6*%
X89660000Y-89000000D03*
D15*
X79500000Y-89000000D03*
%TD*%
D14*
%TO.C,R5*%
X79500000Y-85500000D03*
D15*
X89660000Y-85500000D03*
%TD*%
D14*
%TO.C,R4*%
X89660000Y-105000000D03*
D15*
X79500000Y-105000000D03*
%TD*%
D14*
%TO.C,R3*%
X89660000Y-92500000D03*
D15*
X79500000Y-92500000D03*
%TD*%
D14*
%TO.C,R2*%
X169340000Y-83500000D03*
D15*
X179500000Y-83500000D03*
%TD*%
D14*
%TO.C,R1*%
X140160000Y-70500000D03*
D15*
X130000000Y-70500000D03*
%TD*%
D16*
%TO.C,Q8*%
X100000000Y-68500000D03*
X97460000Y-68500000D03*
D17*
X94920000Y-68500000D03*
%TD*%
D16*
%TO.C,Q7*%
X120000000Y-121500000D03*
X122540000Y-121500000D03*
D17*
X125080000Y-121500000D03*
%TD*%
D16*
%TO.C,Q6*%
X125080000Y-68500000D03*
X122540000Y-68500000D03*
D17*
X120000000Y-68500000D03*
%TD*%
D16*
%TO.C,Q5*%
X94920000Y-121500000D03*
X97460000Y-121500000D03*
D17*
X100000000Y-121500000D03*
%TD*%
D29*
%TO.C,J2*%
X209750000Y-85750000D03*
X209750000Y-95750000D03*
D30*
X209750000Y-105750000D03*
%TD*%
D29*
%TO.C,J1*%
X69000000Y-88500000D03*
X69000000Y-98500000D03*
D30*
X69000000Y-108500000D03*
%TD*%
D31*
%TO.C,F1*%
X69200000Y-78000000D03*
X78500000Y-78000000D03*
%TD*%
D15*
%TO.C,C12*%
X203000000Y-116500000D03*
X203000000Y-114000000D03*
%TD*%
D20*
%TO.C,C11*%
X184300000Y-80500000D03*
D21*
X184300000Y-75500000D03*
%TD*%
D20*
%TO.C,C10*%
X184300000Y-113700000D03*
D21*
X184300000Y-108700000D03*
%TD*%
D20*
%TO.C,C9*%
X184300000Y-91700000D03*
D21*
X184300000Y-86700000D03*
%TD*%
D20*
%TO.C,C8*%
X195300000Y-113700000D03*
D21*
X195300000Y-108700000D03*
%TD*%
D20*
%TO.C,C7*%
X195300000Y-91700000D03*
D21*
X195300000Y-86700000D03*
%TD*%
M02*
