%TF.GenerationSoftware,KiCad,Pcbnew,(5.1.6)-1*%
%TF.CreationDate,2020-12-26T12:13:23-05:00*%
%TF.ProjectId,fuente_smps_250w,6675656e-7465-45f7-936d-70735f323530,rev?*%
%TF.SameCoordinates,Original*%
%TF.FileFunction,Legend,Top*%
%TF.FilePolarity,Positive*%
%FSLAX46Y46*%
G04 Gerber Fmt 4.6, Leading zero omitted, Abs format (unit mm)*
G04 Created by KiCad (PCBNEW (5.1.6)-1) date 2020-12-26 12:13:23*
%MOMM*%
%LPD*%
G01*
G04 APERTURE LIST*
%ADD10C,0.300000*%
%ADD11C,0.400000*%
%ADD12C,1.000000*%
%ADD13C,0.010000*%
%ADD14C,0.120000*%
%ADD15C,0.150000*%
G04 APERTURE END LIST*
D10*
X80011904Y-83404761D02*
X78869047Y-83404761D01*
X79440476Y-83404761D02*
X79440476Y-81404761D01*
X79250000Y-81690476D01*
X79059523Y-81880952D01*
X78869047Y-81976190D01*
X80773809Y-81595238D02*
X80869047Y-81500000D01*
X81059523Y-81404761D01*
X81535714Y-81404761D01*
X81726190Y-81500000D01*
X81821428Y-81595238D01*
X81916666Y-81785714D01*
X81916666Y-81976190D01*
X81821428Y-82261904D01*
X80678571Y-83404761D01*
X81916666Y-83404761D01*
X82488095Y-81404761D02*
X83154761Y-83404761D01*
X83821428Y-81404761D01*
X79726190Y-110000000D02*
X79535714Y-109904761D01*
X79250000Y-109904761D01*
X78964285Y-110000000D01*
X78773809Y-110190476D01*
X78678571Y-110380952D01*
X78583333Y-110761904D01*
X78583333Y-111047619D01*
X78678571Y-111428571D01*
X78773809Y-111619047D01*
X78964285Y-111809523D01*
X79250000Y-111904761D01*
X79440476Y-111904761D01*
X79726190Y-111809523D01*
X79821428Y-111714285D01*
X79821428Y-111047619D01*
X79440476Y-111047619D01*
X80678571Y-111904761D02*
X80678571Y-109904761D01*
X81821428Y-111904761D01*
X81821428Y-109904761D01*
X82773809Y-111904761D02*
X82773809Y-109904761D01*
X83250000Y-109904761D01*
X83535714Y-110000000D01*
X83726190Y-110190476D01*
X83821428Y-110380952D01*
X83916666Y-110761904D01*
X83916666Y-111047619D01*
X83821428Y-111428571D01*
X83726190Y-111619047D01*
X83535714Y-111809523D01*
X83250000Y-111904761D01*
X82773809Y-111904761D01*
D11*
X90382857Y-75877142D02*
X92097142Y-75877142D01*
X91240000Y-78877142D02*
X91240000Y-75877142D01*
X94525714Y-78877142D02*
X93097142Y-78877142D01*
X93097142Y-75877142D01*
X96811428Y-76877142D02*
X96811428Y-78877142D01*
X96097142Y-75734285D02*
X95382857Y-77877142D01*
X97240000Y-77877142D01*
X98525714Y-78877142D02*
X99097142Y-78877142D01*
X99382857Y-78734285D01*
X99525714Y-78591428D01*
X99811428Y-78162857D01*
X99954285Y-77591428D01*
X99954285Y-76448571D01*
X99811428Y-76162857D01*
X99668571Y-76020000D01*
X99382857Y-75877142D01*
X98811428Y-75877142D01*
X98525714Y-76020000D01*
X98382857Y-76162857D01*
X98240000Y-76448571D01*
X98240000Y-77162857D01*
X98382857Y-77448571D01*
X98525714Y-77591428D01*
X98811428Y-77734285D01*
X99382857Y-77734285D01*
X99668571Y-77591428D01*
X99811428Y-77448571D01*
X99954285Y-77162857D01*
X102525714Y-76877142D02*
X102525714Y-78877142D01*
X101811428Y-75734285D02*
X101097142Y-77877142D01*
X102954285Y-77877142D01*
D12*
X147200000Y-66000000D02*
X147200000Y-124000000D01*
D10*
X181533363Y-123704761D02*
X181783363Y-121704761D01*
X182271458Y-123133333D01*
X183116696Y-121704761D01*
X182866696Y-123704761D01*
X183795267Y-123133333D02*
X184747648Y-123133333D01*
X183533363Y-123704761D02*
X184450029Y-121704761D01*
X184866696Y-123704761D01*
X186033363Y-122752380D02*
X185914315Y-123704761D01*
X185497648Y-121704761D02*
X186033363Y-122752380D01*
X186830982Y-121704761D01*
X187247648Y-123704761D02*
X187497648Y-121704761D01*
X188390505Y-123704761D02*
X187676220Y-122561904D01*
X188640505Y-121704761D02*
X187354791Y-122847619D01*
X189878601Y-121704761D02*
X190259553Y-121704761D01*
X190438125Y-121800000D01*
X190604791Y-121990476D01*
X190652410Y-122371428D01*
X190569077Y-123038095D01*
X190426220Y-123419047D01*
X190211934Y-123609523D01*
X190009553Y-123704761D01*
X189628601Y-123704761D01*
X189450029Y-123609523D01*
X189283363Y-123419047D01*
X189235744Y-123038095D01*
X189319077Y-122371428D01*
X189461934Y-121990476D01*
X189676220Y-121800000D01*
X189878601Y-121704761D01*
X192295267Y-123704761D02*
X191342886Y-123704761D01*
X191592886Y-121704761D01*
X194104791Y-123704761D02*
X193557172Y-122752380D01*
X192961934Y-123704761D02*
X193211934Y-121704761D01*
X193973839Y-121704761D01*
X194152410Y-121800000D01*
X194235744Y-121895238D01*
X194307172Y-122085714D01*
X194271458Y-122371428D01*
X194152410Y-122561904D01*
X194045267Y-122657142D01*
X193842886Y-122752380D01*
X193080982Y-122752380D01*
X195092886Y-122657142D02*
X195759553Y-122657142D01*
X195914315Y-123704761D02*
X194961934Y-123704761D01*
X195211934Y-121704761D01*
X196164315Y-121704761D01*
X197271458Y-122752380D02*
X197152410Y-123704761D01*
X196735744Y-121704761D02*
X197271458Y-122752380D01*
X198069077Y-121704761D01*
X198509553Y-123514285D02*
X198592886Y-123609523D01*
X198485744Y-123704761D01*
X198402410Y-123609523D01*
X198509553Y-123514285D01*
X198485744Y-123704761D01*
X200604791Y-123514285D02*
X200497648Y-123609523D01*
X200200029Y-123704761D01*
X200009553Y-123704761D01*
X199735744Y-123609523D01*
X199569077Y-123419047D01*
X199497648Y-123228571D01*
X199450029Y-122847619D01*
X199485744Y-122561904D01*
X199628601Y-122180952D01*
X199747648Y-121990476D01*
X199961934Y-121800000D01*
X200259553Y-121704761D01*
X200450029Y-121704761D01*
X200723839Y-121800000D01*
X200807172Y-121895238D01*
X202069077Y-121704761D02*
X202450029Y-121704761D01*
X202628601Y-121800000D01*
X202795267Y-121990476D01*
X202842886Y-122371428D01*
X202759553Y-123038095D01*
X202616696Y-123419047D01*
X202402410Y-123609523D01*
X202200029Y-123704761D01*
X201819077Y-123704761D01*
X201640505Y-123609523D01*
X201473839Y-123419047D01*
X201426220Y-123038095D01*
X201509553Y-122371428D01*
X201652410Y-121990476D01*
X201866696Y-121800000D01*
X202069077Y-121704761D01*
X203533363Y-123704761D02*
X203783363Y-121704761D01*
X204271458Y-123133333D01*
X205116696Y-121704761D01*
X204866696Y-123704761D01*
D13*
%TO.C,G\u002A\u002A\u002A*%
G36*
X192556006Y-116472764D02*
G01*
X192735914Y-116475933D01*
X192879118Y-116482821D01*
X192992660Y-116494742D01*
X193083583Y-116513011D01*
X193158928Y-116538941D01*
X193225738Y-116573847D01*
X193291056Y-116619044D01*
X193343591Y-116660724D01*
X193469975Y-116794443D01*
X193555734Y-116949527D01*
X193602003Y-117118413D01*
X193609917Y-117293540D01*
X193580613Y-117467347D01*
X193515224Y-117632273D01*
X193414888Y-117780756D01*
X193280739Y-117905235D01*
X193144758Y-117984800D01*
X193090500Y-118007586D01*
X193035319Y-118024659D01*
X192969823Y-118037281D01*
X192884617Y-118046717D01*
X192770307Y-118054227D01*
X192617500Y-118061075D01*
X192561101Y-118063252D01*
X192383455Y-118070935D01*
X192251229Y-118079726D01*
X192159046Y-118091111D01*
X192101525Y-118106580D01*
X192073289Y-118127620D01*
X192068960Y-118155720D01*
X192083160Y-118192368D01*
X192084606Y-118195101D01*
X192097631Y-118213123D01*
X192119502Y-118226508D01*
X192157565Y-118236171D01*
X192219165Y-118243031D01*
X192311646Y-118248003D01*
X192442356Y-118252004D01*
X192562619Y-118254763D01*
X192763370Y-118261192D01*
X192922046Y-118272621D01*
X193047320Y-118291776D01*
X193147865Y-118321383D01*
X193232355Y-118364166D01*
X193309463Y-118422852D01*
X193387863Y-118500165D01*
X193405972Y-118519754D01*
X193469215Y-118593228D01*
X193517922Y-118663354D01*
X193554050Y-118738280D01*
X193579553Y-118826157D01*
X193596390Y-118935132D01*
X193606516Y-119073356D01*
X193611888Y-119248977D01*
X193613739Y-119385187D01*
X193614899Y-119559164D01*
X193614125Y-119689823D01*
X193610911Y-119784630D01*
X193604748Y-119851046D01*
X193595131Y-119896536D01*
X193581553Y-119928562D01*
X193576258Y-119937234D01*
X193508235Y-120000311D01*
X193422126Y-120025328D01*
X193333451Y-120012317D01*
X193257732Y-119961315D01*
X193238453Y-119936488D01*
X193221946Y-119904191D01*
X193210560Y-119860524D01*
X193203626Y-119797008D01*
X193200480Y-119705164D01*
X193200455Y-119576516D01*
X193201785Y-119469869D01*
X193202355Y-119271508D01*
X193196637Y-119116937D01*
X193183674Y-118999427D01*
X193162510Y-118912247D01*
X193132188Y-118848668D01*
X193109247Y-118819101D01*
X193069431Y-118777266D01*
X193032197Y-118745892D01*
X192989583Y-118723244D01*
X192933624Y-118707588D01*
X192856356Y-118697190D01*
X192749813Y-118690315D01*
X192606033Y-118685230D01*
X192478736Y-118681800D01*
X191989399Y-118669100D01*
X191879349Y-118591772D01*
X191761130Y-118481628D01*
X191684055Y-118352319D01*
X191646995Y-118212166D01*
X191648818Y-118069487D01*
X191688394Y-117932603D01*
X191764593Y-117809832D01*
X191876285Y-117709496D01*
X192008040Y-117644622D01*
X192069356Y-117632924D01*
X192173157Y-117623768D01*
X192311167Y-117617646D01*
X192475112Y-117615054D01*
X192503736Y-117615000D01*
X192662968Y-117614241D01*
X192780396Y-117611397D01*
X192865003Y-117605614D01*
X192925771Y-117596038D01*
X192971682Y-117581815D01*
X193001596Y-117567677D01*
X193101918Y-117486842D01*
X193164743Y-117375631D01*
X193185260Y-117242909D01*
X193163346Y-117116334D01*
X193099490Y-117016480D01*
X193018869Y-116953482D01*
X192989654Y-116937821D01*
X192955403Y-116925840D01*
X192909303Y-116917051D01*
X192844538Y-116910966D01*
X192754293Y-116907097D01*
X192631755Y-116904954D01*
X192470108Y-116904051D01*
X192326684Y-116903894D01*
X191715669Y-116903800D01*
X191628909Y-116967809D01*
X191567574Y-117018757D01*
X191522783Y-117065964D01*
X191516024Y-117075759D01*
X191509224Y-117112393D01*
X191502724Y-117197355D01*
X191496604Y-117328173D01*
X191490943Y-117502376D01*
X191485819Y-117717493D01*
X191481313Y-117971052D01*
X191477503Y-118260582D01*
X191477200Y-118288100D01*
X191464500Y-119456500D01*
X191397180Y-119583500D01*
X191279265Y-119755097D01*
X191127965Y-119892109D01*
X191026887Y-119953379D01*
X190898614Y-119997445D01*
X190744791Y-120018092D01*
X190584738Y-120015160D01*
X190437781Y-119988489D01*
X190359600Y-119958923D01*
X190204604Y-119856795D01*
X190069503Y-119717577D01*
X189982901Y-119584963D01*
X189915100Y-119456500D01*
X189902400Y-118288100D01*
X189899379Y-118007378D01*
X189896573Y-117772896D01*
X189893406Y-117580099D01*
X189889304Y-117424434D01*
X189883691Y-117301345D01*
X189875993Y-117206280D01*
X189865635Y-117134682D01*
X189852042Y-117081999D01*
X189834638Y-117043676D01*
X189812850Y-117015159D01*
X189786102Y-116991894D01*
X189753819Y-116969326D01*
X189734255Y-116956081D01*
X189672311Y-116920975D01*
X189608613Y-116906553D01*
X189520595Y-116908159D01*
X189507121Y-116909225D01*
X189413310Y-116922474D01*
X189347528Y-116949354D01*
X189287184Y-116999262D01*
X189284703Y-117001731D01*
X189203900Y-117082493D01*
X189190166Y-118244096D01*
X189186804Y-118518941D01*
X189183636Y-118747791D01*
X189180422Y-118935450D01*
X189176920Y-119086721D01*
X189172891Y-119206408D01*
X189168093Y-119299313D01*
X189162285Y-119370241D01*
X189155226Y-119423995D01*
X189146676Y-119465379D01*
X189136394Y-119499195D01*
X189125883Y-119526125D01*
X189028538Y-119696754D01*
X188894072Y-119842793D01*
X188756921Y-119939306D01*
X188684474Y-119976607D01*
X188621128Y-119999278D01*
X188549746Y-120010876D01*
X188453193Y-120014961D01*
X188391100Y-120015300D01*
X188275724Y-120013593D01*
X188194007Y-120006120D01*
X188128855Y-119989347D01*
X188063176Y-119959744D01*
X188026472Y-119939956D01*
X187879214Y-119836100D01*
X187755045Y-119704994D01*
X187666283Y-119560276D01*
X187651583Y-119524941D01*
X187640808Y-119491768D01*
X187631712Y-119451260D01*
X187624077Y-119398672D01*
X187617683Y-119329258D01*
X187612311Y-119238273D01*
X187607742Y-119120970D01*
X187603757Y-118972605D01*
X187600136Y-118788432D01*
X187596660Y-118563706D01*
X187593111Y-118293680D01*
X187592525Y-118246271D01*
X187589094Y-117973107D01*
X187585947Y-117746188D01*
X187582840Y-117560961D01*
X187579530Y-117412876D01*
X187575774Y-117297379D01*
X187571328Y-117209918D01*
X187565949Y-117145942D01*
X187559395Y-117100897D01*
X187551420Y-117070233D01*
X187541783Y-117049396D01*
X187530240Y-117033834D01*
X187527559Y-117030821D01*
X187423910Y-116950129D01*
X187303861Y-116909875D01*
X187178938Y-116909362D01*
X187060664Y-116947890D01*
X186960566Y-117024762D01*
X186927462Y-117067190D01*
X186918816Y-117089342D01*
X186911371Y-117130516D01*
X186904970Y-117194679D01*
X186899460Y-117285797D01*
X186894684Y-117407838D01*
X186890489Y-117564767D01*
X186886720Y-117760550D01*
X186883221Y-117999156D01*
X186879838Y-118284549D01*
X186879800Y-118288100D01*
X186876763Y-118562194D01*
X186873974Y-118790249D01*
X186871175Y-118977023D01*
X186868106Y-119127275D01*
X186864510Y-119245761D01*
X186860127Y-119337241D01*
X186854699Y-119406473D01*
X186847967Y-119458214D01*
X186839673Y-119497224D01*
X186829557Y-119528259D01*
X186817362Y-119556079D01*
X186810075Y-119570931D01*
X186703291Y-119734161D01*
X186564605Y-119866771D01*
X186402602Y-119962747D01*
X186225865Y-120016072D01*
X186164387Y-120023386D01*
X186077650Y-120026794D01*
X186022344Y-120018006D01*
X185979626Y-119992103D01*
X185954470Y-119968579D01*
X185899163Y-119884411D01*
X185888839Y-119796638D01*
X185919440Y-119714903D01*
X185986905Y-119648849D01*
X186087175Y-119608118D01*
X186107807Y-119604310D01*
X186252473Y-119563697D01*
X186356695Y-119492932D01*
X186390610Y-119450800D01*
X186401261Y-119430948D01*
X186410215Y-119403638D01*
X186417685Y-119364306D01*
X186423885Y-119308392D01*
X186429030Y-119231331D01*
X186433332Y-119128562D01*
X186437006Y-118995523D01*
X186440265Y-118827651D01*
X186443323Y-118620384D01*
X186446394Y-118369160D01*
X186448000Y-118225778D01*
X186451073Y-117952744D01*
X186453929Y-117725699D01*
X186456821Y-117539832D01*
X186460006Y-117390336D01*
X186463737Y-117272401D01*
X186468270Y-117181218D01*
X186473858Y-117111977D01*
X186480758Y-117059869D01*
X186489224Y-117020086D01*
X186499510Y-116987817D01*
X186511872Y-116958253D01*
X186515586Y-116950137D01*
X186621754Y-116776228D01*
X186760456Y-116638418D01*
X186926415Y-116540431D01*
X187114353Y-116485991D01*
X187184963Y-116477869D01*
X187383339Y-116487853D01*
X187567887Y-116544418D01*
X187731794Y-116643907D01*
X187868243Y-116782664D01*
X187931390Y-116878400D01*
X188010100Y-117018100D01*
X188022800Y-118186500D01*
X188026462Y-118486308D01*
X188030459Y-118738268D01*
X188034899Y-118945332D01*
X188039886Y-119110451D01*
X188045526Y-119236577D01*
X188051926Y-119326661D01*
X188059191Y-119383655D01*
X188066677Y-119409310D01*
X188106385Y-119460940D01*
X188165340Y-119520093D01*
X188179762Y-119532641D01*
X188233329Y-119572247D01*
X188284630Y-119590981D01*
X188354189Y-119594074D01*
X188408587Y-119590935D01*
X188540544Y-119564830D01*
X188640500Y-119504329D01*
X188717282Y-119405700D01*
X188725299Y-119372248D01*
X188732486Y-119299839D01*
X188738909Y-119186594D01*
X188744633Y-119030637D01*
X188749721Y-118830091D01*
X188754239Y-118583080D01*
X188758253Y-118287727D01*
X188759400Y-118186500D01*
X188762441Y-117912341D01*
X188765241Y-117684259D01*
X188768053Y-117497534D01*
X188771131Y-117347444D01*
X188774728Y-117229270D01*
X188779098Y-117138291D01*
X188784496Y-117069785D01*
X188791175Y-117019032D01*
X188799390Y-116981313D01*
X188809393Y-116951906D01*
X188821438Y-116926090D01*
X188827833Y-116913938D01*
X188941657Y-116748568D01*
X189080686Y-116622243D01*
X189238137Y-116534786D01*
X189407228Y-116486021D01*
X189581177Y-116475770D01*
X189753204Y-116503856D01*
X189916525Y-116570103D01*
X190064358Y-116674333D01*
X190189923Y-116816370D01*
X190267211Y-116951490D01*
X190280045Y-116980956D01*
X190290759Y-117012094D01*
X190299605Y-117049714D01*
X190306836Y-117098621D01*
X190312706Y-117163625D01*
X190317467Y-117249532D01*
X190321372Y-117361150D01*
X190324675Y-117503287D01*
X190327628Y-117680750D01*
X190330484Y-117898347D01*
X190333497Y-118160886D01*
X190334200Y-118224600D01*
X190337715Y-118514350D01*
X190341443Y-118756976D01*
X190345523Y-118956151D01*
X190350093Y-119115551D01*
X190355294Y-119238850D01*
X190361264Y-119329723D01*
X190368143Y-119391844D01*
X190376071Y-119428889D01*
X190380271Y-119438809D01*
X190454726Y-119521839D01*
X190557865Y-119574881D01*
X190675611Y-119595373D01*
X190793889Y-119580755D01*
X190893690Y-119532190D01*
X190955025Y-119481242D01*
X190999816Y-119434035D01*
X191006575Y-119424240D01*
X191013401Y-119387572D01*
X191019928Y-119302626D01*
X191026073Y-119171920D01*
X191031755Y-118997976D01*
X191036892Y-118783314D01*
X191041404Y-118530454D01*
X191045207Y-118241916D01*
X191045400Y-118224600D01*
X191048435Y-117952352D01*
X191051200Y-117726045D01*
X191053972Y-117540826D01*
X191057025Y-117391837D01*
X191060635Y-117274224D01*
X191065078Y-117183132D01*
X191070629Y-117113705D01*
X191077564Y-117061088D01*
X191086159Y-117020425D01*
X191096689Y-116986862D01*
X191109429Y-116955543D01*
X191118597Y-116935039D01*
X191192914Y-116812936D01*
X191298232Y-116694371D01*
X191419826Y-116593130D01*
X191542967Y-116522995D01*
X191569722Y-116512794D01*
X191617287Y-116499605D01*
X191677368Y-116489468D01*
X191756656Y-116482025D01*
X191861841Y-116476919D01*
X191999614Y-116473790D01*
X192176665Y-116472283D01*
X192332352Y-116471999D01*
X192556006Y-116472764D01*
G37*
X192556006Y-116472764D02*
X192735914Y-116475933D01*
X192879118Y-116482821D01*
X192992660Y-116494742D01*
X193083583Y-116513011D01*
X193158928Y-116538941D01*
X193225738Y-116573847D01*
X193291056Y-116619044D01*
X193343591Y-116660724D01*
X193469975Y-116794443D01*
X193555734Y-116949527D01*
X193602003Y-117118413D01*
X193609917Y-117293540D01*
X193580613Y-117467347D01*
X193515224Y-117632273D01*
X193414888Y-117780756D01*
X193280739Y-117905235D01*
X193144758Y-117984800D01*
X193090500Y-118007586D01*
X193035319Y-118024659D01*
X192969823Y-118037281D01*
X192884617Y-118046717D01*
X192770307Y-118054227D01*
X192617500Y-118061075D01*
X192561101Y-118063252D01*
X192383455Y-118070935D01*
X192251229Y-118079726D01*
X192159046Y-118091111D01*
X192101525Y-118106580D01*
X192073289Y-118127620D01*
X192068960Y-118155720D01*
X192083160Y-118192368D01*
X192084606Y-118195101D01*
X192097631Y-118213123D01*
X192119502Y-118226508D01*
X192157565Y-118236171D01*
X192219165Y-118243031D01*
X192311646Y-118248003D01*
X192442356Y-118252004D01*
X192562619Y-118254763D01*
X192763370Y-118261192D01*
X192922046Y-118272621D01*
X193047320Y-118291776D01*
X193147865Y-118321383D01*
X193232355Y-118364166D01*
X193309463Y-118422852D01*
X193387863Y-118500165D01*
X193405972Y-118519754D01*
X193469215Y-118593228D01*
X193517922Y-118663354D01*
X193554050Y-118738280D01*
X193579553Y-118826157D01*
X193596390Y-118935132D01*
X193606516Y-119073356D01*
X193611888Y-119248977D01*
X193613739Y-119385187D01*
X193614899Y-119559164D01*
X193614125Y-119689823D01*
X193610911Y-119784630D01*
X193604748Y-119851046D01*
X193595131Y-119896536D01*
X193581553Y-119928562D01*
X193576258Y-119937234D01*
X193508235Y-120000311D01*
X193422126Y-120025328D01*
X193333451Y-120012317D01*
X193257732Y-119961315D01*
X193238453Y-119936488D01*
X193221946Y-119904191D01*
X193210560Y-119860524D01*
X193203626Y-119797008D01*
X193200480Y-119705164D01*
X193200455Y-119576516D01*
X193201785Y-119469869D01*
X193202355Y-119271508D01*
X193196637Y-119116937D01*
X193183674Y-118999427D01*
X193162510Y-118912247D01*
X193132188Y-118848668D01*
X193109247Y-118819101D01*
X193069431Y-118777266D01*
X193032197Y-118745892D01*
X192989583Y-118723244D01*
X192933624Y-118707588D01*
X192856356Y-118697190D01*
X192749813Y-118690315D01*
X192606033Y-118685230D01*
X192478736Y-118681800D01*
X191989399Y-118669100D01*
X191879349Y-118591772D01*
X191761130Y-118481628D01*
X191684055Y-118352319D01*
X191646995Y-118212166D01*
X191648818Y-118069487D01*
X191688394Y-117932603D01*
X191764593Y-117809832D01*
X191876285Y-117709496D01*
X192008040Y-117644622D01*
X192069356Y-117632924D01*
X192173157Y-117623768D01*
X192311167Y-117617646D01*
X192475112Y-117615054D01*
X192503736Y-117615000D01*
X192662968Y-117614241D01*
X192780396Y-117611397D01*
X192865003Y-117605614D01*
X192925771Y-117596038D01*
X192971682Y-117581815D01*
X193001596Y-117567677D01*
X193101918Y-117486842D01*
X193164743Y-117375631D01*
X193185260Y-117242909D01*
X193163346Y-117116334D01*
X193099490Y-117016480D01*
X193018869Y-116953482D01*
X192989654Y-116937821D01*
X192955403Y-116925840D01*
X192909303Y-116917051D01*
X192844538Y-116910966D01*
X192754293Y-116907097D01*
X192631755Y-116904954D01*
X192470108Y-116904051D01*
X192326684Y-116903894D01*
X191715669Y-116903800D01*
X191628909Y-116967809D01*
X191567574Y-117018757D01*
X191522783Y-117065964D01*
X191516024Y-117075759D01*
X191509224Y-117112393D01*
X191502724Y-117197355D01*
X191496604Y-117328173D01*
X191490943Y-117502376D01*
X191485819Y-117717493D01*
X191481313Y-117971052D01*
X191477503Y-118260582D01*
X191477200Y-118288100D01*
X191464500Y-119456500D01*
X191397180Y-119583500D01*
X191279265Y-119755097D01*
X191127965Y-119892109D01*
X191026887Y-119953379D01*
X190898614Y-119997445D01*
X190744791Y-120018092D01*
X190584738Y-120015160D01*
X190437781Y-119988489D01*
X190359600Y-119958923D01*
X190204604Y-119856795D01*
X190069503Y-119717577D01*
X189982901Y-119584963D01*
X189915100Y-119456500D01*
X189902400Y-118288100D01*
X189899379Y-118007378D01*
X189896573Y-117772896D01*
X189893406Y-117580099D01*
X189889304Y-117424434D01*
X189883691Y-117301345D01*
X189875993Y-117206280D01*
X189865635Y-117134682D01*
X189852042Y-117081999D01*
X189834638Y-117043676D01*
X189812850Y-117015159D01*
X189786102Y-116991894D01*
X189753819Y-116969326D01*
X189734255Y-116956081D01*
X189672311Y-116920975D01*
X189608613Y-116906553D01*
X189520595Y-116908159D01*
X189507121Y-116909225D01*
X189413310Y-116922474D01*
X189347528Y-116949354D01*
X189287184Y-116999262D01*
X189284703Y-117001731D01*
X189203900Y-117082493D01*
X189190166Y-118244096D01*
X189186804Y-118518941D01*
X189183636Y-118747791D01*
X189180422Y-118935450D01*
X189176920Y-119086721D01*
X189172891Y-119206408D01*
X189168093Y-119299313D01*
X189162285Y-119370241D01*
X189155226Y-119423995D01*
X189146676Y-119465379D01*
X189136394Y-119499195D01*
X189125883Y-119526125D01*
X189028538Y-119696754D01*
X188894072Y-119842793D01*
X188756921Y-119939306D01*
X188684474Y-119976607D01*
X188621128Y-119999278D01*
X188549746Y-120010876D01*
X188453193Y-120014961D01*
X188391100Y-120015300D01*
X188275724Y-120013593D01*
X188194007Y-120006120D01*
X188128855Y-119989347D01*
X188063176Y-119959744D01*
X188026472Y-119939956D01*
X187879214Y-119836100D01*
X187755045Y-119704994D01*
X187666283Y-119560276D01*
X187651583Y-119524941D01*
X187640808Y-119491768D01*
X187631712Y-119451260D01*
X187624077Y-119398672D01*
X187617683Y-119329258D01*
X187612311Y-119238273D01*
X187607742Y-119120970D01*
X187603757Y-118972605D01*
X187600136Y-118788432D01*
X187596660Y-118563706D01*
X187593111Y-118293680D01*
X187592525Y-118246271D01*
X187589094Y-117973107D01*
X187585947Y-117746188D01*
X187582840Y-117560961D01*
X187579530Y-117412876D01*
X187575774Y-117297379D01*
X187571328Y-117209918D01*
X187565949Y-117145942D01*
X187559395Y-117100897D01*
X187551420Y-117070233D01*
X187541783Y-117049396D01*
X187530240Y-117033834D01*
X187527559Y-117030821D01*
X187423910Y-116950129D01*
X187303861Y-116909875D01*
X187178938Y-116909362D01*
X187060664Y-116947890D01*
X186960566Y-117024762D01*
X186927462Y-117067190D01*
X186918816Y-117089342D01*
X186911371Y-117130516D01*
X186904970Y-117194679D01*
X186899460Y-117285797D01*
X186894684Y-117407838D01*
X186890489Y-117564767D01*
X186886720Y-117760550D01*
X186883221Y-117999156D01*
X186879838Y-118284549D01*
X186879800Y-118288100D01*
X186876763Y-118562194D01*
X186873974Y-118790249D01*
X186871175Y-118977023D01*
X186868106Y-119127275D01*
X186864510Y-119245761D01*
X186860127Y-119337241D01*
X186854699Y-119406473D01*
X186847967Y-119458214D01*
X186839673Y-119497224D01*
X186829557Y-119528259D01*
X186817362Y-119556079D01*
X186810075Y-119570931D01*
X186703291Y-119734161D01*
X186564605Y-119866771D01*
X186402602Y-119962747D01*
X186225865Y-120016072D01*
X186164387Y-120023386D01*
X186077650Y-120026794D01*
X186022344Y-120018006D01*
X185979626Y-119992103D01*
X185954470Y-119968579D01*
X185899163Y-119884411D01*
X185888839Y-119796638D01*
X185919440Y-119714903D01*
X185986905Y-119648849D01*
X186087175Y-119608118D01*
X186107807Y-119604310D01*
X186252473Y-119563697D01*
X186356695Y-119492932D01*
X186390610Y-119450800D01*
X186401261Y-119430948D01*
X186410215Y-119403638D01*
X186417685Y-119364306D01*
X186423885Y-119308392D01*
X186429030Y-119231331D01*
X186433332Y-119128562D01*
X186437006Y-118995523D01*
X186440265Y-118827651D01*
X186443323Y-118620384D01*
X186446394Y-118369160D01*
X186448000Y-118225778D01*
X186451073Y-117952744D01*
X186453929Y-117725699D01*
X186456821Y-117539832D01*
X186460006Y-117390336D01*
X186463737Y-117272401D01*
X186468270Y-117181218D01*
X186473858Y-117111977D01*
X186480758Y-117059869D01*
X186489224Y-117020086D01*
X186499510Y-116987817D01*
X186511872Y-116958253D01*
X186515586Y-116950137D01*
X186621754Y-116776228D01*
X186760456Y-116638418D01*
X186926415Y-116540431D01*
X187114353Y-116485991D01*
X187184963Y-116477869D01*
X187383339Y-116487853D01*
X187567887Y-116544418D01*
X187731794Y-116643907D01*
X187868243Y-116782664D01*
X187931390Y-116878400D01*
X188010100Y-117018100D01*
X188022800Y-118186500D01*
X188026462Y-118486308D01*
X188030459Y-118738268D01*
X188034899Y-118945332D01*
X188039886Y-119110451D01*
X188045526Y-119236577D01*
X188051926Y-119326661D01*
X188059191Y-119383655D01*
X188066677Y-119409310D01*
X188106385Y-119460940D01*
X188165340Y-119520093D01*
X188179762Y-119532641D01*
X188233329Y-119572247D01*
X188284630Y-119590981D01*
X188354189Y-119594074D01*
X188408587Y-119590935D01*
X188540544Y-119564830D01*
X188640500Y-119504329D01*
X188717282Y-119405700D01*
X188725299Y-119372248D01*
X188732486Y-119299839D01*
X188738909Y-119186594D01*
X188744633Y-119030637D01*
X188749721Y-118830091D01*
X188754239Y-118583080D01*
X188758253Y-118287727D01*
X188759400Y-118186500D01*
X188762441Y-117912341D01*
X188765241Y-117684259D01*
X188768053Y-117497534D01*
X188771131Y-117347444D01*
X188774728Y-117229270D01*
X188779098Y-117138291D01*
X188784496Y-117069785D01*
X188791175Y-117019032D01*
X188799390Y-116981313D01*
X188809393Y-116951906D01*
X188821438Y-116926090D01*
X188827833Y-116913938D01*
X188941657Y-116748568D01*
X189080686Y-116622243D01*
X189238137Y-116534786D01*
X189407228Y-116486021D01*
X189581177Y-116475770D01*
X189753204Y-116503856D01*
X189916525Y-116570103D01*
X190064358Y-116674333D01*
X190189923Y-116816370D01*
X190267211Y-116951490D01*
X190280045Y-116980956D01*
X190290759Y-117012094D01*
X190299605Y-117049714D01*
X190306836Y-117098621D01*
X190312706Y-117163625D01*
X190317467Y-117249532D01*
X190321372Y-117361150D01*
X190324675Y-117503287D01*
X190327628Y-117680750D01*
X190330484Y-117898347D01*
X190333497Y-118160886D01*
X190334200Y-118224600D01*
X190337715Y-118514350D01*
X190341443Y-118756976D01*
X190345523Y-118956151D01*
X190350093Y-119115551D01*
X190355294Y-119238850D01*
X190361264Y-119329723D01*
X190368143Y-119391844D01*
X190376071Y-119428889D01*
X190380271Y-119438809D01*
X190454726Y-119521839D01*
X190557865Y-119574881D01*
X190675611Y-119595373D01*
X190793889Y-119580755D01*
X190893690Y-119532190D01*
X190955025Y-119481242D01*
X190999816Y-119434035D01*
X191006575Y-119424240D01*
X191013401Y-119387572D01*
X191019928Y-119302626D01*
X191026073Y-119171920D01*
X191031755Y-118997976D01*
X191036892Y-118783314D01*
X191041404Y-118530454D01*
X191045207Y-118241916D01*
X191045400Y-118224600D01*
X191048435Y-117952352D01*
X191051200Y-117726045D01*
X191053972Y-117540826D01*
X191057025Y-117391837D01*
X191060635Y-117274224D01*
X191065078Y-117183132D01*
X191070629Y-117113705D01*
X191077564Y-117061088D01*
X191086159Y-117020425D01*
X191096689Y-116986862D01*
X191109429Y-116955543D01*
X191118597Y-116935039D01*
X191192914Y-116812936D01*
X191298232Y-116694371D01*
X191419826Y-116593130D01*
X191542967Y-116522995D01*
X191569722Y-116512794D01*
X191617287Y-116499605D01*
X191677368Y-116489468D01*
X191756656Y-116482025D01*
X191861841Y-116476919D01*
X191999614Y-116473790D01*
X192176665Y-116472283D01*
X192332352Y-116471999D01*
X192556006Y-116472764D01*
D14*
%TO.C,RV1*%
X160410000Y-67590000D02*
X160410000Y-68280000D01*
X160310000Y-67590000D02*
X160410000Y-67590000D01*
X153790000Y-67590000D02*
X153790000Y-67840000D01*
X153890000Y-67590000D02*
X153790000Y-67590000D01*
X153890000Y-67390000D02*
X153890000Y-67590000D01*
X155310000Y-67590000D02*
X155310000Y-67390000D01*
X159100000Y-74610000D02*
X157610000Y-74610000D01*
X160410000Y-69320000D02*
X160410000Y-73300000D01*
X153790000Y-73300000D02*
X153790000Y-69760000D01*
X156590000Y-74610000D02*
X155100000Y-74610000D01*
X160310000Y-67390000D02*
X160310000Y-67590000D01*
X158890000Y-67390000D02*
X160310000Y-67390000D01*
X158890000Y-67590000D02*
X158890000Y-67390000D01*
X155310000Y-67590000D02*
X158890000Y-67590000D01*
X153890000Y-67390000D02*
X155310000Y-67390000D01*
X155100000Y-74610000D02*
G75*
G02*
X153790000Y-73300000I0J1310000D01*
G01*
X160410000Y-73300000D02*
G75*
G02*
X159100000Y-74610000I-1310000J0D01*
G01*
%TO.C,U1*%
X148240000Y-74370000D02*
X149490000Y-74370000D01*
X149490000Y-74370000D02*
X149490000Y-69170000D01*
X149490000Y-69170000D02*
X144990000Y-69170000D01*
X144990000Y-69170000D02*
X144990000Y-74370000D01*
X144990000Y-74370000D02*
X146240000Y-74370000D01*
X146240000Y-74370000D02*
G75*
G02*
X148240000Y-74370000I1000000J0D01*
G01*
%TO.C,R15*%
X108500000Y-107280000D02*
X108500000Y-110720000D01*
X108500000Y-110720000D02*
X117740000Y-110720000D01*
X117740000Y-110720000D02*
X117740000Y-107280000D01*
X117740000Y-107280000D02*
X108500000Y-107280000D01*
X106540000Y-109000000D02*
X108500000Y-109000000D01*
X119700000Y-109000000D02*
X117740000Y-109000000D01*
%TO.C,R12*%
X103310000Y-116130000D02*
X103310000Y-118870000D01*
X103310000Y-118870000D02*
X109850000Y-118870000D01*
X109850000Y-118870000D02*
X109850000Y-116130000D01*
X109850000Y-116130000D02*
X103310000Y-116130000D01*
X102540000Y-117500000D02*
X103310000Y-117500000D01*
X110620000Y-117500000D02*
X109850000Y-117500000D01*
%TO.C,IC1*%
X95550000Y-83850000D02*
X94300000Y-83850000D01*
X94300000Y-83850000D02*
X94300000Y-104290000D01*
X94300000Y-104290000D02*
X98800000Y-104290000D01*
X98800000Y-104290000D02*
X98800000Y-83850000D01*
X98800000Y-83850000D02*
X97550000Y-83850000D01*
X97550000Y-83850000D02*
G75*
G02*
X95550000Y-83850000I-1000000J0D01*
G01*
%TO.C,D4*%
X178080000Y-124770000D02*
X167840000Y-124770000D01*
X178080000Y-120129000D02*
X167840000Y-120129000D01*
X178080000Y-124770000D02*
X178080000Y-120129000D01*
X167840000Y-124770000D02*
X167840000Y-120129000D01*
X178080000Y-123260000D02*
X167840000Y-123260000D01*
X174810000Y-124770000D02*
X174810000Y-123260000D01*
X171109000Y-124770000D02*
X171109000Y-123260000D01*
%TO.C,D3*%
X167920000Y-65230000D02*
X178160000Y-65230000D01*
X167920000Y-69871000D02*
X178160000Y-69871000D01*
X167920000Y-65230000D02*
X167920000Y-69871000D01*
X178160000Y-65230000D02*
X178160000Y-69871000D01*
X167920000Y-66740000D02*
X178160000Y-66740000D01*
X171190000Y-65230000D02*
X171190000Y-66740000D01*
X174891000Y-65230000D02*
X174891000Y-66740000D01*
%TO.C,D2*%
X175030000Y-100140000D02*
X177970000Y-100140000D01*
X177970000Y-100140000D02*
X177970000Y-94700000D01*
X177970000Y-94700000D02*
X175030000Y-94700000D01*
X175030000Y-94700000D02*
X175030000Y-100140000D01*
X176500000Y-101360000D02*
X176500000Y-100140000D01*
X176500000Y-93480000D02*
X176500000Y-94700000D01*
X175030000Y-99240000D02*
X177970000Y-99240000D01*
X175030000Y-99120000D02*
X177970000Y-99120000D01*
X175030000Y-99360000D02*
X177970000Y-99360000D01*
%TO.C,D1*%
X175640000Y-73970000D02*
X175640000Y-71030000D01*
X175640000Y-71030000D02*
X170200000Y-71030000D01*
X170200000Y-71030000D02*
X170200000Y-73970000D01*
X170200000Y-73970000D02*
X175640000Y-73970000D01*
X176860000Y-72500000D02*
X175640000Y-72500000D01*
X168980000Y-72500000D02*
X170200000Y-72500000D01*
X174740000Y-73970000D02*
X174740000Y-71030000D01*
X174620000Y-73970000D02*
X174620000Y-71030000D01*
X174860000Y-73970000D02*
X174860000Y-71030000D01*
%TO.C,C13*%
X204170000Y-71980000D02*
X204170000Y-76020000D01*
X201330000Y-71980000D02*
X201330000Y-76020000D01*
X204170000Y-71980000D02*
X203545000Y-71980000D01*
X201955000Y-71980000D02*
X201330000Y-71980000D01*
X204170000Y-76020000D02*
X203545000Y-76020000D01*
X201955000Y-76020000D02*
X201330000Y-76020000D01*
%TO.C,C6*%
X189420000Y-100000000D02*
G75*
G03*
X189420000Y-100000000I-5120000J0D01*
G01*
X179220000Y-100000000D02*
X189380000Y-100000000D01*
X179220000Y-99960000D02*
X189380000Y-99960000D01*
X179220000Y-99920000D02*
X189380000Y-99920000D01*
X179221000Y-99880000D02*
X189379000Y-99880000D01*
X179222000Y-99840000D02*
X189378000Y-99840000D01*
X179223000Y-99800000D02*
X189377000Y-99800000D01*
X179225000Y-99760000D02*
X189375000Y-99760000D01*
X179227000Y-99720000D02*
X189373000Y-99720000D01*
X179230000Y-99680000D02*
X189370000Y-99680000D01*
X179232000Y-99640000D02*
X189368000Y-99640000D01*
X179235000Y-99600000D02*
X189365000Y-99600000D01*
X179238000Y-99560000D02*
X189362000Y-99560000D01*
X179242000Y-99520000D02*
X189358000Y-99520000D01*
X179246000Y-99480000D02*
X189354000Y-99480000D01*
X179250000Y-99440000D02*
X189350000Y-99440000D01*
X179255000Y-99400000D02*
X189345000Y-99400000D01*
X179260000Y-99360000D02*
X189340000Y-99360000D01*
X179265000Y-99320000D02*
X189335000Y-99320000D01*
X179270000Y-99279000D02*
X189330000Y-99279000D01*
X179276000Y-99239000D02*
X189324000Y-99239000D01*
X179282000Y-99199000D02*
X189318000Y-99199000D01*
X179289000Y-99159000D02*
X189311000Y-99159000D01*
X179296000Y-99119000D02*
X189304000Y-99119000D01*
X179303000Y-99079000D02*
X189297000Y-99079000D01*
X179310000Y-99039000D02*
X189290000Y-99039000D01*
X179318000Y-98999000D02*
X189282000Y-98999000D01*
X179326000Y-98959000D02*
X189274000Y-98959000D01*
X179335000Y-98919000D02*
X189265000Y-98919000D01*
X179344000Y-98879000D02*
X189256000Y-98879000D01*
X179353000Y-98839000D02*
X189247000Y-98839000D01*
X179362000Y-98799000D02*
X189238000Y-98799000D01*
X179372000Y-98759000D02*
X189228000Y-98759000D01*
X179382000Y-98719000D02*
X183059000Y-98719000D01*
X185541000Y-98719000D02*
X189218000Y-98719000D01*
X179393000Y-98679000D02*
X183059000Y-98679000D01*
X185541000Y-98679000D02*
X189207000Y-98679000D01*
X179403000Y-98639000D02*
X183059000Y-98639000D01*
X185541000Y-98639000D02*
X189197000Y-98639000D01*
X179415000Y-98599000D02*
X183059000Y-98599000D01*
X185541000Y-98599000D02*
X189185000Y-98599000D01*
X179426000Y-98559000D02*
X183059000Y-98559000D01*
X185541000Y-98559000D02*
X189174000Y-98559000D01*
X179438000Y-98519000D02*
X183059000Y-98519000D01*
X185541000Y-98519000D02*
X189162000Y-98519000D01*
X179450000Y-98479000D02*
X183059000Y-98479000D01*
X185541000Y-98479000D02*
X189150000Y-98479000D01*
X179463000Y-98439000D02*
X183059000Y-98439000D01*
X185541000Y-98439000D02*
X189137000Y-98439000D01*
X179476000Y-98399000D02*
X183059000Y-98399000D01*
X185541000Y-98399000D02*
X189124000Y-98399000D01*
X179489000Y-98359000D02*
X183059000Y-98359000D01*
X185541000Y-98359000D02*
X189111000Y-98359000D01*
X179503000Y-98319000D02*
X183059000Y-98319000D01*
X185541000Y-98319000D02*
X189097000Y-98319000D01*
X179517000Y-98279000D02*
X183059000Y-98279000D01*
X185541000Y-98279000D02*
X189083000Y-98279000D01*
X179532000Y-98239000D02*
X183059000Y-98239000D01*
X185541000Y-98239000D02*
X189068000Y-98239000D01*
X179546000Y-98199000D02*
X183059000Y-98199000D01*
X185541000Y-98199000D02*
X189054000Y-98199000D01*
X179562000Y-98159000D02*
X183059000Y-98159000D01*
X185541000Y-98159000D02*
X189038000Y-98159000D01*
X179577000Y-98119000D02*
X183059000Y-98119000D01*
X185541000Y-98119000D02*
X189023000Y-98119000D01*
X179593000Y-98079000D02*
X183059000Y-98079000D01*
X185541000Y-98079000D02*
X189007000Y-98079000D01*
X179610000Y-98039000D02*
X183059000Y-98039000D01*
X185541000Y-98039000D02*
X188990000Y-98039000D01*
X179626000Y-97999000D02*
X183059000Y-97999000D01*
X185541000Y-97999000D02*
X188974000Y-97999000D01*
X179643000Y-97959000D02*
X183059000Y-97959000D01*
X185541000Y-97959000D02*
X188957000Y-97959000D01*
X179661000Y-97919000D02*
X183059000Y-97919000D01*
X185541000Y-97919000D02*
X188939000Y-97919000D01*
X179679000Y-97879000D02*
X183059000Y-97879000D01*
X185541000Y-97879000D02*
X188921000Y-97879000D01*
X179697000Y-97839000D02*
X183059000Y-97839000D01*
X185541000Y-97839000D02*
X188903000Y-97839000D01*
X179716000Y-97799000D02*
X183059000Y-97799000D01*
X185541000Y-97799000D02*
X188884000Y-97799000D01*
X179736000Y-97759000D02*
X183059000Y-97759000D01*
X185541000Y-97759000D02*
X188864000Y-97759000D01*
X179755000Y-97719000D02*
X183059000Y-97719000D01*
X185541000Y-97719000D02*
X188845000Y-97719000D01*
X179775000Y-97679000D02*
X183059000Y-97679000D01*
X185541000Y-97679000D02*
X188825000Y-97679000D01*
X179796000Y-97639000D02*
X183059000Y-97639000D01*
X185541000Y-97639000D02*
X188804000Y-97639000D01*
X179817000Y-97599000D02*
X183059000Y-97599000D01*
X185541000Y-97599000D02*
X188783000Y-97599000D01*
X179838000Y-97559000D02*
X183059000Y-97559000D01*
X185541000Y-97559000D02*
X188762000Y-97559000D01*
X179860000Y-97519000D02*
X183059000Y-97519000D01*
X185541000Y-97519000D02*
X188740000Y-97519000D01*
X179883000Y-97479000D02*
X183059000Y-97479000D01*
X185541000Y-97479000D02*
X188717000Y-97479000D01*
X179905000Y-97439000D02*
X183059000Y-97439000D01*
X185541000Y-97439000D02*
X188695000Y-97439000D01*
X179929000Y-97399000D02*
X183059000Y-97399000D01*
X185541000Y-97399000D02*
X188671000Y-97399000D01*
X179953000Y-97359000D02*
X183059000Y-97359000D01*
X185541000Y-97359000D02*
X188647000Y-97359000D01*
X179977000Y-97319000D02*
X183059000Y-97319000D01*
X185541000Y-97319000D02*
X188623000Y-97319000D01*
X180002000Y-97279000D02*
X183059000Y-97279000D01*
X185541000Y-97279000D02*
X188598000Y-97279000D01*
X180027000Y-97239000D02*
X183059000Y-97239000D01*
X185541000Y-97239000D02*
X188573000Y-97239000D01*
X180053000Y-97199000D02*
X183059000Y-97199000D01*
X185541000Y-97199000D02*
X188547000Y-97199000D01*
X180079000Y-97159000D02*
X183059000Y-97159000D01*
X185541000Y-97159000D02*
X188521000Y-97159000D01*
X180106000Y-97119000D02*
X183059000Y-97119000D01*
X185541000Y-97119000D02*
X188494000Y-97119000D01*
X180134000Y-97079000D02*
X183059000Y-97079000D01*
X185541000Y-97079000D02*
X188466000Y-97079000D01*
X180162000Y-97039000D02*
X183059000Y-97039000D01*
X185541000Y-97039000D02*
X188438000Y-97039000D01*
X180190000Y-96999000D02*
X183059000Y-96999000D01*
X185541000Y-96999000D02*
X188410000Y-96999000D01*
X180220000Y-96959000D02*
X183059000Y-96959000D01*
X185541000Y-96959000D02*
X188380000Y-96959000D01*
X180250000Y-96919000D02*
X183059000Y-96919000D01*
X185541000Y-96919000D02*
X188350000Y-96919000D01*
X180280000Y-96879000D02*
X183059000Y-96879000D01*
X185541000Y-96879000D02*
X188320000Y-96879000D01*
X180311000Y-96839000D02*
X183059000Y-96839000D01*
X185541000Y-96839000D02*
X188289000Y-96839000D01*
X180343000Y-96799000D02*
X183059000Y-96799000D01*
X185541000Y-96799000D02*
X188257000Y-96799000D01*
X180375000Y-96759000D02*
X183059000Y-96759000D01*
X185541000Y-96759000D02*
X188225000Y-96759000D01*
X180408000Y-96719000D02*
X183059000Y-96719000D01*
X185541000Y-96719000D02*
X188192000Y-96719000D01*
X180442000Y-96679000D02*
X183059000Y-96679000D01*
X185541000Y-96679000D02*
X188158000Y-96679000D01*
X180476000Y-96639000D02*
X183059000Y-96639000D01*
X185541000Y-96639000D02*
X188124000Y-96639000D01*
X180511000Y-96599000D02*
X183059000Y-96599000D01*
X185541000Y-96599000D02*
X188089000Y-96599000D01*
X180547000Y-96559000D02*
X183059000Y-96559000D01*
X185541000Y-96559000D02*
X188053000Y-96559000D01*
X180584000Y-96519000D02*
X183059000Y-96519000D01*
X185541000Y-96519000D02*
X188016000Y-96519000D01*
X180621000Y-96479000D02*
X183059000Y-96479000D01*
X185541000Y-96479000D02*
X187979000Y-96479000D01*
X180660000Y-96439000D02*
X183059000Y-96439000D01*
X185541000Y-96439000D02*
X187940000Y-96439000D01*
X180699000Y-96399000D02*
X183059000Y-96399000D01*
X185541000Y-96399000D02*
X187901000Y-96399000D01*
X180739000Y-96359000D02*
X183059000Y-96359000D01*
X185541000Y-96359000D02*
X187861000Y-96359000D01*
X180780000Y-96319000D02*
X183059000Y-96319000D01*
X185541000Y-96319000D02*
X187820000Y-96319000D01*
X180822000Y-96279000D02*
X183059000Y-96279000D01*
X185541000Y-96279000D02*
X187778000Y-96279000D01*
X180864000Y-96239000D02*
X187736000Y-96239000D01*
X180908000Y-96199000D02*
X187692000Y-96199000D01*
X180953000Y-96159000D02*
X187647000Y-96159000D01*
X180999000Y-96119000D02*
X187601000Y-96119000D01*
X181046000Y-96079000D02*
X187554000Y-96079000D01*
X181094000Y-96039000D02*
X187506000Y-96039000D01*
X181144000Y-95999000D02*
X187456000Y-95999000D01*
X181194000Y-95959000D02*
X187406000Y-95959000D01*
X181246000Y-95919000D02*
X187354000Y-95919000D01*
X181300000Y-95879000D02*
X187300000Y-95879000D01*
X181355000Y-95839000D02*
X187245000Y-95839000D01*
X181411000Y-95799000D02*
X187189000Y-95799000D01*
X181470000Y-95759000D02*
X187130000Y-95759000D01*
X181530000Y-95719000D02*
X187070000Y-95719000D01*
X181591000Y-95679000D02*
X187009000Y-95679000D01*
X181655000Y-95639000D02*
X186945000Y-95639000D01*
X181721000Y-95599000D02*
X186879000Y-95599000D01*
X181790000Y-95559000D02*
X186810000Y-95559000D01*
X181861000Y-95519000D02*
X186739000Y-95519000D01*
X181935000Y-95479000D02*
X186665000Y-95479000D01*
X182011000Y-95439000D02*
X186589000Y-95439000D01*
X182091000Y-95399000D02*
X186509000Y-95399000D01*
X182175000Y-95359000D02*
X186425000Y-95359000D01*
X182263000Y-95319000D02*
X186337000Y-95319000D01*
X182356000Y-95279000D02*
X186244000Y-95279000D01*
X182454000Y-95239000D02*
X186146000Y-95239000D01*
X182558000Y-95199000D02*
X186042000Y-95199000D01*
X182670000Y-95159000D02*
X185930000Y-95159000D01*
X182790000Y-95119000D02*
X185810000Y-95119000D01*
X182922000Y-95079000D02*
X185678000Y-95079000D01*
X183070000Y-95039000D02*
X185530000Y-95039000D01*
X183238000Y-94999000D02*
X185362000Y-94999000D01*
X183438000Y-94959000D02*
X185162000Y-94959000D01*
X183701000Y-94919000D02*
X184899000Y-94919000D01*
X181425000Y-105479646D02*
X181425000Y-104479646D01*
X180925000Y-104979646D02*
X181925000Y-104979646D01*
%TO.C,C5*%
X200620000Y-78000000D02*
G75*
G03*
X200620000Y-78000000I-5120000J0D01*
G01*
X200580000Y-78000000D02*
X190420000Y-78000000D01*
X200580000Y-78040000D02*
X190420000Y-78040000D01*
X200580000Y-78080000D02*
X190420000Y-78080000D01*
X200579000Y-78120000D02*
X190421000Y-78120000D01*
X200578000Y-78160000D02*
X190422000Y-78160000D01*
X200577000Y-78200000D02*
X190423000Y-78200000D01*
X200575000Y-78240000D02*
X190425000Y-78240000D01*
X200573000Y-78280000D02*
X190427000Y-78280000D01*
X200570000Y-78320000D02*
X190430000Y-78320000D01*
X200568000Y-78360000D02*
X190432000Y-78360000D01*
X200565000Y-78400000D02*
X190435000Y-78400000D01*
X200562000Y-78440000D02*
X190438000Y-78440000D01*
X200558000Y-78480000D02*
X190442000Y-78480000D01*
X200554000Y-78520000D02*
X190446000Y-78520000D01*
X200550000Y-78560000D02*
X190450000Y-78560000D01*
X200545000Y-78600000D02*
X190455000Y-78600000D01*
X200540000Y-78640000D02*
X190460000Y-78640000D01*
X200535000Y-78680000D02*
X190465000Y-78680000D01*
X200530000Y-78721000D02*
X190470000Y-78721000D01*
X200524000Y-78761000D02*
X190476000Y-78761000D01*
X200518000Y-78801000D02*
X190482000Y-78801000D01*
X200511000Y-78841000D02*
X190489000Y-78841000D01*
X200504000Y-78881000D02*
X190496000Y-78881000D01*
X200497000Y-78921000D02*
X190503000Y-78921000D01*
X200490000Y-78961000D02*
X190510000Y-78961000D01*
X200482000Y-79001000D02*
X190518000Y-79001000D01*
X200474000Y-79041000D02*
X190526000Y-79041000D01*
X200465000Y-79081000D02*
X190535000Y-79081000D01*
X200456000Y-79121000D02*
X190544000Y-79121000D01*
X200447000Y-79161000D02*
X190553000Y-79161000D01*
X200438000Y-79201000D02*
X190562000Y-79201000D01*
X200428000Y-79241000D02*
X190572000Y-79241000D01*
X200418000Y-79281000D02*
X196741000Y-79281000D01*
X194259000Y-79281000D02*
X190582000Y-79281000D01*
X200407000Y-79321000D02*
X196741000Y-79321000D01*
X194259000Y-79321000D02*
X190593000Y-79321000D01*
X200397000Y-79361000D02*
X196741000Y-79361000D01*
X194259000Y-79361000D02*
X190603000Y-79361000D01*
X200385000Y-79401000D02*
X196741000Y-79401000D01*
X194259000Y-79401000D02*
X190615000Y-79401000D01*
X200374000Y-79441000D02*
X196741000Y-79441000D01*
X194259000Y-79441000D02*
X190626000Y-79441000D01*
X200362000Y-79481000D02*
X196741000Y-79481000D01*
X194259000Y-79481000D02*
X190638000Y-79481000D01*
X200350000Y-79521000D02*
X196741000Y-79521000D01*
X194259000Y-79521000D02*
X190650000Y-79521000D01*
X200337000Y-79561000D02*
X196741000Y-79561000D01*
X194259000Y-79561000D02*
X190663000Y-79561000D01*
X200324000Y-79601000D02*
X196741000Y-79601000D01*
X194259000Y-79601000D02*
X190676000Y-79601000D01*
X200311000Y-79641000D02*
X196741000Y-79641000D01*
X194259000Y-79641000D02*
X190689000Y-79641000D01*
X200297000Y-79681000D02*
X196741000Y-79681000D01*
X194259000Y-79681000D02*
X190703000Y-79681000D01*
X200283000Y-79721000D02*
X196741000Y-79721000D01*
X194259000Y-79721000D02*
X190717000Y-79721000D01*
X200268000Y-79761000D02*
X196741000Y-79761000D01*
X194259000Y-79761000D02*
X190732000Y-79761000D01*
X200254000Y-79801000D02*
X196741000Y-79801000D01*
X194259000Y-79801000D02*
X190746000Y-79801000D01*
X200238000Y-79841000D02*
X196741000Y-79841000D01*
X194259000Y-79841000D02*
X190762000Y-79841000D01*
X200223000Y-79881000D02*
X196741000Y-79881000D01*
X194259000Y-79881000D02*
X190777000Y-79881000D01*
X200207000Y-79921000D02*
X196741000Y-79921000D01*
X194259000Y-79921000D02*
X190793000Y-79921000D01*
X200190000Y-79961000D02*
X196741000Y-79961000D01*
X194259000Y-79961000D02*
X190810000Y-79961000D01*
X200174000Y-80001000D02*
X196741000Y-80001000D01*
X194259000Y-80001000D02*
X190826000Y-80001000D01*
X200157000Y-80041000D02*
X196741000Y-80041000D01*
X194259000Y-80041000D02*
X190843000Y-80041000D01*
X200139000Y-80081000D02*
X196741000Y-80081000D01*
X194259000Y-80081000D02*
X190861000Y-80081000D01*
X200121000Y-80121000D02*
X196741000Y-80121000D01*
X194259000Y-80121000D02*
X190879000Y-80121000D01*
X200103000Y-80161000D02*
X196741000Y-80161000D01*
X194259000Y-80161000D02*
X190897000Y-80161000D01*
X200084000Y-80201000D02*
X196741000Y-80201000D01*
X194259000Y-80201000D02*
X190916000Y-80201000D01*
X200064000Y-80241000D02*
X196741000Y-80241000D01*
X194259000Y-80241000D02*
X190936000Y-80241000D01*
X200045000Y-80281000D02*
X196741000Y-80281000D01*
X194259000Y-80281000D02*
X190955000Y-80281000D01*
X200025000Y-80321000D02*
X196741000Y-80321000D01*
X194259000Y-80321000D02*
X190975000Y-80321000D01*
X200004000Y-80361000D02*
X196741000Y-80361000D01*
X194259000Y-80361000D02*
X190996000Y-80361000D01*
X199983000Y-80401000D02*
X196741000Y-80401000D01*
X194259000Y-80401000D02*
X191017000Y-80401000D01*
X199962000Y-80441000D02*
X196741000Y-80441000D01*
X194259000Y-80441000D02*
X191038000Y-80441000D01*
X199940000Y-80481000D02*
X196741000Y-80481000D01*
X194259000Y-80481000D02*
X191060000Y-80481000D01*
X199917000Y-80521000D02*
X196741000Y-80521000D01*
X194259000Y-80521000D02*
X191083000Y-80521000D01*
X199895000Y-80561000D02*
X196741000Y-80561000D01*
X194259000Y-80561000D02*
X191105000Y-80561000D01*
X199871000Y-80601000D02*
X196741000Y-80601000D01*
X194259000Y-80601000D02*
X191129000Y-80601000D01*
X199847000Y-80641000D02*
X196741000Y-80641000D01*
X194259000Y-80641000D02*
X191153000Y-80641000D01*
X199823000Y-80681000D02*
X196741000Y-80681000D01*
X194259000Y-80681000D02*
X191177000Y-80681000D01*
X199798000Y-80721000D02*
X196741000Y-80721000D01*
X194259000Y-80721000D02*
X191202000Y-80721000D01*
X199773000Y-80761000D02*
X196741000Y-80761000D01*
X194259000Y-80761000D02*
X191227000Y-80761000D01*
X199747000Y-80801000D02*
X196741000Y-80801000D01*
X194259000Y-80801000D02*
X191253000Y-80801000D01*
X199721000Y-80841000D02*
X196741000Y-80841000D01*
X194259000Y-80841000D02*
X191279000Y-80841000D01*
X199694000Y-80881000D02*
X196741000Y-80881000D01*
X194259000Y-80881000D02*
X191306000Y-80881000D01*
X199666000Y-80921000D02*
X196741000Y-80921000D01*
X194259000Y-80921000D02*
X191334000Y-80921000D01*
X199638000Y-80961000D02*
X196741000Y-80961000D01*
X194259000Y-80961000D02*
X191362000Y-80961000D01*
X199610000Y-81001000D02*
X196741000Y-81001000D01*
X194259000Y-81001000D02*
X191390000Y-81001000D01*
X199580000Y-81041000D02*
X196741000Y-81041000D01*
X194259000Y-81041000D02*
X191420000Y-81041000D01*
X199550000Y-81081000D02*
X196741000Y-81081000D01*
X194259000Y-81081000D02*
X191450000Y-81081000D01*
X199520000Y-81121000D02*
X196741000Y-81121000D01*
X194259000Y-81121000D02*
X191480000Y-81121000D01*
X199489000Y-81161000D02*
X196741000Y-81161000D01*
X194259000Y-81161000D02*
X191511000Y-81161000D01*
X199457000Y-81201000D02*
X196741000Y-81201000D01*
X194259000Y-81201000D02*
X191543000Y-81201000D01*
X199425000Y-81241000D02*
X196741000Y-81241000D01*
X194259000Y-81241000D02*
X191575000Y-81241000D01*
X199392000Y-81281000D02*
X196741000Y-81281000D01*
X194259000Y-81281000D02*
X191608000Y-81281000D01*
X199358000Y-81321000D02*
X196741000Y-81321000D01*
X194259000Y-81321000D02*
X191642000Y-81321000D01*
X199324000Y-81361000D02*
X196741000Y-81361000D01*
X194259000Y-81361000D02*
X191676000Y-81361000D01*
X199289000Y-81401000D02*
X196741000Y-81401000D01*
X194259000Y-81401000D02*
X191711000Y-81401000D01*
X199253000Y-81441000D02*
X196741000Y-81441000D01*
X194259000Y-81441000D02*
X191747000Y-81441000D01*
X199216000Y-81481000D02*
X196741000Y-81481000D01*
X194259000Y-81481000D02*
X191784000Y-81481000D01*
X199179000Y-81521000D02*
X196741000Y-81521000D01*
X194259000Y-81521000D02*
X191821000Y-81521000D01*
X199140000Y-81561000D02*
X196741000Y-81561000D01*
X194259000Y-81561000D02*
X191860000Y-81561000D01*
X199101000Y-81601000D02*
X196741000Y-81601000D01*
X194259000Y-81601000D02*
X191899000Y-81601000D01*
X199061000Y-81641000D02*
X196741000Y-81641000D01*
X194259000Y-81641000D02*
X191939000Y-81641000D01*
X199020000Y-81681000D02*
X196741000Y-81681000D01*
X194259000Y-81681000D02*
X191980000Y-81681000D01*
X198978000Y-81721000D02*
X196741000Y-81721000D01*
X194259000Y-81721000D02*
X192022000Y-81721000D01*
X198936000Y-81761000D02*
X192064000Y-81761000D01*
X198892000Y-81801000D02*
X192108000Y-81801000D01*
X198847000Y-81841000D02*
X192153000Y-81841000D01*
X198801000Y-81881000D02*
X192199000Y-81881000D01*
X198754000Y-81921000D02*
X192246000Y-81921000D01*
X198706000Y-81961000D02*
X192294000Y-81961000D01*
X198656000Y-82001000D02*
X192344000Y-82001000D01*
X198606000Y-82041000D02*
X192394000Y-82041000D01*
X198554000Y-82081000D02*
X192446000Y-82081000D01*
X198500000Y-82121000D02*
X192500000Y-82121000D01*
X198445000Y-82161000D02*
X192555000Y-82161000D01*
X198389000Y-82201000D02*
X192611000Y-82201000D01*
X198330000Y-82241000D02*
X192670000Y-82241000D01*
X198270000Y-82281000D02*
X192730000Y-82281000D01*
X198209000Y-82321000D02*
X192791000Y-82321000D01*
X198145000Y-82361000D02*
X192855000Y-82361000D01*
X198079000Y-82401000D02*
X192921000Y-82401000D01*
X198010000Y-82441000D02*
X192990000Y-82441000D01*
X197939000Y-82481000D02*
X193061000Y-82481000D01*
X197865000Y-82521000D02*
X193135000Y-82521000D01*
X197789000Y-82561000D02*
X193211000Y-82561000D01*
X197709000Y-82601000D02*
X193291000Y-82601000D01*
X197625000Y-82641000D02*
X193375000Y-82641000D01*
X197537000Y-82681000D02*
X193463000Y-82681000D01*
X197444000Y-82721000D02*
X193556000Y-82721000D01*
X197346000Y-82761000D02*
X193654000Y-82761000D01*
X197242000Y-82801000D02*
X193758000Y-82801000D01*
X197130000Y-82841000D02*
X193870000Y-82841000D01*
X197010000Y-82881000D02*
X193990000Y-82881000D01*
X196878000Y-82921000D02*
X194122000Y-82921000D01*
X196730000Y-82961000D02*
X194270000Y-82961000D01*
X196562000Y-83001000D02*
X194438000Y-83001000D01*
X196362000Y-83041000D02*
X194638000Y-83041000D01*
X196099000Y-83081000D02*
X194901000Y-83081000D01*
X198375000Y-72520354D02*
X198375000Y-73520354D01*
X198875000Y-73020354D02*
X197875000Y-73020354D01*
%TO.C,C4*%
X200620000Y-100000000D02*
G75*
G03*
X200620000Y-100000000I-5120000J0D01*
G01*
X190420000Y-100000000D02*
X200580000Y-100000000D01*
X190420000Y-99960000D02*
X200580000Y-99960000D01*
X190420000Y-99920000D02*
X200580000Y-99920000D01*
X190421000Y-99880000D02*
X200579000Y-99880000D01*
X190422000Y-99840000D02*
X200578000Y-99840000D01*
X190423000Y-99800000D02*
X200577000Y-99800000D01*
X190425000Y-99760000D02*
X200575000Y-99760000D01*
X190427000Y-99720000D02*
X200573000Y-99720000D01*
X190430000Y-99680000D02*
X200570000Y-99680000D01*
X190432000Y-99640000D02*
X200568000Y-99640000D01*
X190435000Y-99600000D02*
X200565000Y-99600000D01*
X190438000Y-99560000D02*
X200562000Y-99560000D01*
X190442000Y-99520000D02*
X200558000Y-99520000D01*
X190446000Y-99480000D02*
X200554000Y-99480000D01*
X190450000Y-99440000D02*
X200550000Y-99440000D01*
X190455000Y-99400000D02*
X200545000Y-99400000D01*
X190460000Y-99360000D02*
X200540000Y-99360000D01*
X190465000Y-99320000D02*
X200535000Y-99320000D01*
X190470000Y-99279000D02*
X200530000Y-99279000D01*
X190476000Y-99239000D02*
X200524000Y-99239000D01*
X190482000Y-99199000D02*
X200518000Y-99199000D01*
X190489000Y-99159000D02*
X200511000Y-99159000D01*
X190496000Y-99119000D02*
X200504000Y-99119000D01*
X190503000Y-99079000D02*
X200497000Y-99079000D01*
X190510000Y-99039000D02*
X200490000Y-99039000D01*
X190518000Y-98999000D02*
X200482000Y-98999000D01*
X190526000Y-98959000D02*
X200474000Y-98959000D01*
X190535000Y-98919000D02*
X200465000Y-98919000D01*
X190544000Y-98879000D02*
X200456000Y-98879000D01*
X190553000Y-98839000D02*
X200447000Y-98839000D01*
X190562000Y-98799000D02*
X200438000Y-98799000D01*
X190572000Y-98759000D02*
X200428000Y-98759000D01*
X190582000Y-98719000D02*
X194259000Y-98719000D01*
X196741000Y-98719000D02*
X200418000Y-98719000D01*
X190593000Y-98679000D02*
X194259000Y-98679000D01*
X196741000Y-98679000D02*
X200407000Y-98679000D01*
X190603000Y-98639000D02*
X194259000Y-98639000D01*
X196741000Y-98639000D02*
X200397000Y-98639000D01*
X190615000Y-98599000D02*
X194259000Y-98599000D01*
X196741000Y-98599000D02*
X200385000Y-98599000D01*
X190626000Y-98559000D02*
X194259000Y-98559000D01*
X196741000Y-98559000D02*
X200374000Y-98559000D01*
X190638000Y-98519000D02*
X194259000Y-98519000D01*
X196741000Y-98519000D02*
X200362000Y-98519000D01*
X190650000Y-98479000D02*
X194259000Y-98479000D01*
X196741000Y-98479000D02*
X200350000Y-98479000D01*
X190663000Y-98439000D02*
X194259000Y-98439000D01*
X196741000Y-98439000D02*
X200337000Y-98439000D01*
X190676000Y-98399000D02*
X194259000Y-98399000D01*
X196741000Y-98399000D02*
X200324000Y-98399000D01*
X190689000Y-98359000D02*
X194259000Y-98359000D01*
X196741000Y-98359000D02*
X200311000Y-98359000D01*
X190703000Y-98319000D02*
X194259000Y-98319000D01*
X196741000Y-98319000D02*
X200297000Y-98319000D01*
X190717000Y-98279000D02*
X194259000Y-98279000D01*
X196741000Y-98279000D02*
X200283000Y-98279000D01*
X190732000Y-98239000D02*
X194259000Y-98239000D01*
X196741000Y-98239000D02*
X200268000Y-98239000D01*
X190746000Y-98199000D02*
X194259000Y-98199000D01*
X196741000Y-98199000D02*
X200254000Y-98199000D01*
X190762000Y-98159000D02*
X194259000Y-98159000D01*
X196741000Y-98159000D02*
X200238000Y-98159000D01*
X190777000Y-98119000D02*
X194259000Y-98119000D01*
X196741000Y-98119000D02*
X200223000Y-98119000D01*
X190793000Y-98079000D02*
X194259000Y-98079000D01*
X196741000Y-98079000D02*
X200207000Y-98079000D01*
X190810000Y-98039000D02*
X194259000Y-98039000D01*
X196741000Y-98039000D02*
X200190000Y-98039000D01*
X190826000Y-97999000D02*
X194259000Y-97999000D01*
X196741000Y-97999000D02*
X200174000Y-97999000D01*
X190843000Y-97959000D02*
X194259000Y-97959000D01*
X196741000Y-97959000D02*
X200157000Y-97959000D01*
X190861000Y-97919000D02*
X194259000Y-97919000D01*
X196741000Y-97919000D02*
X200139000Y-97919000D01*
X190879000Y-97879000D02*
X194259000Y-97879000D01*
X196741000Y-97879000D02*
X200121000Y-97879000D01*
X190897000Y-97839000D02*
X194259000Y-97839000D01*
X196741000Y-97839000D02*
X200103000Y-97839000D01*
X190916000Y-97799000D02*
X194259000Y-97799000D01*
X196741000Y-97799000D02*
X200084000Y-97799000D01*
X190936000Y-97759000D02*
X194259000Y-97759000D01*
X196741000Y-97759000D02*
X200064000Y-97759000D01*
X190955000Y-97719000D02*
X194259000Y-97719000D01*
X196741000Y-97719000D02*
X200045000Y-97719000D01*
X190975000Y-97679000D02*
X194259000Y-97679000D01*
X196741000Y-97679000D02*
X200025000Y-97679000D01*
X190996000Y-97639000D02*
X194259000Y-97639000D01*
X196741000Y-97639000D02*
X200004000Y-97639000D01*
X191017000Y-97599000D02*
X194259000Y-97599000D01*
X196741000Y-97599000D02*
X199983000Y-97599000D01*
X191038000Y-97559000D02*
X194259000Y-97559000D01*
X196741000Y-97559000D02*
X199962000Y-97559000D01*
X191060000Y-97519000D02*
X194259000Y-97519000D01*
X196741000Y-97519000D02*
X199940000Y-97519000D01*
X191083000Y-97479000D02*
X194259000Y-97479000D01*
X196741000Y-97479000D02*
X199917000Y-97479000D01*
X191105000Y-97439000D02*
X194259000Y-97439000D01*
X196741000Y-97439000D02*
X199895000Y-97439000D01*
X191129000Y-97399000D02*
X194259000Y-97399000D01*
X196741000Y-97399000D02*
X199871000Y-97399000D01*
X191153000Y-97359000D02*
X194259000Y-97359000D01*
X196741000Y-97359000D02*
X199847000Y-97359000D01*
X191177000Y-97319000D02*
X194259000Y-97319000D01*
X196741000Y-97319000D02*
X199823000Y-97319000D01*
X191202000Y-97279000D02*
X194259000Y-97279000D01*
X196741000Y-97279000D02*
X199798000Y-97279000D01*
X191227000Y-97239000D02*
X194259000Y-97239000D01*
X196741000Y-97239000D02*
X199773000Y-97239000D01*
X191253000Y-97199000D02*
X194259000Y-97199000D01*
X196741000Y-97199000D02*
X199747000Y-97199000D01*
X191279000Y-97159000D02*
X194259000Y-97159000D01*
X196741000Y-97159000D02*
X199721000Y-97159000D01*
X191306000Y-97119000D02*
X194259000Y-97119000D01*
X196741000Y-97119000D02*
X199694000Y-97119000D01*
X191334000Y-97079000D02*
X194259000Y-97079000D01*
X196741000Y-97079000D02*
X199666000Y-97079000D01*
X191362000Y-97039000D02*
X194259000Y-97039000D01*
X196741000Y-97039000D02*
X199638000Y-97039000D01*
X191390000Y-96999000D02*
X194259000Y-96999000D01*
X196741000Y-96999000D02*
X199610000Y-96999000D01*
X191420000Y-96959000D02*
X194259000Y-96959000D01*
X196741000Y-96959000D02*
X199580000Y-96959000D01*
X191450000Y-96919000D02*
X194259000Y-96919000D01*
X196741000Y-96919000D02*
X199550000Y-96919000D01*
X191480000Y-96879000D02*
X194259000Y-96879000D01*
X196741000Y-96879000D02*
X199520000Y-96879000D01*
X191511000Y-96839000D02*
X194259000Y-96839000D01*
X196741000Y-96839000D02*
X199489000Y-96839000D01*
X191543000Y-96799000D02*
X194259000Y-96799000D01*
X196741000Y-96799000D02*
X199457000Y-96799000D01*
X191575000Y-96759000D02*
X194259000Y-96759000D01*
X196741000Y-96759000D02*
X199425000Y-96759000D01*
X191608000Y-96719000D02*
X194259000Y-96719000D01*
X196741000Y-96719000D02*
X199392000Y-96719000D01*
X191642000Y-96679000D02*
X194259000Y-96679000D01*
X196741000Y-96679000D02*
X199358000Y-96679000D01*
X191676000Y-96639000D02*
X194259000Y-96639000D01*
X196741000Y-96639000D02*
X199324000Y-96639000D01*
X191711000Y-96599000D02*
X194259000Y-96599000D01*
X196741000Y-96599000D02*
X199289000Y-96599000D01*
X191747000Y-96559000D02*
X194259000Y-96559000D01*
X196741000Y-96559000D02*
X199253000Y-96559000D01*
X191784000Y-96519000D02*
X194259000Y-96519000D01*
X196741000Y-96519000D02*
X199216000Y-96519000D01*
X191821000Y-96479000D02*
X194259000Y-96479000D01*
X196741000Y-96479000D02*
X199179000Y-96479000D01*
X191860000Y-96439000D02*
X194259000Y-96439000D01*
X196741000Y-96439000D02*
X199140000Y-96439000D01*
X191899000Y-96399000D02*
X194259000Y-96399000D01*
X196741000Y-96399000D02*
X199101000Y-96399000D01*
X191939000Y-96359000D02*
X194259000Y-96359000D01*
X196741000Y-96359000D02*
X199061000Y-96359000D01*
X191980000Y-96319000D02*
X194259000Y-96319000D01*
X196741000Y-96319000D02*
X199020000Y-96319000D01*
X192022000Y-96279000D02*
X194259000Y-96279000D01*
X196741000Y-96279000D02*
X198978000Y-96279000D01*
X192064000Y-96239000D02*
X198936000Y-96239000D01*
X192108000Y-96199000D02*
X198892000Y-96199000D01*
X192153000Y-96159000D02*
X198847000Y-96159000D01*
X192199000Y-96119000D02*
X198801000Y-96119000D01*
X192246000Y-96079000D02*
X198754000Y-96079000D01*
X192294000Y-96039000D02*
X198706000Y-96039000D01*
X192344000Y-95999000D02*
X198656000Y-95999000D01*
X192394000Y-95959000D02*
X198606000Y-95959000D01*
X192446000Y-95919000D02*
X198554000Y-95919000D01*
X192500000Y-95879000D02*
X198500000Y-95879000D01*
X192555000Y-95839000D02*
X198445000Y-95839000D01*
X192611000Y-95799000D02*
X198389000Y-95799000D01*
X192670000Y-95759000D02*
X198330000Y-95759000D01*
X192730000Y-95719000D02*
X198270000Y-95719000D01*
X192791000Y-95679000D02*
X198209000Y-95679000D01*
X192855000Y-95639000D02*
X198145000Y-95639000D01*
X192921000Y-95599000D02*
X198079000Y-95599000D01*
X192990000Y-95559000D02*
X198010000Y-95559000D01*
X193061000Y-95519000D02*
X197939000Y-95519000D01*
X193135000Y-95479000D02*
X197865000Y-95479000D01*
X193211000Y-95439000D02*
X197789000Y-95439000D01*
X193291000Y-95399000D02*
X197709000Y-95399000D01*
X193375000Y-95359000D02*
X197625000Y-95359000D01*
X193463000Y-95319000D02*
X197537000Y-95319000D01*
X193556000Y-95279000D02*
X197444000Y-95279000D01*
X193654000Y-95239000D02*
X197346000Y-95239000D01*
X193758000Y-95199000D02*
X197242000Y-95199000D01*
X193870000Y-95159000D02*
X197130000Y-95159000D01*
X193990000Y-95119000D02*
X197010000Y-95119000D01*
X194122000Y-95079000D02*
X196878000Y-95079000D01*
X194270000Y-95039000D02*
X196730000Y-95039000D01*
X194438000Y-94999000D02*
X196562000Y-94999000D01*
X194638000Y-94959000D02*
X196362000Y-94959000D01*
X194901000Y-94919000D02*
X196099000Y-94919000D01*
X192625000Y-105479646D02*
X192625000Y-104479646D01*
X192125000Y-104979646D02*
X193125000Y-104979646D01*
%TO.C,C3*%
X121930000Y-83590000D02*
X121930000Y-79050000D01*
X124070000Y-83590000D02*
X124070000Y-79050000D01*
X121930000Y-83590000D02*
X121945000Y-83590000D01*
X124055000Y-83590000D02*
X124070000Y-83590000D01*
X121930000Y-79050000D02*
X121945000Y-79050000D01*
X124055000Y-79050000D02*
X124070000Y-79050000D01*
%TO.C,C2*%
X89270000Y-96570000D02*
X84730000Y-96570000D01*
X89270000Y-94430000D02*
X84730000Y-94430000D01*
X89270000Y-96570000D02*
X89270000Y-96555000D01*
X89270000Y-94445000D02*
X89270000Y-94430000D01*
X84730000Y-96570000D02*
X84730000Y-96555000D01*
X84730000Y-94445000D02*
X84730000Y-94430000D01*
%TO.C,C1*%
X82620000Y-97000000D02*
G75*
G03*
X82620000Y-97000000I-2120000J0D01*
G01*
X82580000Y-97000000D02*
X78420000Y-97000000D01*
X82580000Y-97040000D02*
X78420000Y-97040000D01*
X82579000Y-97080000D02*
X78421000Y-97080000D01*
X82577000Y-97120000D02*
X78423000Y-97120000D01*
X82574000Y-97160000D02*
X78426000Y-97160000D01*
X82571000Y-97200000D02*
X81340000Y-97200000D01*
X79660000Y-97200000D02*
X78429000Y-97200000D01*
X82567000Y-97240000D02*
X81340000Y-97240000D01*
X79660000Y-97240000D02*
X78433000Y-97240000D01*
X82562000Y-97280000D02*
X81340000Y-97280000D01*
X79660000Y-97280000D02*
X78438000Y-97280000D01*
X82556000Y-97320000D02*
X81340000Y-97320000D01*
X79660000Y-97320000D02*
X78444000Y-97320000D01*
X82550000Y-97360000D02*
X81340000Y-97360000D01*
X79660000Y-97360000D02*
X78450000Y-97360000D01*
X82542000Y-97400000D02*
X81340000Y-97400000D01*
X79660000Y-97400000D02*
X78458000Y-97400000D01*
X82534000Y-97440000D02*
X81340000Y-97440000D01*
X79660000Y-97440000D02*
X78466000Y-97440000D01*
X82525000Y-97480000D02*
X81340000Y-97480000D01*
X79660000Y-97480000D02*
X78475000Y-97480000D01*
X82516000Y-97520000D02*
X81340000Y-97520000D01*
X79660000Y-97520000D02*
X78484000Y-97520000D01*
X82505000Y-97560000D02*
X81340000Y-97560000D01*
X79660000Y-97560000D02*
X78495000Y-97560000D01*
X82494000Y-97600000D02*
X81340000Y-97600000D01*
X79660000Y-97600000D02*
X78506000Y-97600000D01*
X82482000Y-97640000D02*
X81340000Y-97640000D01*
X79660000Y-97640000D02*
X78518000Y-97640000D01*
X82468000Y-97680000D02*
X81340000Y-97680000D01*
X79660000Y-97680000D02*
X78532000Y-97680000D01*
X82454000Y-97721000D02*
X81340000Y-97721000D01*
X79660000Y-97721000D02*
X78546000Y-97721000D01*
X82440000Y-97761000D02*
X81340000Y-97761000D01*
X79660000Y-97761000D02*
X78560000Y-97761000D01*
X82424000Y-97801000D02*
X81340000Y-97801000D01*
X79660000Y-97801000D02*
X78576000Y-97801000D01*
X82407000Y-97841000D02*
X81340000Y-97841000D01*
X79660000Y-97841000D02*
X78593000Y-97841000D01*
X82389000Y-97881000D02*
X81340000Y-97881000D01*
X79660000Y-97881000D02*
X78611000Y-97881000D01*
X82370000Y-97921000D02*
X81340000Y-97921000D01*
X79660000Y-97921000D02*
X78630000Y-97921000D01*
X82351000Y-97961000D02*
X81340000Y-97961000D01*
X79660000Y-97961000D02*
X78649000Y-97961000D01*
X82330000Y-98001000D02*
X81340000Y-98001000D01*
X79660000Y-98001000D02*
X78670000Y-98001000D01*
X82308000Y-98041000D02*
X81340000Y-98041000D01*
X79660000Y-98041000D02*
X78692000Y-98041000D01*
X82285000Y-98081000D02*
X81340000Y-98081000D01*
X79660000Y-98081000D02*
X78715000Y-98081000D01*
X82260000Y-98121000D02*
X81340000Y-98121000D01*
X79660000Y-98121000D02*
X78740000Y-98121000D01*
X82235000Y-98161000D02*
X81340000Y-98161000D01*
X79660000Y-98161000D02*
X78765000Y-98161000D01*
X82208000Y-98201000D02*
X81340000Y-98201000D01*
X79660000Y-98201000D02*
X78792000Y-98201000D01*
X82180000Y-98241000D02*
X81340000Y-98241000D01*
X79660000Y-98241000D02*
X78820000Y-98241000D01*
X82150000Y-98281000D02*
X81340000Y-98281000D01*
X79660000Y-98281000D02*
X78850000Y-98281000D01*
X82119000Y-98321000D02*
X81340000Y-98321000D01*
X79660000Y-98321000D02*
X78881000Y-98321000D01*
X82087000Y-98361000D02*
X81340000Y-98361000D01*
X79660000Y-98361000D02*
X78913000Y-98361000D01*
X82052000Y-98401000D02*
X81340000Y-98401000D01*
X79660000Y-98401000D02*
X78948000Y-98401000D01*
X82016000Y-98441000D02*
X81340000Y-98441000D01*
X79660000Y-98441000D02*
X78984000Y-98441000D01*
X81978000Y-98481000D02*
X81340000Y-98481000D01*
X79660000Y-98481000D02*
X79022000Y-98481000D01*
X81938000Y-98521000D02*
X81340000Y-98521000D01*
X79660000Y-98521000D02*
X79062000Y-98521000D01*
X81896000Y-98561000D02*
X81340000Y-98561000D01*
X79660000Y-98561000D02*
X79104000Y-98561000D01*
X81851000Y-98601000D02*
X81340000Y-98601000D01*
X79660000Y-98601000D02*
X79149000Y-98601000D01*
X81804000Y-98641000D02*
X81340000Y-98641000D01*
X79660000Y-98641000D02*
X79196000Y-98641000D01*
X81754000Y-98681000D02*
X81340000Y-98681000D01*
X79660000Y-98681000D02*
X79246000Y-98681000D01*
X81700000Y-98721000D02*
X81340000Y-98721000D01*
X79660000Y-98721000D02*
X79300000Y-98721000D01*
X81642000Y-98761000D02*
X81340000Y-98761000D01*
X79660000Y-98761000D02*
X79358000Y-98761000D01*
X81580000Y-98801000D02*
X81340000Y-98801000D01*
X79660000Y-98801000D02*
X79420000Y-98801000D01*
X81513000Y-98841000D02*
X79487000Y-98841000D01*
X81440000Y-98881000D02*
X79560000Y-98881000D01*
X81359000Y-98921000D02*
X79641000Y-98921000D01*
X81268000Y-98961000D02*
X79732000Y-98961000D01*
X81164000Y-99001000D02*
X79836000Y-99001000D01*
X81037000Y-99041000D02*
X79963000Y-99041000D01*
X80870000Y-99081000D02*
X80130000Y-99081000D01*
X81695000Y-94730199D02*
X81695000Y-95130199D01*
X81895000Y-94930199D02*
X81495000Y-94930199D01*
%TO.C,R14*%
X94310000Y-71130000D02*
X94310000Y-73870000D01*
X94310000Y-73870000D02*
X100850000Y-73870000D01*
X100850000Y-73870000D02*
X100850000Y-71130000D01*
X100850000Y-71130000D02*
X94310000Y-71130000D01*
X93540000Y-72500000D02*
X94310000Y-72500000D01*
X101620000Y-72500000D02*
X100850000Y-72500000D01*
%TO.C,R13*%
X118190000Y-73870000D02*
X118190000Y-71130000D01*
X118190000Y-71130000D02*
X111650000Y-71130000D01*
X111650000Y-71130000D02*
X111650000Y-73870000D01*
X111650000Y-73870000D02*
X118190000Y-73870000D01*
X118960000Y-72500000D02*
X118190000Y-72500000D01*
X110880000Y-72500000D02*
X111650000Y-72500000D01*
%TO.C,Q4*%
X114250000Y-89300000D02*
X110400000Y-89300000D01*
X110361389Y-89309878D02*
G75*
G03*
X114250000Y-89300000I1948611J-1690122D01*
G01*
%TO.C,Q3*%
X114250000Y-94300000D02*
X110400000Y-94300000D01*
X110361389Y-94309878D02*
G75*
G03*
X114250000Y-94300000I1948611J-1690122D01*
G01*
%TO.C,Q2*%
X108800000Y-101950000D02*
X108800000Y-105800000D01*
X108809878Y-105838611D02*
G75*
G03*
X108800000Y-101950000I1690122J1948611D01*
G01*
%TO.C,Q1*%
X103800000Y-101950000D02*
X103800000Y-105800000D01*
X103809878Y-105838611D02*
G75*
G03*
X103800000Y-101950000I1690122J1948611D01*
G01*
%TO.C,TR1*%
X157012492Y-96500000D02*
G75*
G03*
X157012492Y-96500000I-10012492J0D01*
G01*
X167006249Y-96500000D02*
G75*
G03*
X167006249Y-96500000I-20006249J0D01*
G01*
%TO.C,R11*%
X115880000Y-117500000D02*
X116650000Y-117500000D01*
X123960000Y-117500000D02*
X123190000Y-117500000D01*
X116650000Y-118870000D02*
X123190000Y-118870000D01*
X116650000Y-116130000D02*
X116650000Y-118870000D01*
X123190000Y-116130000D02*
X116650000Y-116130000D01*
X123190000Y-118870000D02*
X123190000Y-116130000D01*
%TO.C,R10*%
X107500000Y-88380000D02*
X107500000Y-89150000D01*
X107500000Y-96460000D02*
X107500000Y-95690000D01*
X106130000Y-89150000D02*
X106130000Y-95690000D01*
X108870000Y-89150000D02*
X106130000Y-89150000D01*
X108870000Y-95690000D02*
X108870000Y-89150000D01*
X106130000Y-95690000D02*
X108870000Y-95690000D01*
%TO.C,R9*%
X117000000Y-94880000D02*
X117000000Y-95650000D01*
X117000000Y-102960000D02*
X117000000Y-102190000D01*
X115630000Y-95650000D02*
X115630000Y-102190000D01*
X118370000Y-95650000D02*
X115630000Y-95650000D01*
X118370000Y-102190000D02*
X118370000Y-95650000D01*
X115630000Y-102190000D02*
X118370000Y-102190000D01*
%TO.C,R8*%
X104000000Y-96620000D02*
X104000000Y-95850000D01*
X104000000Y-88540000D02*
X104000000Y-89310000D01*
X105370000Y-95850000D02*
X105370000Y-89310000D01*
X102630000Y-95850000D02*
X105370000Y-95850000D01*
X102630000Y-89310000D02*
X102630000Y-95850000D01*
X105370000Y-89310000D02*
X102630000Y-89310000D01*
%TO.C,R7*%
X80380000Y-101500000D02*
X81150000Y-101500000D01*
X88460000Y-101500000D02*
X87690000Y-101500000D01*
X81150000Y-102870000D02*
X87690000Y-102870000D01*
X81150000Y-100130000D02*
X81150000Y-102870000D01*
X87690000Y-100130000D02*
X81150000Y-100130000D01*
X87690000Y-102870000D02*
X87690000Y-100130000D01*
%TO.C,R6*%
X88620000Y-89000000D02*
X87850000Y-89000000D01*
X80540000Y-89000000D02*
X81310000Y-89000000D01*
X87850000Y-87630000D02*
X81310000Y-87630000D01*
X87850000Y-90370000D02*
X87850000Y-87630000D01*
X81310000Y-90370000D02*
X87850000Y-90370000D01*
X81310000Y-87630000D02*
X81310000Y-90370000D01*
%TO.C,R5*%
X80540000Y-85500000D02*
X81310000Y-85500000D01*
X88620000Y-85500000D02*
X87850000Y-85500000D01*
X81310000Y-86870000D02*
X87850000Y-86870000D01*
X81310000Y-84130000D02*
X81310000Y-86870000D01*
X87850000Y-84130000D02*
X81310000Y-84130000D01*
X87850000Y-86870000D02*
X87850000Y-84130000D01*
%TO.C,R4*%
X88620000Y-105000000D02*
X87850000Y-105000000D01*
X80540000Y-105000000D02*
X81310000Y-105000000D01*
X87850000Y-103630000D02*
X81310000Y-103630000D01*
X87850000Y-106370000D02*
X87850000Y-103630000D01*
X81310000Y-106370000D02*
X87850000Y-106370000D01*
X81310000Y-103630000D02*
X81310000Y-106370000D01*
%TO.C,R3*%
X88620000Y-92500000D02*
X87850000Y-92500000D01*
X80540000Y-92500000D02*
X81310000Y-92500000D01*
X87850000Y-91130000D02*
X81310000Y-91130000D01*
X87850000Y-93870000D02*
X87850000Y-91130000D01*
X81310000Y-93870000D02*
X87850000Y-93870000D01*
X81310000Y-91130000D02*
X81310000Y-93870000D01*
%TO.C,R2*%
X170380000Y-83500000D02*
X171150000Y-83500000D01*
X178460000Y-83500000D02*
X177690000Y-83500000D01*
X171150000Y-84870000D02*
X177690000Y-84870000D01*
X171150000Y-82130000D02*
X171150000Y-84870000D01*
X177690000Y-82130000D02*
X171150000Y-82130000D01*
X177690000Y-84870000D02*
X177690000Y-82130000D01*
%TO.C,R1*%
X139120000Y-70500000D02*
X138350000Y-70500000D01*
X131040000Y-70500000D02*
X131810000Y-70500000D01*
X138350000Y-69130000D02*
X131810000Y-69130000D01*
X138350000Y-71870000D02*
X138350000Y-69130000D01*
X131810000Y-71870000D02*
X138350000Y-71870000D01*
X131810000Y-69130000D02*
X131810000Y-71870000D01*
%TO.C,Q8*%
X99311000Y-65230000D02*
X99311000Y-66740000D01*
X95610000Y-65230000D02*
X95610000Y-66740000D01*
X92340000Y-66740000D02*
X102580000Y-66740000D01*
X102580000Y-65230000D02*
X102580000Y-69871000D01*
X92340000Y-65230000D02*
X92340000Y-69871000D01*
X92340000Y-69871000D02*
X102580000Y-69871000D01*
X92340000Y-65230000D02*
X102580000Y-65230000D01*
%TO.C,Q7*%
X120689000Y-124770000D02*
X120689000Y-123260000D01*
X124390000Y-124770000D02*
X124390000Y-123260000D01*
X127660000Y-123260000D02*
X117420000Y-123260000D01*
X117420000Y-124770000D02*
X117420000Y-120129000D01*
X127660000Y-124770000D02*
X127660000Y-120129000D01*
X127660000Y-120129000D02*
X117420000Y-120129000D01*
X127660000Y-124770000D02*
X117420000Y-124770000D01*
%TO.C,Q6*%
X124391000Y-65230000D02*
X124391000Y-66740000D01*
X120690000Y-65230000D02*
X120690000Y-66740000D01*
X117420000Y-66740000D02*
X127660000Y-66740000D01*
X127660000Y-65230000D02*
X127660000Y-69871000D01*
X117420000Y-65230000D02*
X117420000Y-69871000D01*
X117420000Y-69871000D02*
X127660000Y-69871000D01*
X117420000Y-65230000D02*
X127660000Y-65230000D01*
%TO.C,Q5*%
X95609000Y-124770000D02*
X95609000Y-123260000D01*
X99310000Y-124770000D02*
X99310000Y-123260000D01*
X102580000Y-123260000D02*
X92340000Y-123260000D01*
X92340000Y-124770000D02*
X92340000Y-120129000D01*
X102580000Y-124770000D02*
X102580000Y-120129000D01*
X102580000Y-120129000D02*
X92340000Y-120129000D01*
X102580000Y-124770000D02*
X92340000Y-124770000D01*
%TO.C,J2*%
X217600000Y-111850000D02*
X201900000Y-111850000D01*
X217600000Y-111850000D02*
X217600000Y-79650000D01*
X201900000Y-79650000D02*
X217600000Y-79650000D01*
X201900000Y-111850000D02*
X201900000Y-79650000D01*
X204150000Y-112100000D02*
X201650000Y-112100000D01*
X201650000Y-112100000D02*
X201650000Y-109600000D01*
%TO.C,J1*%
X76850000Y-114600000D02*
X61150000Y-114600000D01*
X76850000Y-114600000D02*
X76850000Y-82400000D01*
X61150000Y-82400000D02*
X76850000Y-82400000D01*
X61150000Y-114600000D02*
X61150000Y-82400000D01*
X63400000Y-114850000D02*
X60900000Y-114850000D01*
X60900000Y-114850000D02*
X60900000Y-112350000D01*
%TO.C,F1*%
X63730000Y-74880000D02*
X83970000Y-74880000D01*
X63730000Y-74880000D02*
X63730000Y-81120000D01*
X83970000Y-81120000D02*
X83970000Y-74880000D01*
X83970000Y-81120000D02*
X63730000Y-81120000D01*
X83450000Y-75500000D02*
X83450000Y-80500000D01*
X64250000Y-75500000D02*
X83450000Y-75500000D01*
X64250000Y-80500000D02*
X64250000Y-75500000D01*
X83450000Y-80500000D02*
X64250000Y-80500000D01*
%TO.C,C12*%
X202205000Y-117270000D02*
X201580000Y-117270000D01*
X204420000Y-117270000D02*
X203795000Y-117270000D01*
X202205000Y-113230000D02*
X201580000Y-113230000D01*
X204420000Y-113230000D02*
X203795000Y-113230000D01*
X201580000Y-113230000D02*
X201580000Y-117270000D01*
X204420000Y-113230000D02*
X204420000Y-117270000D01*
%TO.C,C11*%
X187675000Y-73020354D02*
X186675000Y-73020354D01*
X187175000Y-72520354D02*
X187175000Y-73520354D01*
X184899000Y-83081000D02*
X183701000Y-83081000D01*
X185162000Y-83041000D02*
X183438000Y-83041000D01*
X185362000Y-83001000D02*
X183238000Y-83001000D01*
X185530000Y-82961000D02*
X183070000Y-82961000D01*
X185678000Y-82921000D02*
X182922000Y-82921000D01*
X185810000Y-82881000D02*
X182790000Y-82881000D01*
X185930000Y-82841000D02*
X182670000Y-82841000D01*
X186042000Y-82801000D02*
X182558000Y-82801000D01*
X186146000Y-82761000D02*
X182454000Y-82761000D01*
X186244000Y-82721000D02*
X182356000Y-82721000D01*
X186337000Y-82681000D02*
X182263000Y-82681000D01*
X186425000Y-82641000D02*
X182175000Y-82641000D01*
X186509000Y-82601000D02*
X182091000Y-82601000D01*
X186589000Y-82561000D02*
X182011000Y-82561000D01*
X186665000Y-82521000D02*
X181935000Y-82521000D01*
X186739000Y-82481000D02*
X181861000Y-82481000D01*
X186810000Y-82441000D02*
X181790000Y-82441000D01*
X186879000Y-82401000D02*
X181721000Y-82401000D01*
X186945000Y-82361000D02*
X181655000Y-82361000D01*
X187009000Y-82321000D02*
X181591000Y-82321000D01*
X187070000Y-82281000D02*
X181530000Y-82281000D01*
X187130000Y-82241000D02*
X181470000Y-82241000D01*
X187189000Y-82201000D02*
X181411000Y-82201000D01*
X187245000Y-82161000D02*
X181355000Y-82161000D01*
X187300000Y-82121000D02*
X181300000Y-82121000D01*
X187354000Y-82081000D02*
X181246000Y-82081000D01*
X187406000Y-82041000D02*
X181194000Y-82041000D01*
X187456000Y-82001000D02*
X181144000Y-82001000D01*
X187506000Y-81961000D02*
X181094000Y-81961000D01*
X187554000Y-81921000D02*
X181046000Y-81921000D01*
X187601000Y-81881000D02*
X180999000Y-81881000D01*
X187647000Y-81841000D02*
X180953000Y-81841000D01*
X187692000Y-81801000D02*
X180908000Y-81801000D01*
X187736000Y-81761000D02*
X180864000Y-81761000D01*
X183059000Y-81721000D02*
X180822000Y-81721000D01*
X187778000Y-81721000D02*
X185541000Y-81721000D01*
X183059000Y-81681000D02*
X180780000Y-81681000D01*
X187820000Y-81681000D02*
X185541000Y-81681000D01*
X183059000Y-81641000D02*
X180739000Y-81641000D01*
X187861000Y-81641000D02*
X185541000Y-81641000D01*
X183059000Y-81601000D02*
X180699000Y-81601000D01*
X187901000Y-81601000D02*
X185541000Y-81601000D01*
X183059000Y-81561000D02*
X180660000Y-81561000D01*
X187940000Y-81561000D02*
X185541000Y-81561000D01*
X183059000Y-81521000D02*
X180621000Y-81521000D01*
X187979000Y-81521000D02*
X185541000Y-81521000D01*
X183059000Y-81481000D02*
X180584000Y-81481000D01*
X188016000Y-81481000D02*
X185541000Y-81481000D01*
X183059000Y-81441000D02*
X180547000Y-81441000D01*
X188053000Y-81441000D02*
X185541000Y-81441000D01*
X183059000Y-81401000D02*
X180511000Y-81401000D01*
X188089000Y-81401000D02*
X185541000Y-81401000D01*
X183059000Y-81361000D02*
X180476000Y-81361000D01*
X188124000Y-81361000D02*
X185541000Y-81361000D01*
X183059000Y-81321000D02*
X180442000Y-81321000D01*
X188158000Y-81321000D02*
X185541000Y-81321000D01*
X183059000Y-81281000D02*
X180408000Y-81281000D01*
X188192000Y-81281000D02*
X185541000Y-81281000D01*
X183059000Y-81241000D02*
X180375000Y-81241000D01*
X188225000Y-81241000D02*
X185541000Y-81241000D01*
X183059000Y-81201000D02*
X180343000Y-81201000D01*
X188257000Y-81201000D02*
X185541000Y-81201000D01*
X183059000Y-81161000D02*
X180311000Y-81161000D01*
X188289000Y-81161000D02*
X185541000Y-81161000D01*
X183059000Y-81121000D02*
X180280000Y-81121000D01*
X188320000Y-81121000D02*
X185541000Y-81121000D01*
X183059000Y-81081000D02*
X180250000Y-81081000D01*
X188350000Y-81081000D02*
X185541000Y-81081000D01*
X183059000Y-81041000D02*
X180220000Y-81041000D01*
X188380000Y-81041000D02*
X185541000Y-81041000D01*
X183059000Y-81001000D02*
X180190000Y-81001000D01*
X188410000Y-81001000D02*
X185541000Y-81001000D01*
X183059000Y-80961000D02*
X180162000Y-80961000D01*
X188438000Y-80961000D02*
X185541000Y-80961000D01*
X183059000Y-80921000D02*
X180134000Y-80921000D01*
X188466000Y-80921000D02*
X185541000Y-80921000D01*
X183059000Y-80881000D02*
X180106000Y-80881000D01*
X188494000Y-80881000D02*
X185541000Y-80881000D01*
X183059000Y-80841000D02*
X180079000Y-80841000D01*
X188521000Y-80841000D02*
X185541000Y-80841000D01*
X183059000Y-80801000D02*
X180053000Y-80801000D01*
X188547000Y-80801000D02*
X185541000Y-80801000D01*
X183059000Y-80761000D02*
X180027000Y-80761000D01*
X188573000Y-80761000D02*
X185541000Y-80761000D01*
X183059000Y-80721000D02*
X180002000Y-80721000D01*
X188598000Y-80721000D02*
X185541000Y-80721000D01*
X183059000Y-80681000D02*
X179977000Y-80681000D01*
X188623000Y-80681000D02*
X185541000Y-80681000D01*
X183059000Y-80641000D02*
X179953000Y-80641000D01*
X188647000Y-80641000D02*
X185541000Y-80641000D01*
X183059000Y-80601000D02*
X179929000Y-80601000D01*
X188671000Y-80601000D02*
X185541000Y-80601000D01*
X183059000Y-80561000D02*
X179905000Y-80561000D01*
X188695000Y-80561000D02*
X185541000Y-80561000D01*
X183059000Y-80521000D02*
X179883000Y-80521000D01*
X188717000Y-80521000D02*
X185541000Y-80521000D01*
X183059000Y-80481000D02*
X179860000Y-80481000D01*
X188740000Y-80481000D02*
X185541000Y-80481000D01*
X183059000Y-80441000D02*
X179838000Y-80441000D01*
X188762000Y-80441000D02*
X185541000Y-80441000D01*
X183059000Y-80401000D02*
X179817000Y-80401000D01*
X188783000Y-80401000D02*
X185541000Y-80401000D01*
X183059000Y-80361000D02*
X179796000Y-80361000D01*
X188804000Y-80361000D02*
X185541000Y-80361000D01*
X183059000Y-80321000D02*
X179775000Y-80321000D01*
X188825000Y-80321000D02*
X185541000Y-80321000D01*
X183059000Y-80281000D02*
X179755000Y-80281000D01*
X188845000Y-80281000D02*
X185541000Y-80281000D01*
X183059000Y-80241000D02*
X179736000Y-80241000D01*
X188864000Y-80241000D02*
X185541000Y-80241000D01*
X183059000Y-80201000D02*
X179716000Y-80201000D01*
X188884000Y-80201000D02*
X185541000Y-80201000D01*
X183059000Y-80161000D02*
X179697000Y-80161000D01*
X188903000Y-80161000D02*
X185541000Y-80161000D01*
X183059000Y-80121000D02*
X179679000Y-80121000D01*
X188921000Y-80121000D02*
X185541000Y-80121000D01*
X183059000Y-80081000D02*
X179661000Y-80081000D01*
X188939000Y-80081000D02*
X185541000Y-80081000D01*
X183059000Y-80041000D02*
X179643000Y-80041000D01*
X188957000Y-80041000D02*
X185541000Y-80041000D01*
X183059000Y-80001000D02*
X179626000Y-80001000D01*
X188974000Y-80001000D02*
X185541000Y-80001000D01*
X183059000Y-79961000D02*
X179610000Y-79961000D01*
X188990000Y-79961000D02*
X185541000Y-79961000D01*
X183059000Y-79921000D02*
X179593000Y-79921000D01*
X189007000Y-79921000D02*
X185541000Y-79921000D01*
X183059000Y-79881000D02*
X179577000Y-79881000D01*
X189023000Y-79881000D02*
X185541000Y-79881000D01*
X183059000Y-79841000D02*
X179562000Y-79841000D01*
X189038000Y-79841000D02*
X185541000Y-79841000D01*
X183059000Y-79801000D02*
X179546000Y-79801000D01*
X189054000Y-79801000D02*
X185541000Y-79801000D01*
X183059000Y-79761000D02*
X179532000Y-79761000D01*
X189068000Y-79761000D02*
X185541000Y-79761000D01*
X183059000Y-79721000D02*
X179517000Y-79721000D01*
X189083000Y-79721000D02*
X185541000Y-79721000D01*
X183059000Y-79681000D02*
X179503000Y-79681000D01*
X189097000Y-79681000D02*
X185541000Y-79681000D01*
X183059000Y-79641000D02*
X179489000Y-79641000D01*
X189111000Y-79641000D02*
X185541000Y-79641000D01*
X183059000Y-79601000D02*
X179476000Y-79601000D01*
X189124000Y-79601000D02*
X185541000Y-79601000D01*
X183059000Y-79561000D02*
X179463000Y-79561000D01*
X189137000Y-79561000D02*
X185541000Y-79561000D01*
X183059000Y-79521000D02*
X179450000Y-79521000D01*
X189150000Y-79521000D02*
X185541000Y-79521000D01*
X183059000Y-79481000D02*
X179438000Y-79481000D01*
X189162000Y-79481000D02*
X185541000Y-79481000D01*
X183059000Y-79441000D02*
X179426000Y-79441000D01*
X189174000Y-79441000D02*
X185541000Y-79441000D01*
X183059000Y-79401000D02*
X179415000Y-79401000D01*
X189185000Y-79401000D02*
X185541000Y-79401000D01*
X183059000Y-79361000D02*
X179403000Y-79361000D01*
X189197000Y-79361000D02*
X185541000Y-79361000D01*
X183059000Y-79321000D02*
X179393000Y-79321000D01*
X189207000Y-79321000D02*
X185541000Y-79321000D01*
X183059000Y-79281000D02*
X179382000Y-79281000D01*
X189218000Y-79281000D02*
X185541000Y-79281000D01*
X189228000Y-79241000D02*
X179372000Y-79241000D01*
X189238000Y-79201000D02*
X179362000Y-79201000D01*
X189247000Y-79161000D02*
X179353000Y-79161000D01*
X189256000Y-79121000D02*
X179344000Y-79121000D01*
X189265000Y-79081000D02*
X179335000Y-79081000D01*
X189274000Y-79041000D02*
X179326000Y-79041000D01*
X189282000Y-79001000D02*
X179318000Y-79001000D01*
X189290000Y-78961000D02*
X179310000Y-78961000D01*
X189297000Y-78921000D02*
X179303000Y-78921000D01*
X189304000Y-78881000D02*
X179296000Y-78881000D01*
X189311000Y-78841000D02*
X179289000Y-78841000D01*
X189318000Y-78801000D02*
X179282000Y-78801000D01*
X189324000Y-78761000D02*
X179276000Y-78761000D01*
X189330000Y-78721000D02*
X179270000Y-78721000D01*
X189335000Y-78680000D02*
X179265000Y-78680000D01*
X189340000Y-78640000D02*
X179260000Y-78640000D01*
X189345000Y-78600000D02*
X179255000Y-78600000D01*
X189350000Y-78560000D02*
X179250000Y-78560000D01*
X189354000Y-78520000D02*
X179246000Y-78520000D01*
X189358000Y-78480000D02*
X179242000Y-78480000D01*
X189362000Y-78440000D02*
X179238000Y-78440000D01*
X189365000Y-78400000D02*
X179235000Y-78400000D01*
X189368000Y-78360000D02*
X179232000Y-78360000D01*
X189370000Y-78320000D02*
X179230000Y-78320000D01*
X189373000Y-78280000D02*
X179227000Y-78280000D01*
X189375000Y-78240000D02*
X179225000Y-78240000D01*
X189377000Y-78200000D02*
X179223000Y-78200000D01*
X189378000Y-78160000D02*
X179222000Y-78160000D01*
X189379000Y-78120000D02*
X179221000Y-78120000D01*
X189380000Y-78080000D02*
X179220000Y-78080000D01*
X189380000Y-78040000D02*
X179220000Y-78040000D01*
X189380000Y-78000000D02*
X179220000Y-78000000D01*
X189420000Y-78000000D02*
G75*
G03*
X189420000Y-78000000I-5120000J0D01*
G01*
%TO.C,C10*%
X187675000Y-106220354D02*
X186675000Y-106220354D01*
X187175000Y-105720354D02*
X187175000Y-106720354D01*
X184899000Y-116281000D02*
X183701000Y-116281000D01*
X185162000Y-116241000D02*
X183438000Y-116241000D01*
X185362000Y-116201000D02*
X183238000Y-116201000D01*
X185530000Y-116161000D02*
X183070000Y-116161000D01*
X185678000Y-116121000D02*
X182922000Y-116121000D01*
X185810000Y-116081000D02*
X182790000Y-116081000D01*
X185930000Y-116041000D02*
X182670000Y-116041000D01*
X186042000Y-116001000D02*
X182558000Y-116001000D01*
X186146000Y-115961000D02*
X182454000Y-115961000D01*
X186244000Y-115921000D02*
X182356000Y-115921000D01*
X186337000Y-115881000D02*
X182263000Y-115881000D01*
X186425000Y-115841000D02*
X182175000Y-115841000D01*
X186509000Y-115801000D02*
X182091000Y-115801000D01*
X186589000Y-115761000D02*
X182011000Y-115761000D01*
X186665000Y-115721000D02*
X181935000Y-115721000D01*
X186739000Y-115681000D02*
X181861000Y-115681000D01*
X186810000Y-115641000D02*
X181790000Y-115641000D01*
X186879000Y-115601000D02*
X181721000Y-115601000D01*
X186945000Y-115561000D02*
X181655000Y-115561000D01*
X187009000Y-115521000D02*
X181591000Y-115521000D01*
X187070000Y-115481000D02*
X181530000Y-115481000D01*
X187130000Y-115441000D02*
X181470000Y-115441000D01*
X187189000Y-115401000D02*
X181411000Y-115401000D01*
X187245000Y-115361000D02*
X181355000Y-115361000D01*
X187300000Y-115321000D02*
X181300000Y-115321000D01*
X187354000Y-115281000D02*
X181246000Y-115281000D01*
X187406000Y-115241000D02*
X181194000Y-115241000D01*
X187456000Y-115201000D02*
X181144000Y-115201000D01*
X187506000Y-115161000D02*
X181094000Y-115161000D01*
X187554000Y-115121000D02*
X181046000Y-115121000D01*
X187601000Y-115081000D02*
X180999000Y-115081000D01*
X187647000Y-115041000D02*
X180953000Y-115041000D01*
X187692000Y-115001000D02*
X180908000Y-115001000D01*
X187736000Y-114961000D02*
X180864000Y-114961000D01*
X183059000Y-114921000D02*
X180822000Y-114921000D01*
X187778000Y-114921000D02*
X185541000Y-114921000D01*
X183059000Y-114881000D02*
X180780000Y-114881000D01*
X187820000Y-114881000D02*
X185541000Y-114881000D01*
X183059000Y-114841000D02*
X180739000Y-114841000D01*
X187861000Y-114841000D02*
X185541000Y-114841000D01*
X183059000Y-114801000D02*
X180699000Y-114801000D01*
X187901000Y-114801000D02*
X185541000Y-114801000D01*
X183059000Y-114761000D02*
X180660000Y-114761000D01*
X187940000Y-114761000D02*
X185541000Y-114761000D01*
X183059000Y-114721000D02*
X180621000Y-114721000D01*
X187979000Y-114721000D02*
X185541000Y-114721000D01*
X183059000Y-114681000D02*
X180584000Y-114681000D01*
X188016000Y-114681000D02*
X185541000Y-114681000D01*
X183059000Y-114641000D02*
X180547000Y-114641000D01*
X188053000Y-114641000D02*
X185541000Y-114641000D01*
X183059000Y-114601000D02*
X180511000Y-114601000D01*
X188089000Y-114601000D02*
X185541000Y-114601000D01*
X183059000Y-114561000D02*
X180476000Y-114561000D01*
X188124000Y-114561000D02*
X185541000Y-114561000D01*
X183059000Y-114521000D02*
X180442000Y-114521000D01*
X188158000Y-114521000D02*
X185541000Y-114521000D01*
X183059000Y-114481000D02*
X180408000Y-114481000D01*
X188192000Y-114481000D02*
X185541000Y-114481000D01*
X183059000Y-114441000D02*
X180375000Y-114441000D01*
X188225000Y-114441000D02*
X185541000Y-114441000D01*
X183059000Y-114401000D02*
X180343000Y-114401000D01*
X188257000Y-114401000D02*
X185541000Y-114401000D01*
X183059000Y-114361000D02*
X180311000Y-114361000D01*
X188289000Y-114361000D02*
X185541000Y-114361000D01*
X183059000Y-114321000D02*
X180280000Y-114321000D01*
X188320000Y-114321000D02*
X185541000Y-114321000D01*
X183059000Y-114281000D02*
X180250000Y-114281000D01*
X188350000Y-114281000D02*
X185541000Y-114281000D01*
X183059000Y-114241000D02*
X180220000Y-114241000D01*
X188380000Y-114241000D02*
X185541000Y-114241000D01*
X183059000Y-114201000D02*
X180190000Y-114201000D01*
X188410000Y-114201000D02*
X185541000Y-114201000D01*
X183059000Y-114161000D02*
X180162000Y-114161000D01*
X188438000Y-114161000D02*
X185541000Y-114161000D01*
X183059000Y-114121000D02*
X180134000Y-114121000D01*
X188466000Y-114121000D02*
X185541000Y-114121000D01*
X183059000Y-114081000D02*
X180106000Y-114081000D01*
X188494000Y-114081000D02*
X185541000Y-114081000D01*
X183059000Y-114041000D02*
X180079000Y-114041000D01*
X188521000Y-114041000D02*
X185541000Y-114041000D01*
X183059000Y-114001000D02*
X180053000Y-114001000D01*
X188547000Y-114001000D02*
X185541000Y-114001000D01*
X183059000Y-113961000D02*
X180027000Y-113961000D01*
X188573000Y-113961000D02*
X185541000Y-113961000D01*
X183059000Y-113921000D02*
X180002000Y-113921000D01*
X188598000Y-113921000D02*
X185541000Y-113921000D01*
X183059000Y-113881000D02*
X179977000Y-113881000D01*
X188623000Y-113881000D02*
X185541000Y-113881000D01*
X183059000Y-113841000D02*
X179953000Y-113841000D01*
X188647000Y-113841000D02*
X185541000Y-113841000D01*
X183059000Y-113801000D02*
X179929000Y-113801000D01*
X188671000Y-113801000D02*
X185541000Y-113801000D01*
X183059000Y-113761000D02*
X179905000Y-113761000D01*
X188695000Y-113761000D02*
X185541000Y-113761000D01*
X183059000Y-113721000D02*
X179883000Y-113721000D01*
X188717000Y-113721000D02*
X185541000Y-113721000D01*
X183059000Y-113681000D02*
X179860000Y-113681000D01*
X188740000Y-113681000D02*
X185541000Y-113681000D01*
X183059000Y-113641000D02*
X179838000Y-113641000D01*
X188762000Y-113641000D02*
X185541000Y-113641000D01*
X183059000Y-113601000D02*
X179817000Y-113601000D01*
X188783000Y-113601000D02*
X185541000Y-113601000D01*
X183059000Y-113561000D02*
X179796000Y-113561000D01*
X188804000Y-113561000D02*
X185541000Y-113561000D01*
X183059000Y-113521000D02*
X179775000Y-113521000D01*
X188825000Y-113521000D02*
X185541000Y-113521000D01*
X183059000Y-113481000D02*
X179755000Y-113481000D01*
X188845000Y-113481000D02*
X185541000Y-113481000D01*
X183059000Y-113441000D02*
X179736000Y-113441000D01*
X188864000Y-113441000D02*
X185541000Y-113441000D01*
X183059000Y-113401000D02*
X179716000Y-113401000D01*
X188884000Y-113401000D02*
X185541000Y-113401000D01*
X183059000Y-113361000D02*
X179697000Y-113361000D01*
X188903000Y-113361000D02*
X185541000Y-113361000D01*
X183059000Y-113321000D02*
X179679000Y-113321000D01*
X188921000Y-113321000D02*
X185541000Y-113321000D01*
X183059000Y-113281000D02*
X179661000Y-113281000D01*
X188939000Y-113281000D02*
X185541000Y-113281000D01*
X183059000Y-113241000D02*
X179643000Y-113241000D01*
X188957000Y-113241000D02*
X185541000Y-113241000D01*
X183059000Y-113201000D02*
X179626000Y-113201000D01*
X188974000Y-113201000D02*
X185541000Y-113201000D01*
X183059000Y-113161000D02*
X179610000Y-113161000D01*
X188990000Y-113161000D02*
X185541000Y-113161000D01*
X183059000Y-113121000D02*
X179593000Y-113121000D01*
X189007000Y-113121000D02*
X185541000Y-113121000D01*
X183059000Y-113081000D02*
X179577000Y-113081000D01*
X189023000Y-113081000D02*
X185541000Y-113081000D01*
X183059000Y-113041000D02*
X179562000Y-113041000D01*
X189038000Y-113041000D02*
X185541000Y-113041000D01*
X183059000Y-113001000D02*
X179546000Y-113001000D01*
X189054000Y-113001000D02*
X185541000Y-113001000D01*
X183059000Y-112961000D02*
X179532000Y-112961000D01*
X189068000Y-112961000D02*
X185541000Y-112961000D01*
X183059000Y-112921000D02*
X179517000Y-112921000D01*
X189083000Y-112921000D02*
X185541000Y-112921000D01*
X183059000Y-112881000D02*
X179503000Y-112881000D01*
X189097000Y-112881000D02*
X185541000Y-112881000D01*
X183059000Y-112841000D02*
X179489000Y-112841000D01*
X189111000Y-112841000D02*
X185541000Y-112841000D01*
X183059000Y-112801000D02*
X179476000Y-112801000D01*
X189124000Y-112801000D02*
X185541000Y-112801000D01*
X183059000Y-112761000D02*
X179463000Y-112761000D01*
X189137000Y-112761000D02*
X185541000Y-112761000D01*
X183059000Y-112721000D02*
X179450000Y-112721000D01*
X189150000Y-112721000D02*
X185541000Y-112721000D01*
X183059000Y-112681000D02*
X179438000Y-112681000D01*
X189162000Y-112681000D02*
X185541000Y-112681000D01*
X183059000Y-112641000D02*
X179426000Y-112641000D01*
X189174000Y-112641000D02*
X185541000Y-112641000D01*
X183059000Y-112601000D02*
X179415000Y-112601000D01*
X189185000Y-112601000D02*
X185541000Y-112601000D01*
X183059000Y-112561000D02*
X179403000Y-112561000D01*
X189197000Y-112561000D02*
X185541000Y-112561000D01*
X183059000Y-112521000D02*
X179393000Y-112521000D01*
X189207000Y-112521000D02*
X185541000Y-112521000D01*
X183059000Y-112481000D02*
X179382000Y-112481000D01*
X189218000Y-112481000D02*
X185541000Y-112481000D01*
X189228000Y-112441000D02*
X179372000Y-112441000D01*
X189238000Y-112401000D02*
X179362000Y-112401000D01*
X189247000Y-112361000D02*
X179353000Y-112361000D01*
X189256000Y-112321000D02*
X179344000Y-112321000D01*
X189265000Y-112281000D02*
X179335000Y-112281000D01*
X189274000Y-112241000D02*
X179326000Y-112241000D01*
X189282000Y-112201000D02*
X179318000Y-112201000D01*
X189290000Y-112161000D02*
X179310000Y-112161000D01*
X189297000Y-112121000D02*
X179303000Y-112121000D01*
X189304000Y-112081000D02*
X179296000Y-112081000D01*
X189311000Y-112041000D02*
X179289000Y-112041000D01*
X189318000Y-112001000D02*
X179282000Y-112001000D01*
X189324000Y-111961000D02*
X179276000Y-111961000D01*
X189330000Y-111921000D02*
X179270000Y-111921000D01*
X189335000Y-111880000D02*
X179265000Y-111880000D01*
X189340000Y-111840000D02*
X179260000Y-111840000D01*
X189345000Y-111800000D02*
X179255000Y-111800000D01*
X189350000Y-111760000D02*
X179250000Y-111760000D01*
X189354000Y-111720000D02*
X179246000Y-111720000D01*
X189358000Y-111680000D02*
X179242000Y-111680000D01*
X189362000Y-111640000D02*
X179238000Y-111640000D01*
X189365000Y-111600000D02*
X179235000Y-111600000D01*
X189368000Y-111560000D02*
X179232000Y-111560000D01*
X189370000Y-111520000D02*
X179230000Y-111520000D01*
X189373000Y-111480000D02*
X179227000Y-111480000D01*
X189375000Y-111440000D02*
X179225000Y-111440000D01*
X189377000Y-111400000D02*
X179223000Y-111400000D01*
X189378000Y-111360000D02*
X179222000Y-111360000D01*
X189379000Y-111320000D02*
X179221000Y-111320000D01*
X189380000Y-111280000D02*
X179220000Y-111280000D01*
X189380000Y-111240000D02*
X179220000Y-111240000D01*
X189380000Y-111200000D02*
X179220000Y-111200000D01*
X189420000Y-111200000D02*
G75*
G03*
X189420000Y-111200000I-5120000J0D01*
G01*
%TO.C,C9*%
X187675000Y-84220354D02*
X186675000Y-84220354D01*
X187175000Y-83720354D02*
X187175000Y-84720354D01*
X184899000Y-94281000D02*
X183701000Y-94281000D01*
X185162000Y-94241000D02*
X183438000Y-94241000D01*
X185362000Y-94201000D02*
X183238000Y-94201000D01*
X185530000Y-94161000D02*
X183070000Y-94161000D01*
X185678000Y-94121000D02*
X182922000Y-94121000D01*
X185810000Y-94081000D02*
X182790000Y-94081000D01*
X185930000Y-94041000D02*
X182670000Y-94041000D01*
X186042000Y-94001000D02*
X182558000Y-94001000D01*
X186146000Y-93961000D02*
X182454000Y-93961000D01*
X186244000Y-93921000D02*
X182356000Y-93921000D01*
X186337000Y-93881000D02*
X182263000Y-93881000D01*
X186425000Y-93841000D02*
X182175000Y-93841000D01*
X186509000Y-93801000D02*
X182091000Y-93801000D01*
X186589000Y-93761000D02*
X182011000Y-93761000D01*
X186665000Y-93721000D02*
X181935000Y-93721000D01*
X186739000Y-93681000D02*
X181861000Y-93681000D01*
X186810000Y-93641000D02*
X181790000Y-93641000D01*
X186879000Y-93601000D02*
X181721000Y-93601000D01*
X186945000Y-93561000D02*
X181655000Y-93561000D01*
X187009000Y-93521000D02*
X181591000Y-93521000D01*
X187070000Y-93481000D02*
X181530000Y-93481000D01*
X187130000Y-93441000D02*
X181470000Y-93441000D01*
X187189000Y-93401000D02*
X181411000Y-93401000D01*
X187245000Y-93361000D02*
X181355000Y-93361000D01*
X187300000Y-93321000D02*
X181300000Y-93321000D01*
X187354000Y-93281000D02*
X181246000Y-93281000D01*
X187406000Y-93241000D02*
X181194000Y-93241000D01*
X187456000Y-93201000D02*
X181144000Y-93201000D01*
X187506000Y-93161000D02*
X181094000Y-93161000D01*
X187554000Y-93121000D02*
X181046000Y-93121000D01*
X187601000Y-93081000D02*
X180999000Y-93081000D01*
X187647000Y-93041000D02*
X180953000Y-93041000D01*
X187692000Y-93001000D02*
X180908000Y-93001000D01*
X187736000Y-92961000D02*
X180864000Y-92961000D01*
X183059000Y-92921000D02*
X180822000Y-92921000D01*
X187778000Y-92921000D02*
X185541000Y-92921000D01*
X183059000Y-92881000D02*
X180780000Y-92881000D01*
X187820000Y-92881000D02*
X185541000Y-92881000D01*
X183059000Y-92841000D02*
X180739000Y-92841000D01*
X187861000Y-92841000D02*
X185541000Y-92841000D01*
X183059000Y-92801000D02*
X180699000Y-92801000D01*
X187901000Y-92801000D02*
X185541000Y-92801000D01*
X183059000Y-92761000D02*
X180660000Y-92761000D01*
X187940000Y-92761000D02*
X185541000Y-92761000D01*
X183059000Y-92721000D02*
X180621000Y-92721000D01*
X187979000Y-92721000D02*
X185541000Y-92721000D01*
X183059000Y-92681000D02*
X180584000Y-92681000D01*
X188016000Y-92681000D02*
X185541000Y-92681000D01*
X183059000Y-92641000D02*
X180547000Y-92641000D01*
X188053000Y-92641000D02*
X185541000Y-92641000D01*
X183059000Y-92601000D02*
X180511000Y-92601000D01*
X188089000Y-92601000D02*
X185541000Y-92601000D01*
X183059000Y-92561000D02*
X180476000Y-92561000D01*
X188124000Y-92561000D02*
X185541000Y-92561000D01*
X183059000Y-92521000D02*
X180442000Y-92521000D01*
X188158000Y-92521000D02*
X185541000Y-92521000D01*
X183059000Y-92481000D02*
X180408000Y-92481000D01*
X188192000Y-92481000D02*
X185541000Y-92481000D01*
X183059000Y-92441000D02*
X180375000Y-92441000D01*
X188225000Y-92441000D02*
X185541000Y-92441000D01*
X183059000Y-92401000D02*
X180343000Y-92401000D01*
X188257000Y-92401000D02*
X185541000Y-92401000D01*
X183059000Y-92361000D02*
X180311000Y-92361000D01*
X188289000Y-92361000D02*
X185541000Y-92361000D01*
X183059000Y-92321000D02*
X180280000Y-92321000D01*
X188320000Y-92321000D02*
X185541000Y-92321000D01*
X183059000Y-92281000D02*
X180250000Y-92281000D01*
X188350000Y-92281000D02*
X185541000Y-92281000D01*
X183059000Y-92241000D02*
X180220000Y-92241000D01*
X188380000Y-92241000D02*
X185541000Y-92241000D01*
X183059000Y-92201000D02*
X180190000Y-92201000D01*
X188410000Y-92201000D02*
X185541000Y-92201000D01*
X183059000Y-92161000D02*
X180162000Y-92161000D01*
X188438000Y-92161000D02*
X185541000Y-92161000D01*
X183059000Y-92121000D02*
X180134000Y-92121000D01*
X188466000Y-92121000D02*
X185541000Y-92121000D01*
X183059000Y-92081000D02*
X180106000Y-92081000D01*
X188494000Y-92081000D02*
X185541000Y-92081000D01*
X183059000Y-92041000D02*
X180079000Y-92041000D01*
X188521000Y-92041000D02*
X185541000Y-92041000D01*
X183059000Y-92001000D02*
X180053000Y-92001000D01*
X188547000Y-92001000D02*
X185541000Y-92001000D01*
X183059000Y-91961000D02*
X180027000Y-91961000D01*
X188573000Y-91961000D02*
X185541000Y-91961000D01*
X183059000Y-91921000D02*
X180002000Y-91921000D01*
X188598000Y-91921000D02*
X185541000Y-91921000D01*
X183059000Y-91881000D02*
X179977000Y-91881000D01*
X188623000Y-91881000D02*
X185541000Y-91881000D01*
X183059000Y-91841000D02*
X179953000Y-91841000D01*
X188647000Y-91841000D02*
X185541000Y-91841000D01*
X183059000Y-91801000D02*
X179929000Y-91801000D01*
X188671000Y-91801000D02*
X185541000Y-91801000D01*
X183059000Y-91761000D02*
X179905000Y-91761000D01*
X188695000Y-91761000D02*
X185541000Y-91761000D01*
X183059000Y-91721000D02*
X179883000Y-91721000D01*
X188717000Y-91721000D02*
X185541000Y-91721000D01*
X183059000Y-91681000D02*
X179860000Y-91681000D01*
X188740000Y-91681000D02*
X185541000Y-91681000D01*
X183059000Y-91641000D02*
X179838000Y-91641000D01*
X188762000Y-91641000D02*
X185541000Y-91641000D01*
X183059000Y-91601000D02*
X179817000Y-91601000D01*
X188783000Y-91601000D02*
X185541000Y-91601000D01*
X183059000Y-91561000D02*
X179796000Y-91561000D01*
X188804000Y-91561000D02*
X185541000Y-91561000D01*
X183059000Y-91521000D02*
X179775000Y-91521000D01*
X188825000Y-91521000D02*
X185541000Y-91521000D01*
X183059000Y-91481000D02*
X179755000Y-91481000D01*
X188845000Y-91481000D02*
X185541000Y-91481000D01*
X183059000Y-91441000D02*
X179736000Y-91441000D01*
X188864000Y-91441000D02*
X185541000Y-91441000D01*
X183059000Y-91401000D02*
X179716000Y-91401000D01*
X188884000Y-91401000D02*
X185541000Y-91401000D01*
X183059000Y-91361000D02*
X179697000Y-91361000D01*
X188903000Y-91361000D02*
X185541000Y-91361000D01*
X183059000Y-91321000D02*
X179679000Y-91321000D01*
X188921000Y-91321000D02*
X185541000Y-91321000D01*
X183059000Y-91281000D02*
X179661000Y-91281000D01*
X188939000Y-91281000D02*
X185541000Y-91281000D01*
X183059000Y-91241000D02*
X179643000Y-91241000D01*
X188957000Y-91241000D02*
X185541000Y-91241000D01*
X183059000Y-91201000D02*
X179626000Y-91201000D01*
X188974000Y-91201000D02*
X185541000Y-91201000D01*
X183059000Y-91161000D02*
X179610000Y-91161000D01*
X188990000Y-91161000D02*
X185541000Y-91161000D01*
X183059000Y-91121000D02*
X179593000Y-91121000D01*
X189007000Y-91121000D02*
X185541000Y-91121000D01*
X183059000Y-91081000D02*
X179577000Y-91081000D01*
X189023000Y-91081000D02*
X185541000Y-91081000D01*
X183059000Y-91041000D02*
X179562000Y-91041000D01*
X189038000Y-91041000D02*
X185541000Y-91041000D01*
X183059000Y-91001000D02*
X179546000Y-91001000D01*
X189054000Y-91001000D02*
X185541000Y-91001000D01*
X183059000Y-90961000D02*
X179532000Y-90961000D01*
X189068000Y-90961000D02*
X185541000Y-90961000D01*
X183059000Y-90921000D02*
X179517000Y-90921000D01*
X189083000Y-90921000D02*
X185541000Y-90921000D01*
X183059000Y-90881000D02*
X179503000Y-90881000D01*
X189097000Y-90881000D02*
X185541000Y-90881000D01*
X183059000Y-90841000D02*
X179489000Y-90841000D01*
X189111000Y-90841000D02*
X185541000Y-90841000D01*
X183059000Y-90801000D02*
X179476000Y-90801000D01*
X189124000Y-90801000D02*
X185541000Y-90801000D01*
X183059000Y-90761000D02*
X179463000Y-90761000D01*
X189137000Y-90761000D02*
X185541000Y-90761000D01*
X183059000Y-90721000D02*
X179450000Y-90721000D01*
X189150000Y-90721000D02*
X185541000Y-90721000D01*
X183059000Y-90681000D02*
X179438000Y-90681000D01*
X189162000Y-90681000D02*
X185541000Y-90681000D01*
X183059000Y-90641000D02*
X179426000Y-90641000D01*
X189174000Y-90641000D02*
X185541000Y-90641000D01*
X183059000Y-90601000D02*
X179415000Y-90601000D01*
X189185000Y-90601000D02*
X185541000Y-90601000D01*
X183059000Y-90561000D02*
X179403000Y-90561000D01*
X189197000Y-90561000D02*
X185541000Y-90561000D01*
X183059000Y-90521000D02*
X179393000Y-90521000D01*
X189207000Y-90521000D02*
X185541000Y-90521000D01*
X183059000Y-90481000D02*
X179382000Y-90481000D01*
X189218000Y-90481000D02*
X185541000Y-90481000D01*
X189228000Y-90441000D02*
X179372000Y-90441000D01*
X189238000Y-90401000D02*
X179362000Y-90401000D01*
X189247000Y-90361000D02*
X179353000Y-90361000D01*
X189256000Y-90321000D02*
X179344000Y-90321000D01*
X189265000Y-90281000D02*
X179335000Y-90281000D01*
X189274000Y-90241000D02*
X179326000Y-90241000D01*
X189282000Y-90201000D02*
X179318000Y-90201000D01*
X189290000Y-90161000D02*
X179310000Y-90161000D01*
X189297000Y-90121000D02*
X179303000Y-90121000D01*
X189304000Y-90081000D02*
X179296000Y-90081000D01*
X189311000Y-90041000D02*
X179289000Y-90041000D01*
X189318000Y-90001000D02*
X179282000Y-90001000D01*
X189324000Y-89961000D02*
X179276000Y-89961000D01*
X189330000Y-89921000D02*
X179270000Y-89921000D01*
X189335000Y-89880000D02*
X179265000Y-89880000D01*
X189340000Y-89840000D02*
X179260000Y-89840000D01*
X189345000Y-89800000D02*
X179255000Y-89800000D01*
X189350000Y-89760000D02*
X179250000Y-89760000D01*
X189354000Y-89720000D02*
X179246000Y-89720000D01*
X189358000Y-89680000D02*
X179242000Y-89680000D01*
X189362000Y-89640000D02*
X179238000Y-89640000D01*
X189365000Y-89600000D02*
X179235000Y-89600000D01*
X189368000Y-89560000D02*
X179232000Y-89560000D01*
X189370000Y-89520000D02*
X179230000Y-89520000D01*
X189373000Y-89480000D02*
X179227000Y-89480000D01*
X189375000Y-89440000D02*
X179225000Y-89440000D01*
X189377000Y-89400000D02*
X179223000Y-89400000D01*
X189378000Y-89360000D02*
X179222000Y-89360000D01*
X189379000Y-89320000D02*
X179221000Y-89320000D01*
X189380000Y-89280000D02*
X179220000Y-89280000D01*
X189380000Y-89240000D02*
X179220000Y-89240000D01*
X189380000Y-89200000D02*
X179220000Y-89200000D01*
X189420000Y-89200000D02*
G75*
G03*
X189420000Y-89200000I-5120000J0D01*
G01*
%TO.C,C8*%
X198675000Y-106220354D02*
X197675000Y-106220354D01*
X198175000Y-105720354D02*
X198175000Y-106720354D01*
X195899000Y-116281000D02*
X194701000Y-116281000D01*
X196162000Y-116241000D02*
X194438000Y-116241000D01*
X196362000Y-116201000D02*
X194238000Y-116201000D01*
X196530000Y-116161000D02*
X194070000Y-116161000D01*
X196678000Y-116121000D02*
X193922000Y-116121000D01*
X196810000Y-116081000D02*
X193790000Y-116081000D01*
X196930000Y-116041000D02*
X193670000Y-116041000D01*
X197042000Y-116001000D02*
X193558000Y-116001000D01*
X197146000Y-115961000D02*
X193454000Y-115961000D01*
X197244000Y-115921000D02*
X193356000Y-115921000D01*
X197337000Y-115881000D02*
X193263000Y-115881000D01*
X197425000Y-115841000D02*
X193175000Y-115841000D01*
X197509000Y-115801000D02*
X193091000Y-115801000D01*
X197589000Y-115761000D02*
X193011000Y-115761000D01*
X197665000Y-115721000D02*
X192935000Y-115721000D01*
X197739000Y-115681000D02*
X192861000Y-115681000D01*
X197810000Y-115641000D02*
X192790000Y-115641000D01*
X197879000Y-115601000D02*
X192721000Y-115601000D01*
X197945000Y-115561000D02*
X192655000Y-115561000D01*
X198009000Y-115521000D02*
X192591000Y-115521000D01*
X198070000Y-115481000D02*
X192530000Y-115481000D01*
X198130000Y-115441000D02*
X192470000Y-115441000D01*
X198189000Y-115401000D02*
X192411000Y-115401000D01*
X198245000Y-115361000D02*
X192355000Y-115361000D01*
X198300000Y-115321000D02*
X192300000Y-115321000D01*
X198354000Y-115281000D02*
X192246000Y-115281000D01*
X198406000Y-115241000D02*
X192194000Y-115241000D01*
X198456000Y-115201000D02*
X192144000Y-115201000D01*
X198506000Y-115161000D02*
X192094000Y-115161000D01*
X198554000Y-115121000D02*
X192046000Y-115121000D01*
X198601000Y-115081000D02*
X191999000Y-115081000D01*
X198647000Y-115041000D02*
X191953000Y-115041000D01*
X198692000Y-115001000D02*
X191908000Y-115001000D01*
X198736000Y-114961000D02*
X191864000Y-114961000D01*
X194059000Y-114921000D02*
X191822000Y-114921000D01*
X198778000Y-114921000D02*
X196541000Y-114921000D01*
X194059000Y-114881000D02*
X191780000Y-114881000D01*
X198820000Y-114881000D02*
X196541000Y-114881000D01*
X194059000Y-114841000D02*
X191739000Y-114841000D01*
X198861000Y-114841000D02*
X196541000Y-114841000D01*
X194059000Y-114801000D02*
X191699000Y-114801000D01*
X198901000Y-114801000D02*
X196541000Y-114801000D01*
X194059000Y-114761000D02*
X191660000Y-114761000D01*
X198940000Y-114761000D02*
X196541000Y-114761000D01*
X194059000Y-114721000D02*
X191621000Y-114721000D01*
X198979000Y-114721000D02*
X196541000Y-114721000D01*
X194059000Y-114681000D02*
X191584000Y-114681000D01*
X199016000Y-114681000D02*
X196541000Y-114681000D01*
X194059000Y-114641000D02*
X191547000Y-114641000D01*
X199053000Y-114641000D02*
X196541000Y-114641000D01*
X194059000Y-114601000D02*
X191511000Y-114601000D01*
X199089000Y-114601000D02*
X196541000Y-114601000D01*
X194059000Y-114561000D02*
X191476000Y-114561000D01*
X199124000Y-114561000D02*
X196541000Y-114561000D01*
X194059000Y-114521000D02*
X191442000Y-114521000D01*
X199158000Y-114521000D02*
X196541000Y-114521000D01*
X194059000Y-114481000D02*
X191408000Y-114481000D01*
X199192000Y-114481000D02*
X196541000Y-114481000D01*
X194059000Y-114441000D02*
X191375000Y-114441000D01*
X199225000Y-114441000D02*
X196541000Y-114441000D01*
X194059000Y-114401000D02*
X191343000Y-114401000D01*
X199257000Y-114401000D02*
X196541000Y-114401000D01*
X194059000Y-114361000D02*
X191311000Y-114361000D01*
X199289000Y-114361000D02*
X196541000Y-114361000D01*
X194059000Y-114321000D02*
X191280000Y-114321000D01*
X199320000Y-114321000D02*
X196541000Y-114321000D01*
X194059000Y-114281000D02*
X191250000Y-114281000D01*
X199350000Y-114281000D02*
X196541000Y-114281000D01*
X194059000Y-114241000D02*
X191220000Y-114241000D01*
X199380000Y-114241000D02*
X196541000Y-114241000D01*
X194059000Y-114201000D02*
X191190000Y-114201000D01*
X199410000Y-114201000D02*
X196541000Y-114201000D01*
X194059000Y-114161000D02*
X191162000Y-114161000D01*
X199438000Y-114161000D02*
X196541000Y-114161000D01*
X194059000Y-114121000D02*
X191134000Y-114121000D01*
X199466000Y-114121000D02*
X196541000Y-114121000D01*
X194059000Y-114081000D02*
X191106000Y-114081000D01*
X199494000Y-114081000D02*
X196541000Y-114081000D01*
X194059000Y-114041000D02*
X191079000Y-114041000D01*
X199521000Y-114041000D02*
X196541000Y-114041000D01*
X194059000Y-114001000D02*
X191053000Y-114001000D01*
X199547000Y-114001000D02*
X196541000Y-114001000D01*
X194059000Y-113961000D02*
X191027000Y-113961000D01*
X199573000Y-113961000D02*
X196541000Y-113961000D01*
X194059000Y-113921000D02*
X191002000Y-113921000D01*
X199598000Y-113921000D02*
X196541000Y-113921000D01*
X194059000Y-113881000D02*
X190977000Y-113881000D01*
X199623000Y-113881000D02*
X196541000Y-113881000D01*
X194059000Y-113841000D02*
X190953000Y-113841000D01*
X199647000Y-113841000D02*
X196541000Y-113841000D01*
X194059000Y-113801000D02*
X190929000Y-113801000D01*
X199671000Y-113801000D02*
X196541000Y-113801000D01*
X194059000Y-113761000D02*
X190905000Y-113761000D01*
X199695000Y-113761000D02*
X196541000Y-113761000D01*
X194059000Y-113721000D02*
X190883000Y-113721000D01*
X199717000Y-113721000D02*
X196541000Y-113721000D01*
X194059000Y-113681000D02*
X190860000Y-113681000D01*
X199740000Y-113681000D02*
X196541000Y-113681000D01*
X194059000Y-113641000D02*
X190838000Y-113641000D01*
X199762000Y-113641000D02*
X196541000Y-113641000D01*
X194059000Y-113601000D02*
X190817000Y-113601000D01*
X199783000Y-113601000D02*
X196541000Y-113601000D01*
X194059000Y-113561000D02*
X190796000Y-113561000D01*
X199804000Y-113561000D02*
X196541000Y-113561000D01*
X194059000Y-113521000D02*
X190775000Y-113521000D01*
X199825000Y-113521000D02*
X196541000Y-113521000D01*
X194059000Y-113481000D02*
X190755000Y-113481000D01*
X199845000Y-113481000D02*
X196541000Y-113481000D01*
X194059000Y-113441000D02*
X190736000Y-113441000D01*
X199864000Y-113441000D02*
X196541000Y-113441000D01*
X194059000Y-113401000D02*
X190716000Y-113401000D01*
X199884000Y-113401000D02*
X196541000Y-113401000D01*
X194059000Y-113361000D02*
X190697000Y-113361000D01*
X199903000Y-113361000D02*
X196541000Y-113361000D01*
X194059000Y-113321000D02*
X190679000Y-113321000D01*
X199921000Y-113321000D02*
X196541000Y-113321000D01*
X194059000Y-113281000D02*
X190661000Y-113281000D01*
X199939000Y-113281000D02*
X196541000Y-113281000D01*
X194059000Y-113241000D02*
X190643000Y-113241000D01*
X199957000Y-113241000D02*
X196541000Y-113241000D01*
X194059000Y-113201000D02*
X190626000Y-113201000D01*
X199974000Y-113201000D02*
X196541000Y-113201000D01*
X194059000Y-113161000D02*
X190610000Y-113161000D01*
X199990000Y-113161000D02*
X196541000Y-113161000D01*
X194059000Y-113121000D02*
X190593000Y-113121000D01*
X200007000Y-113121000D02*
X196541000Y-113121000D01*
X194059000Y-113081000D02*
X190577000Y-113081000D01*
X200023000Y-113081000D02*
X196541000Y-113081000D01*
X194059000Y-113041000D02*
X190562000Y-113041000D01*
X200038000Y-113041000D02*
X196541000Y-113041000D01*
X194059000Y-113001000D02*
X190546000Y-113001000D01*
X200054000Y-113001000D02*
X196541000Y-113001000D01*
X194059000Y-112961000D02*
X190532000Y-112961000D01*
X200068000Y-112961000D02*
X196541000Y-112961000D01*
X194059000Y-112921000D02*
X190517000Y-112921000D01*
X200083000Y-112921000D02*
X196541000Y-112921000D01*
X194059000Y-112881000D02*
X190503000Y-112881000D01*
X200097000Y-112881000D02*
X196541000Y-112881000D01*
X194059000Y-112841000D02*
X190489000Y-112841000D01*
X200111000Y-112841000D02*
X196541000Y-112841000D01*
X194059000Y-112801000D02*
X190476000Y-112801000D01*
X200124000Y-112801000D02*
X196541000Y-112801000D01*
X194059000Y-112761000D02*
X190463000Y-112761000D01*
X200137000Y-112761000D02*
X196541000Y-112761000D01*
X194059000Y-112721000D02*
X190450000Y-112721000D01*
X200150000Y-112721000D02*
X196541000Y-112721000D01*
X194059000Y-112681000D02*
X190438000Y-112681000D01*
X200162000Y-112681000D02*
X196541000Y-112681000D01*
X194059000Y-112641000D02*
X190426000Y-112641000D01*
X200174000Y-112641000D02*
X196541000Y-112641000D01*
X194059000Y-112601000D02*
X190415000Y-112601000D01*
X200185000Y-112601000D02*
X196541000Y-112601000D01*
X194059000Y-112561000D02*
X190403000Y-112561000D01*
X200197000Y-112561000D02*
X196541000Y-112561000D01*
X194059000Y-112521000D02*
X190393000Y-112521000D01*
X200207000Y-112521000D02*
X196541000Y-112521000D01*
X194059000Y-112481000D02*
X190382000Y-112481000D01*
X200218000Y-112481000D02*
X196541000Y-112481000D01*
X200228000Y-112441000D02*
X190372000Y-112441000D01*
X200238000Y-112401000D02*
X190362000Y-112401000D01*
X200247000Y-112361000D02*
X190353000Y-112361000D01*
X200256000Y-112321000D02*
X190344000Y-112321000D01*
X200265000Y-112281000D02*
X190335000Y-112281000D01*
X200274000Y-112241000D02*
X190326000Y-112241000D01*
X200282000Y-112201000D02*
X190318000Y-112201000D01*
X200290000Y-112161000D02*
X190310000Y-112161000D01*
X200297000Y-112121000D02*
X190303000Y-112121000D01*
X200304000Y-112081000D02*
X190296000Y-112081000D01*
X200311000Y-112041000D02*
X190289000Y-112041000D01*
X200318000Y-112001000D02*
X190282000Y-112001000D01*
X200324000Y-111961000D02*
X190276000Y-111961000D01*
X200330000Y-111921000D02*
X190270000Y-111921000D01*
X200335000Y-111880000D02*
X190265000Y-111880000D01*
X200340000Y-111840000D02*
X190260000Y-111840000D01*
X200345000Y-111800000D02*
X190255000Y-111800000D01*
X200350000Y-111760000D02*
X190250000Y-111760000D01*
X200354000Y-111720000D02*
X190246000Y-111720000D01*
X200358000Y-111680000D02*
X190242000Y-111680000D01*
X200362000Y-111640000D02*
X190238000Y-111640000D01*
X200365000Y-111600000D02*
X190235000Y-111600000D01*
X200368000Y-111560000D02*
X190232000Y-111560000D01*
X200370000Y-111520000D02*
X190230000Y-111520000D01*
X200373000Y-111480000D02*
X190227000Y-111480000D01*
X200375000Y-111440000D02*
X190225000Y-111440000D01*
X200377000Y-111400000D02*
X190223000Y-111400000D01*
X200378000Y-111360000D02*
X190222000Y-111360000D01*
X200379000Y-111320000D02*
X190221000Y-111320000D01*
X200380000Y-111280000D02*
X190220000Y-111280000D01*
X200380000Y-111240000D02*
X190220000Y-111240000D01*
X200380000Y-111200000D02*
X190220000Y-111200000D01*
X200420000Y-111200000D02*
G75*
G03*
X200420000Y-111200000I-5120000J0D01*
G01*
%TO.C,C7*%
X198675000Y-84220354D02*
X197675000Y-84220354D01*
X198175000Y-83720354D02*
X198175000Y-84720354D01*
X195899000Y-94281000D02*
X194701000Y-94281000D01*
X196162000Y-94241000D02*
X194438000Y-94241000D01*
X196362000Y-94201000D02*
X194238000Y-94201000D01*
X196530000Y-94161000D02*
X194070000Y-94161000D01*
X196678000Y-94121000D02*
X193922000Y-94121000D01*
X196810000Y-94081000D02*
X193790000Y-94081000D01*
X196930000Y-94041000D02*
X193670000Y-94041000D01*
X197042000Y-94001000D02*
X193558000Y-94001000D01*
X197146000Y-93961000D02*
X193454000Y-93961000D01*
X197244000Y-93921000D02*
X193356000Y-93921000D01*
X197337000Y-93881000D02*
X193263000Y-93881000D01*
X197425000Y-93841000D02*
X193175000Y-93841000D01*
X197509000Y-93801000D02*
X193091000Y-93801000D01*
X197589000Y-93761000D02*
X193011000Y-93761000D01*
X197665000Y-93721000D02*
X192935000Y-93721000D01*
X197739000Y-93681000D02*
X192861000Y-93681000D01*
X197810000Y-93641000D02*
X192790000Y-93641000D01*
X197879000Y-93601000D02*
X192721000Y-93601000D01*
X197945000Y-93561000D02*
X192655000Y-93561000D01*
X198009000Y-93521000D02*
X192591000Y-93521000D01*
X198070000Y-93481000D02*
X192530000Y-93481000D01*
X198130000Y-93441000D02*
X192470000Y-93441000D01*
X198189000Y-93401000D02*
X192411000Y-93401000D01*
X198245000Y-93361000D02*
X192355000Y-93361000D01*
X198300000Y-93321000D02*
X192300000Y-93321000D01*
X198354000Y-93281000D02*
X192246000Y-93281000D01*
X198406000Y-93241000D02*
X192194000Y-93241000D01*
X198456000Y-93201000D02*
X192144000Y-93201000D01*
X198506000Y-93161000D02*
X192094000Y-93161000D01*
X198554000Y-93121000D02*
X192046000Y-93121000D01*
X198601000Y-93081000D02*
X191999000Y-93081000D01*
X198647000Y-93041000D02*
X191953000Y-93041000D01*
X198692000Y-93001000D02*
X191908000Y-93001000D01*
X198736000Y-92961000D02*
X191864000Y-92961000D01*
X194059000Y-92921000D02*
X191822000Y-92921000D01*
X198778000Y-92921000D02*
X196541000Y-92921000D01*
X194059000Y-92881000D02*
X191780000Y-92881000D01*
X198820000Y-92881000D02*
X196541000Y-92881000D01*
X194059000Y-92841000D02*
X191739000Y-92841000D01*
X198861000Y-92841000D02*
X196541000Y-92841000D01*
X194059000Y-92801000D02*
X191699000Y-92801000D01*
X198901000Y-92801000D02*
X196541000Y-92801000D01*
X194059000Y-92761000D02*
X191660000Y-92761000D01*
X198940000Y-92761000D02*
X196541000Y-92761000D01*
X194059000Y-92721000D02*
X191621000Y-92721000D01*
X198979000Y-92721000D02*
X196541000Y-92721000D01*
X194059000Y-92681000D02*
X191584000Y-92681000D01*
X199016000Y-92681000D02*
X196541000Y-92681000D01*
X194059000Y-92641000D02*
X191547000Y-92641000D01*
X199053000Y-92641000D02*
X196541000Y-92641000D01*
X194059000Y-92601000D02*
X191511000Y-92601000D01*
X199089000Y-92601000D02*
X196541000Y-92601000D01*
X194059000Y-92561000D02*
X191476000Y-92561000D01*
X199124000Y-92561000D02*
X196541000Y-92561000D01*
X194059000Y-92521000D02*
X191442000Y-92521000D01*
X199158000Y-92521000D02*
X196541000Y-92521000D01*
X194059000Y-92481000D02*
X191408000Y-92481000D01*
X199192000Y-92481000D02*
X196541000Y-92481000D01*
X194059000Y-92441000D02*
X191375000Y-92441000D01*
X199225000Y-92441000D02*
X196541000Y-92441000D01*
X194059000Y-92401000D02*
X191343000Y-92401000D01*
X199257000Y-92401000D02*
X196541000Y-92401000D01*
X194059000Y-92361000D02*
X191311000Y-92361000D01*
X199289000Y-92361000D02*
X196541000Y-92361000D01*
X194059000Y-92321000D02*
X191280000Y-92321000D01*
X199320000Y-92321000D02*
X196541000Y-92321000D01*
X194059000Y-92281000D02*
X191250000Y-92281000D01*
X199350000Y-92281000D02*
X196541000Y-92281000D01*
X194059000Y-92241000D02*
X191220000Y-92241000D01*
X199380000Y-92241000D02*
X196541000Y-92241000D01*
X194059000Y-92201000D02*
X191190000Y-92201000D01*
X199410000Y-92201000D02*
X196541000Y-92201000D01*
X194059000Y-92161000D02*
X191162000Y-92161000D01*
X199438000Y-92161000D02*
X196541000Y-92161000D01*
X194059000Y-92121000D02*
X191134000Y-92121000D01*
X199466000Y-92121000D02*
X196541000Y-92121000D01*
X194059000Y-92081000D02*
X191106000Y-92081000D01*
X199494000Y-92081000D02*
X196541000Y-92081000D01*
X194059000Y-92041000D02*
X191079000Y-92041000D01*
X199521000Y-92041000D02*
X196541000Y-92041000D01*
X194059000Y-92001000D02*
X191053000Y-92001000D01*
X199547000Y-92001000D02*
X196541000Y-92001000D01*
X194059000Y-91961000D02*
X191027000Y-91961000D01*
X199573000Y-91961000D02*
X196541000Y-91961000D01*
X194059000Y-91921000D02*
X191002000Y-91921000D01*
X199598000Y-91921000D02*
X196541000Y-91921000D01*
X194059000Y-91881000D02*
X190977000Y-91881000D01*
X199623000Y-91881000D02*
X196541000Y-91881000D01*
X194059000Y-91841000D02*
X190953000Y-91841000D01*
X199647000Y-91841000D02*
X196541000Y-91841000D01*
X194059000Y-91801000D02*
X190929000Y-91801000D01*
X199671000Y-91801000D02*
X196541000Y-91801000D01*
X194059000Y-91761000D02*
X190905000Y-91761000D01*
X199695000Y-91761000D02*
X196541000Y-91761000D01*
X194059000Y-91721000D02*
X190883000Y-91721000D01*
X199717000Y-91721000D02*
X196541000Y-91721000D01*
X194059000Y-91681000D02*
X190860000Y-91681000D01*
X199740000Y-91681000D02*
X196541000Y-91681000D01*
X194059000Y-91641000D02*
X190838000Y-91641000D01*
X199762000Y-91641000D02*
X196541000Y-91641000D01*
X194059000Y-91601000D02*
X190817000Y-91601000D01*
X199783000Y-91601000D02*
X196541000Y-91601000D01*
X194059000Y-91561000D02*
X190796000Y-91561000D01*
X199804000Y-91561000D02*
X196541000Y-91561000D01*
X194059000Y-91521000D02*
X190775000Y-91521000D01*
X199825000Y-91521000D02*
X196541000Y-91521000D01*
X194059000Y-91481000D02*
X190755000Y-91481000D01*
X199845000Y-91481000D02*
X196541000Y-91481000D01*
X194059000Y-91441000D02*
X190736000Y-91441000D01*
X199864000Y-91441000D02*
X196541000Y-91441000D01*
X194059000Y-91401000D02*
X190716000Y-91401000D01*
X199884000Y-91401000D02*
X196541000Y-91401000D01*
X194059000Y-91361000D02*
X190697000Y-91361000D01*
X199903000Y-91361000D02*
X196541000Y-91361000D01*
X194059000Y-91321000D02*
X190679000Y-91321000D01*
X199921000Y-91321000D02*
X196541000Y-91321000D01*
X194059000Y-91281000D02*
X190661000Y-91281000D01*
X199939000Y-91281000D02*
X196541000Y-91281000D01*
X194059000Y-91241000D02*
X190643000Y-91241000D01*
X199957000Y-91241000D02*
X196541000Y-91241000D01*
X194059000Y-91201000D02*
X190626000Y-91201000D01*
X199974000Y-91201000D02*
X196541000Y-91201000D01*
X194059000Y-91161000D02*
X190610000Y-91161000D01*
X199990000Y-91161000D02*
X196541000Y-91161000D01*
X194059000Y-91121000D02*
X190593000Y-91121000D01*
X200007000Y-91121000D02*
X196541000Y-91121000D01*
X194059000Y-91081000D02*
X190577000Y-91081000D01*
X200023000Y-91081000D02*
X196541000Y-91081000D01*
X194059000Y-91041000D02*
X190562000Y-91041000D01*
X200038000Y-91041000D02*
X196541000Y-91041000D01*
X194059000Y-91001000D02*
X190546000Y-91001000D01*
X200054000Y-91001000D02*
X196541000Y-91001000D01*
X194059000Y-90961000D02*
X190532000Y-90961000D01*
X200068000Y-90961000D02*
X196541000Y-90961000D01*
X194059000Y-90921000D02*
X190517000Y-90921000D01*
X200083000Y-90921000D02*
X196541000Y-90921000D01*
X194059000Y-90881000D02*
X190503000Y-90881000D01*
X200097000Y-90881000D02*
X196541000Y-90881000D01*
X194059000Y-90841000D02*
X190489000Y-90841000D01*
X200111000Y-90841000D02*
X196541000Y-90841000D01*
X194059000Y-90801000D02*
X190476000Y-90801000D01*
X200124000Y-90801000D02*
X196541000Y-90801000D01*
X194059000Y-90761000D02*
X190463000Y-90761000D01*
X200137000Y-90761000D02*
X196541000Y-90761000D01*
X194059000Y-90721000D02*
X190450000Y-90721000D01*
X200150000Y-90721000D02*
X196541000Y-90721000D01*
X194059000Y-90681000D02*
X190438000Y-90681000D01*
X200162000Y-90681000D02*
X196541000Y-90681000D01*
X194059000Y-90641000D02*
X190426000Y-90641000D01*
X200174000Y-90641000D02*
X196541000Y-90641000D01*
X194059000Y-90601000D02*
X190415000Y-90601000D01*
X200185000Y-90601000D02*
X196541000Y-90601000D01*
X194059000Y-90561000D02*
X190403000Y-90561000D01*
X200197000Y-90561000D02*
X196541000Y-90561000D01*
X194059000Y-90521000D02*
X190393000Y-90521000D01*
X200207000Y-90521000D02*
X196541000Y-90521000D01*
X194059000Y-90481000D02*
X190382000Y-90481000D01*
X200218000Y-90481000D02*
X196541000Y-90481000D01*
X200228000Y-90441000D02*
X190372000Y-90441000D01*
X200238000Y-90401000D02*
X190362000Y-90401000D01*
X200247000Y-90361000D02*
X190353000Y-90361000D01*
X200256000Y-90321000D02*
X190344000Y-90321000D01*
X200265000Y-90281000D02*
X190335000Y-90281000D01*
X200274000Y-90241000D02*
X190326000Y-90241000D01*
X200282000Y-90201000D02*
X190318000Y-90201000D01*
X200290000Y-90161000D02*
X190310000Y-90161000D01*
X200297000Y-90121000D02*
X190303000Y-90121000D01*
X200304000Y-90081000D02*
X190296000Y-90081000D01*
X200311000Y-90041000D02*
X190289000Y-90041000D01*
X200318000Y-90001000D02*
X190282000Y-90001000D01*
X200324000Y-89961000D02*
X190276000Y-89961000D01*
X200330000Y-89921000D02*
X190270000Y-89921000D01*
X200335000Y-89880000D02*
X190265000Y-89880000D01*
X200340000Y-89840000D02*
X190260000Y-89840000D01*
X200345000Y-89800000D02*
X190255000Y-89800000D01*
X200350000Y-89760000D02*
X190250000Y-89760000D01*
X200354000Y-89720000D02*
X190246000Y-89720000D01*
X200358000Y-89680000D02*
X190242000Y-89680000D01*
X200362000Y-89640000D02*
X190238000Y-89640000D01*
X200365000Y-89600000D02*
X190235000Y-89600000D01*
X200368000Y-89560000D02*
X190232000Y-89560000D01*
X200370000Y-89520000D02*
X190230000Y-89520000D01*
X200373000Y-89480000D02*
X190227000Y-89480000D01*
X200375000Y-89440000D02*
X190225000Y-89440000D01*
X200377000Y-89400000D02*
X190223000Y-89400000D01*
X200378000Y-89360000D02*
X190222000Y-89360000D01*
X200379000Y-89320000D02*
X190221000Y-89320000D01*
X200380000Y-89280000D02*
X190220000Y-89280000D01*
X200380000Y-89240000D02*
X190220000Y-89240000D01*
X200380000Y-89200000D02*
X190220000Y-89200000D01*
X200420000Y-89200000D02*
G75*
G03*
X200420000Y-89200000I-5120000J0D01*
G01*
%TO.C,RV1*%
D15*
X156604761Y-66752380D02*
X156271428Y-66276190D01*
X156033333Y-66752380D02*
X156033333Y-65752380D01*
X156414285Y-65752380D01*
X156509523Y-65800000D01*
X156557142Y-65847619D01*
X156604761Y-65942857D01*
X156604761Y-66085714D01*
X156557142Y-66180952D01*
X156509523Y-66228571D01*
X156414285Y-66276190D01*
X156033333Y-66276190D01*
X156890476Y-65752380D02*
X157223809Y-66752380D01*
X157557142Y-65752380D01*
X158414285Y-66752380D02*
X157842857Y-66752380D01*
X158128571Y-66752380D02*
X158128571Y-65752380D01*
X158033333Y-65895238D01*
X157938095Y-65990476D01*
X157842857Y-66038095D01*
%TO.C,U1*%
X146478095Y-74822380D02*
X146478095Y-75631904D01*
X146525714Y-75727142D01*
X146573333Y-75774761D01*
X146668571Y-75822380D01*
X146859047Y-75822380D01*
X146954285Y-75774761D01*
X147001904Y-75727142D01*
X147049523Y-75631904D01*
X147049523Y-74822380D01*
X148049523Y-75822380D02*
X147478095Y-75822380D01*
X147763809Y-75822380D02*
X147763809Y-74822380D01*
X147668571Y-74965238D01*
X147573333Y-75060476D01*
X147478095Y-75108095D01*
%TO.C,R15*%
X112477142Y-106732380D02*
X112143809Y-106256190D01*
X111905714Y-106732380D02*
X111905714Y-105732380D01*
X112286666Y-105732380D01*
X112381904Y-105780000D01*
X112429523Y-105827619D01*
X112477142Y-105922857D01*
X112477142Y-106065714D01*
X112429523Y-106160952D01*
X112381904Y-106208571D01*
X112286666Y-106256190D01*
X111905714Y-106256190D01*
X113429523Y-106732380D02*
X112858095Y-106732380D01*
X113143809Y-106732380D02*
X113143809Y-105732380D01*
X113048571Y-105875238D01*
X112953333Y-105970476D01*
X112858095Y-106018095D01*
X114334285Y-105732380D02*
X113858095Y-105732380D01*
X113810476Y-106208571D01*
X113858095Y-106160952D01*
X113953333Y-106113333D01*
X114191428Y-106113333D01*
X114286666Y-106160952D01*
X114334285Y-106208571D01*
X114381904Y-106303809D01*
X114381904Y-106541904D01*
X114334285Y-106637142D01*
X114286666Y-106684761D01*
X114191428Y-106732380D01*
X113953333Y-106732380D01*
X113858095Y-106684761D01*
X113810476Y-106637142D01*
%TO.C,R12*%
X105937142Y-115582380D02*
X105603809Y-115106190D01*
X105365714Y-115582380D02*
X105365714Y-114582380D01*
X105746666Y-114582380D01*
X105841904Y-114630000D01*
X105889523Y-114677619D01*
X105937142Y-114772857D01*
X105937142Y-114915714D01*
X105889523Y-115010952D01*
X105841904Y-115058571D01*
X105746666Y-115106190D01*
X105365714Y-115106190D01*
X106889523Y-115582380D02*
X106318095Y-115582380D01*
X106603809Y-115582380D02*
X106603809Y-114582380D01*
X106508571Y-114725238D01*
X106413333Y-114820476D01*
X106318095Y-114868095D01*
X107270476Y-114677619D02*
X107318095Y-114630000D01*
X107413333Y-114582380D01*
X107651428Y-114582380D01*
X107746666Y-114630000D01*
X107794285Y-114677619D01*
X107841904Y-114772857D01*
X107841904Y-114868095D01*
X107794285Y-115010952D01*
X107222857Y-115582380D01*
X107841904Y-115582380D01*
%TO.C,IC1*%
X95573809Y-83302380D02*
X95573809Y-82302380D01*
X96621428Y-83207142D02*
X96573809Y-83254761D01*
X96430952Y-83302380D01*
X96335714Y-83302380D01*
X96192857Y-83254761D01*
X96097619Y-83159523D01*
X96050000Y-83064285D01*
X96002380Y-82873809D01*
X96002380Y-82730952D01*
X96050000Y-82540476D01*
X96097619Y-82445238D01*
X96192857Y-82350000D01*
X96335714Y-82302380D01*
X96430952Y-82302380D01*
X96573809Y-82350000D01*
X96621428Y-82397619D01*
X97573809Y-83302380D02*
X97002380Y-83302380D01*
X97288095Y-83302380D02*
X97288095Y-82302380D01*
X97192857Y-82445238D01*
X97097619Y-82540476D01*
X97002380Y-82588095D01*
%TO.C,D4*%
X172221904Y-126222380D02*
X172221904Y-125222380D01*
X172460000Y-125222380D01*
X172602857Y-125270000D01*
X172698095Y-125365238D01*
X172745714Y-125460476D01*
X172793333Y-125650952D01*
X172793333Y-125793809D01*
X172745714Y-125984285D01*
X172698095Y-126079523D01*
X172602857Y-126174761D01*
X172460000Y-126222380D01*
X172221904Y-126222380D01*
X173650476Y-125555714D02*
X173650476Y-126222380D01*
X173412380Y-125174761D02*
X173174285Y-125889047D01*
X173793333Y-125889047D01*
%TO.C,D3*%
X172301904Y-64682380D02*
X172301904Y-63682380D01*
X172540000Y-63682380D01*
X172682857Y-63730000D01*
X172778095Y-63825238D01*
X172825714Y-63920476D01*
X172873333Y-64110952D01*
X172873333Y-64253809D01*
X172825714Y-64444285D01*
X172778095Y-64539523D01*
X172682857Y-64634761D01*
X172540000Y-64682380D01*
X172301904Y-64682380D01*
X173206666Y-63682380D02*
X173825714Y-63682380D01*
X173492380Y-64063333D01*
X173635238Y-64063333D01*
X173730476Y-64110952D01*
X173778095Y-64158571D01*
X173825714Y-64253809D01*
X173825714Y-64491904D01*
X173778095Y-64587142D01*
X173730476Y-64634761D01*
X173635238Y-64682380D01*
X173349523Y-64682380D01*
X173254285Y-64634761D01*
X173206666Y-64587142D01*
%TO.C,D2*%
X174482380Y-98158095D02*
X173482380Y-98158095D01*
X173482380Y-97920000D01*
X173530000Y-97777142D01*
X173625238Y-97681904D01*
X173720476Y-97634285D01*
X173910952Y-97586666D01*
X174053809Y-97586666D01*
X174244285Y-97634285D01*
X174339523Y-97681904D01*
X174434761Y-97777142D01*
X174482380Y-97920000D01*
X174482380Y-98158095D01*
X173577619Y-97205714D02*
X173530000Y-97158095D01*
X173482380Y-97062857D01*
X173482380Y-96824761D01*
X173530000Y-96729523D01*
X173577619Y-96681904D01*
X173672857Y-96634285D01*
X173768095Y-96634285D01*
X173910952Y-96681904D01*
X174482380Y-97253333D01*
X174482380Y-96634285D01*
X175052380Y-102761904D02*
X174052380Y-102761904D01*
X175052380Y-102190476D02*
X174480952Y-102619047D01*
X174052380Y-102190476D02*
X174623809Y-102761904D01*
%TO.C,D1*%
X172181904Y-75422380D02*
X172181904Y-74422380D01*
X172420000Y-74422380D01*
X172562857Y-74470000D01*
X172658095Y-74565238D01*
X172705714Y-74660476D01*
X172753333Y-74850952D01*
X172753333Y-74993809D01*
X172705714Y-75184285D01*
X172658095Y-75279523D01*
X172562857Y-75374761D01*
X172420000Y-75422380D01*
X172181904Y-75422380D01*
X173705714Y-75422380D02*
X173134285Y-75422380D01*
X173420000Y-75422380D02*
X173420000Y-74422380D01*
X173324761Y-74565238D01*
X173229523Y-74660476D01*
X173134285Y-74708095D01*
X177738095Y-74852380D02*
X177738095Y-73852380D01*
X178309523Y-74852380D02*
X177880952Y-74280952D01*
X178309523Y-73852380D02*
X177738095Y-74423809D01*
%TO.C,C13*%
X205657142Y-74642857D02*
X205704761Y-74690476D01*
X205752380Y-74833333D01*
X205752380Y-74928571D01*
X205704761Y-75071428D01*
X205609523Y-75166666D01*
X205514285Y-75214285D01*
X205323809Y-75261904D01*
X205180952Y-75261904D01*
X204990476Y-75214285D01*
X204895238Y-75166666D01*
X204800000Y-75071428D01*
X204752380Y-74928571D01*
X204752380Y-74833333D01*
X204800000Y-74690476D01*
X204847619Y-74642857D01*
X205752380Y-73690476D02*
X205752380Y-74261904D01*
X205752380Y-73976190D02*
X204752380Y-73976190D01*
X204895238Y-74071428D01*
X204990476Y-74166666D01*
X205038095Y-74261904D01*
X204752380Y-73357142D02*
X204752380Y-72738095D01*
X205133333Y-73071428D01*
X205133333Y-72928571D01*
X205180952Y-72833333D01*
X205228571Y-72785714D01*
X205323809Y-72738095D01*
X205561904Y-72738095D01*
X205657142Y-72785714D01*
X205704761Y-72833333D01*
X205752380Y-72928571D01*
X205752380Y-73214285D01*
X205704761Y-73309523D01*
X205657142Y-73357142D01*
%TO.C,C6*%
X178407142Y-100166666D02*
X178454761Y-100214285D01*
X178502380Y-100357142D01*
X178502380Y-100452380D01*
X178454761Y-100595238D01*
X178359523Y-100690476D01*
X178264285Y-100738095D01*
X178073809Y-100785714D01*
X177930952Y-100785714D01*
X177740476Y-100738095D01*
X177645238Y-100690476D01*
X177550000Y-100595238D01*
X177502380Y-100452380D01*
X177502380Y-100357142D01*
X177550000Y-100214285D01*
X177597619Y-100166666D01*
X177502380Y-99309523D02*
X177502380Y-99500000D01*
X177550000Y-99595238D01*
X177597619Y-99642857D01*
X177740476Y-99738095D01*
X177930952Y-99785714D01*
X178311904Y-99785714D01*
X178407142Y-99738095D01*
X178454761Y-99690476D01*
X178502380Y-99595238D01*
X178502380Y-99404761D01*
X178454761Y-99309523D01*
X178407142Y-99261904D01*
X178311904Y-99214285D01*
X178073809Y-99214285D01*
X177978571Y-99261904D01*
X177930952Y-99309523D01*
X177883333Y-99404761D01*
X177883333Y-99595238D01*
X177930952Y-99690476D01*
X177978571Y-99738095D01*
X178073809Y-99785714D01*
%TO.C,C5*%
X202107142Y-78166666D02*
X202154761Y-78214285D01*
X202202380Y-78357142D01*
X202202380Y-78452380D01*
X202154761Y-78595238D01*
X202059523Y-78690476D01*
X201964285Y-78738095D01*
X201773809Y-78785714D01*
X201630952Y-78785714D01*
X201440476Y-78738095D01*
X201345238Y-78690476D01*
X201250000Y-78595238D01*
X201202380Y-78452380D01*
X201202380Y-78357142D01*
X201250000Y-78214285D01*
X201297619Y-78166666D01*
X201202380Y-77261904D02*
X201202380Y-77738095D01*
X201678571Y-77785714D01*
X201630952Y-77738095D01*
X201583333Y-77642857D01*
X201583333Y-77404761D01*
X201630952Y-77309523D01*
X201678571Y-77261904D01*
X201773809Y-77214285D01*
X202011904Y-77214285D01*
X202107142Y-77261904D01*
X202154761Y-77309523D01*
X202202380Y-77404761D01*
X202202380Y-77642857D01*
X202154761Y-77738095D01*
X202107142Y-77785714D01*
%TO.C,C4*%
X189607142Y-100166666D02*
X189654761Y-100214285D01*
X189702380Y-100357142D01*
X189702380Y-100452380D01*
X189654761Y-100595238D01*
X189559523Y-100690476D01*
X189464285Y-100738095D01*
X189273809Y-100785714D01*
X189130952Y-100785714D01*
X188940476Y-100738095D01*
X188845238Y-100690476D01*
X188750000Y-100595238D01*
X188702380Y-100452380D01*
X188702380Y-100357142D01*
X188750000Y-100214285D01*
X188797619Y-100166666D01*
X189035714Y-99309523D02*
X189702380Y-99309523D01*
X188654761Y-99547619D02*
X189369047Y-99785714D01*
X189369047Y-99166666D01*
%TO.C,C3*%
X121157142Y-81486666D02*
X121204761Y-81534285D01*
X121252380Y-81677142D01*
X121252380Y-81772380D01*
X121204761Y-81915238D01*
X121109523Y-82010476D01*
X121014285Y-82058095D01*
X120823809Y-82105714D01*
X120680952Y-82105714D01*
X120490476Y-82058095D01*
X120395238Y-82010476D01*
X120300000Y-81915238D01*
X120252380Y-81772380D01*
X120252380Y-81677142D01*
X120300000Y-81534285D01*
X120347619Y-81486666D01*
X120252380Y-81153333D02*
X120252380Y-80534285D01*
X120633333Y-80867619D01*
X120633333Y-80724761D01*
X120680952Y-80629523D01*
X120728571Y-80581904D01*
X120823809Y-80534285D01*
X121061904Y-80534285D01*
X121157142Y-80581904D01*
X121204761Y-80629523D01*
X121252380Y-80724761D01*
X121252380Y-81010476D01*
X121204761Y-81105714D01*
X121157142Y-81153333D01*
%TO.C,C2*%
X86833333Y-98057142D02*
X86785714Y-98104761D01*
X86642857Y-98152380D01*
X86547619Y-98152380D01*
X86404761Y-98104761D01*
X86309523Y-98009523D01*
X86261904Y-97914285D01*
X86214285Y-97723809D01*
X86214285Y-97580952D01*
X86261904Y-97390476D01*
X86309523Y-97295238D01*
X86404761Y-97200000D01*
X86547619Y-97152380D01*
X86642857Y-97152380D01*
X86785714Y-97200000D01*
X86833333Y-97247619D01*
X87214285Y-97247619D02*
X87261904Y-97200000D01*
X87357142Y-97152380D01*
X87595238Y-97152380D01*
X87690476Y-97200000D01*
X87738095Y-97247619D01*
X87785714Y-97342857D01*
X87785714Y-97438095D01*
X87738095Y-97580952D01*
X87166666Y-98152380D01*
X87785714Y-98152380D01*
%TO.C,C1*%
X84107142Y-97166666D02*
X84154761Y-97214285D01*
X84202380Y-97357142D01*
X84202380Y-97452380D01*
X84154761Y-97595238D01*
X84059523Y-97690476D01*
X83964285Y-97738095D01*
X83773809Y-97785714D01*
X83630952Y-97785714D01*
X83440476Y-97738095D01*
X83345238Y-97690476D01*
X83250000Y-97595238D01*
X83202380Y-97452380D01*
X83202380Y-97357142D01*
X83250000Y-97214285D01*
X83297619Y-97166666D01*
X84202380Y-96214285D02*
X84202380Y-96785714D01*
X84202380Y-96500000D02*
X83202380Y-96500000D01*
X83345238Y-96595238D01*
X83440476Y-96690476D01*
X83488095Y-96785714D01*
%TO.C,R14*%
X96937142Y-70582380D02*
X96603809Y-70106190D01*
X96365714Y-70582380D02*
X96365714Y-69582380D01*
X96746666Y-69582380D01*
X96841904Y-69630000D01*
X96889523Y-69677619D01*
X96937142Y-69772857D01*
X96937142Y-69915714D01*
X96889523Y-70010952D01*
X96841904Y-70058571D01*
X96746666Y-70106190D01*
X96365714Y-70106190D01*
X97889523Y-70582380D02*
X97318095Y-70582380D01*
X97603809Y-70582380D02*
X97603809Y-69582380D01*
X97508571Y-69725238D01*
X97413333Y-69820476D01*
X97318095Y-69868095D01*
X98746666Y-69915714D02*
X98746666Y-70582380D01*
X98508571Y-69534761D02*
X98270476Y-70249047D01*
X98889523Y-70249047D01*
%TO.C,R13*%
X114277142Y-75322380D02*
X113943809Y-74846190D01*
X113705714Y-75322380D02*
X113705714Y-74322380D01*
X114086666Y-74322380D01*
X114181904Y-74370000D01*
X114229523Y-74417619D01*
X114277142Y-74512857D01*
X114277142Y-74655714D01*
X114229523Y-74750952D01*
X114181904Y-74798571D01*
X114086666Y-74846190D01*
X113705714Y-74846190D01*
X115229523Y-75322380D02*
X114658095Y-75322380D01*
X114943809Y-75322380D02*
X114943809Y-74322380D01*
X114848571Y-74465238D01*
X114753333Y-74560476D01*
X114658095Y-74608095D01*
X115562857Y-74322380D02*
X116181904Y-74322380D01*
X115848571Y-74703333D01*
X115991428Y-74703333D01*
X116086666Y-74750952D01*
X116134285Y-74798571D01*
X116181904Y-74893809D01*
X116181904Y-75131904D01*
X116134285Y-75227142D01*
X116086666Y-75274761D01*
X115991428Y-75322380D01*
X115705714Y-75322380D01*
X115610476Y-75274761D01*
X115562857Y-75227142D01*
%TO.C,Q4*%
X112214761Y-95107619D02*
X112119523Y-95060000D01*
X112024285Y-94964761D01*
X111881428Y-94821904D01*
X111786190Y-94774285D01*
X111690952Y-94774285D01*
X111738571Y-95012380D02*
X111643333Y-94964761D01*
X111548095Y-94869523D01*
X111500476Y-94679047D01*
X111500476Y-94345714D01*
X111548095Y-94155238D01*
X111643333Y-94060000D01*
X111738571Y-94012380D01*
X111929047Y-94012380D01*
X112024285Y-94060000D01*
X112119523Y-94155238D01*
X112167142Y-94345714D01*
X112167142Y-94679047D01*
X112119523Y-94869523D01*
X112024285Y-94964761D01*
X111929047Y-95012380D01*
X111738571Y-95012380D01*
X113024285Y-94345714D02*
X113024285Y-95012380D01*
X112786190Y-93964761D02*
X112548095Y-94679047D01*
X113167142Y-94679047D01*
%TO.C,Q3*%
X112214761Y-100107619D02*
X112119523Y-100060000D01*
X112024285Y-99964761D01*
X111881428Y-99821904D01*
X111786190Y-99774285D01*
X111690952Y-99774285D01*
X111738571Y-100012380D02*
X111643333Y-99964761D01*
X111548095Y-99869523D01*
X111500476Y-99679047D01*
X111500476Y-99345714D01*
X111548095Y-99155238D01*
X111643333Y-99060000D01*
X111738571Y-99012380D01*
X111929047Y-99012380D01*
X112024285Y-99060000D01*
X112119523Y-99155238D01*
X112167142Y-99345714D01*
X112167142Y-99679047D01*
X112119523Y-99869523D01*
X112024285Y-99964761D01*
X111929047Y-100012380D01*
X111738571Y-100012380D01*
X112500476Y-99012380D02*
X113119523Y-99012380D01*
X112786190Y-99393333D01*
X112929047Y-99393333D01*
X113024285Y-99440952D01*
X113071904Y-99488571D01*
X113119523Y-99583809D01*
X113119523Y-99821904D01*
X113071904Y-99917142D01*
X113024285Y-99964761D01*
X112929047Y-100012380D01*
X112643333Y-100012380D01*
X112548095Y-99964761D01*
X112500476Y-99917142D01*
%TO.C,Q2*%
X114607619Y-103985238D02*
X114560000Y-104080476D01*
X114464761Y-104175714D01*
X114321904Y-104318571D01*
X114274285Y-104413809D01*
X114274285Y-104509047D01*
X114512380Y-104461428D02*
X114464761Y-104556666D01*
X114369523Y-104651904D01*
X114179047Y-104699523D01*
X113845714Y-104699523D01*
X113655238Y-104651904D01*
X113560000Y-104556666D01*
X113512380Y-104461428D01*
X113512380Y-104270952D01*
X113560000Y-104175714D01*
X113655238Y-104080476D01*
X113845714Y-104032857D01*
X114179047Y-104032857D01*
X114369523Y-104080476D01*
X114464761Y-104175714D01*
X114512380Y-104270952D01*
X114512380Y-104461428D01*
X113607619Y-103651904D02*
X113560000Y-103604285D01*
X113512380Y-103509047D01*
X113512380Y-103270952D01*
X113560000Y-103175714D01*
X113607619Y-103128095D01*
X113702857Y-103080476D01*
X113798095Y-103080476D01*
X113940952Y-103128095D01*
X114512380Y-103699523D01*
X114512380Y-103080476D01*
%TO.C,Q1*%
X109607619Y-103985238D02*
X109560000Y-104080476D01*
X109464761Y-104175714D01*
X109321904Y-104318571D01*
X109274285Y-104413809D01*
X109274285Y-104509047D01*
X109512380Y-104461428D02*
X109464761Y-104556666D01*
X109369523Y-104651904D01*
X109179047Y-104699523D01*
X108845714Y-104699523D01*
X108655238Y-104651904D01*
X108560000Y-104556666D01*
X108512380Y-104461428D01*
X108512380Y-104270952D01*
X108560000Y-104175714D01*
X108655238Y-104080476D01*
X108845714Y-104032857D01*
X109179047Y-104032857D01*
X109369523Y-104080476D01*
X109464761Y-104175714D01*
X109512380Y-104270952D01*
X109512380Y-104461428D01*
X109512380Y-103080476D02*
X109512380Y-103651904D01*
X109512380Y-103366190D02*
X108512380Y-103366190D01*
X108655238Y-103461428D01*
X108750476Y-103556666D01*
X108798095Y-103651904D01*
%TO.C,TR1*%
X145738095Y-115452380D02*
X146309523Y-115452380D01*
X146023809Y-116452380D02*
X146023809Y-115452380D01*
X147214285Y-116452380D02*
X146880952Y-115976190D01*
X146642857Y-116452380D02*
X146642857Y-115452380D01*
X147023809Y-115452380D01*
X147119047Y-115500000D01*
X147166666Y-115547619D01*
X147214285Y-115642857D01*
X147214285Y-115785714D01*
X147166666Y-115880952D01*
X147119047Y-115928571D01*
X147023809Y-115976190D01*
X146642857Y-115976190D01*
X148166666Y-116452380D02*
X147595238Y-116452380D01*
X147880952Y-116452380D02*
X147880952Y-115452380D01*
X147785714Y-115595238D01*
X147690476Y-115690476D01*
X147595238Y-115738095D01*
%TO.C,R11*%
X119217142Y-118002380D02*
X118883809Y-117526190D01*
X118645714Y-118002380D02*
X118645714Y-117002380D01*
X119026666Y-117002380D01*
X119121904Y-117050000D01*
X119169523Y-117097619D01*
X119217142Y-117192857D01*
X119217142Y-117335714D01*
X119169523Y-117430952D01*
X119121904Y-117478571D01*
X119026666Y-117526190D01*
X118645714Y-117526190D01*
X120169523Y-118002380D02*
X119598095Y-118002380D01*
X119883809Y-118002380D02*
X119883809Y-117002380D01*
X119788571Y-117145238D01*
X119693333Y-117240476D01*
X119598095Y-117288095D01*
X121121904Y-118002380D02*
X120550476Y-118002380D01*
X120836190Y-118002380D02*
X120836190Y-117002380D01*
X120740952Y-117145238D01*
X120645714Y-117240476D01*
X120550476Y-117288095D01*
%TO.C,R10*%
X107862380Y-93022857D02*
X107386190Y-93356190D01*
X107862380Y-93594285D02*
X106862380Y-93594285D01*
X106862380Y-93213333D01*
X106910000Y-93118095D01*
X106957619Y-93070476D01*
X107052857Y-93022857D01*
X107195714Y-93022857D01*
X107290952Y-93070476D01*
X107338571Y-93118095D01*
X107386190Y-93213333D01*
X107386190Y-93594285D01*
X107862380Y-92070476D02*
X107862380Y-92641904D01*
X107862380Y-92356190D02*
X106862380Y-92356190D01*
X107005238Y-92451428D01*
X107100476Y-92546666D01*
X107148095Y-92641904D01*
X106862380Y-91451428D02*
X106862380Y-91356190D01*
X106910000Y-91260952D01*
X106957619Y-91213333D01*
X107052857Y-91165714D01*
X107243333Y-91118095D01*
X107481428Y-91118095D01*
X107671904Y-91165714D01*
X107767142Y-91213333D01*
X107814761Y-91260952D01*
X107862380Y-91356190D01*
X107862380Y-91451428D01*
X107814761Y-91546666D01*
X107767142Y-91594285D01*
X107671904Y-91641904D01*
X107481428Y-91689523D01*
X107243333Y-91689523D01*
X107052857Y-91641904D01*
X106957619Y-91594285D01*
X106910000Y-91546666D01*
X106862380Y-91451428D01*
%TO.C,R9*%
X115082380Y-99086666D02*
X114606190Y-99420000D01*
X115082380Y-99658095D02*
X114082380Y-99658095D01*
X114082380Y-99277142D01*
X114130000Y-99181904D01*
X114177619Y-99134285D01*
X114272857Y-99086666D01*
X114415714Y-99086666D01*
X114510952Y-99134285D01*
X114558571Y-99181904D01*
X114606190Y-99277142D01*
X114606190Y-99658095D01*
X115082380Y-98610476D02*
X115082380Y-98420000D01*
X115034761Y-98324761D01*
X114987142Y-98277142D01*
X114844285Y-98181904D01*
X114653809Y-98134285D01*
X114272857Y-98134285D01*
X114177619Y-98181904D01*
X114130000Y-98229523D01*
X114082380Y-98324761D01*
X114082380Y-98515238D01*
X114130000Y-98610476D01*
X114177619Y-98658095D01*
X114272857Y-98705714D01*
X114510952Y-98705714D01*
X114606190Y-98658095D01*
X114653809Y-98610476D01*
X114701428Y-98515238D01*
X114701428Y-98324761D01*
X114653809Y-98229523D01*
X114606190Y-98181904D01*
X114510952Y-98134285D01*
%TO.C,R8*%
X106822380Y-92746666D02*
X106346190Y-93080000D01*
X106822380Y-93318095D02*
X105822380Y-93318095D01*
X105822380Y-92937142D01*
X105870000Y-92841904D01*
X105917619Y-92794285D01*
X106012857Y-92746666D01*
X106155714Y-92746666D01*
X106250952Y-92794285D01*
X106298571Y-92841904D01*
X106346190Y-92937142D01*
X106346190Y-93318095D01*
X106250952Y-92175238D02*
X106203333Y-92270476D01*
X106155714Y-92318095D01*
X106060476Y-92365714D01*
X106012857Y-92365714D01*
X105917619Y-92318095D01*
X105870000Y-92270476D01*
X105822380Y-92175238D01*
X105822380Y-91984761D01*
X105870000Y-91889523D01*
X105917619Y-91841904D01*
X106012857Y-91794285D01*
X106060476Y-91794285D01*
X106155714Y-91841904D01*
X106203333Y-91889523D01*
X106250952Y-91984761D01*
X106250952Y-92175238D01*
X106298571Y-92270476D01*
X106346190Y-92318095D01*
X106441428Y-92365714D01*
X106631904Y-92365714D01*
X106727142Y-92318095D01*
X106774761Y-92270476D01*
X106822380Y-92175238D01*
X106822380Y-91984761D01*
X106774761Y-91889523D01*
X106727142Y-91841904D01*
X106631904Y-91794285D01*
X106441428Y-91794285D01*
X106346190Y-91841904D01*
X106298571Y-91889523D01*
X106250952Y-91984761D01*
%TO.C,R7*%
X84253333Y-104322380D02*
X83920000Y-103846190D01*
X83681904Y-104322380D02*
X83681904Y-103322380D01*
X84062857Y-103322380D01*
X84158095Y-103370000D01*
X84205714Y-103417619D01*
X84253333Y-103512857D01*
X84253333Y-103655714D01*
X84205714Y-103750952D01*
X84158095Y-103798571D01*
X84062857Y-103846190D01*
X83681904Y-103846190D01*
X84586666Y-103322380D02*
X85253333Y-103322380D01*
X84824761Y-104322380D01*
%TO.C,R6*%
X84413333Y-87082380D02*
X84080000Y-86606190D01*
X83841904Y-87082380D02*
X83841904Y-86082380D01*
X84222857Y-86082380D01*
X84318095Y-86130000D01*
X84365714Y-86177619D01*
X84413333Y-86272857D01*
X84413333Y-86415714D01*
X84365714Y-86510952D01*
X84318095Y-86558571D01*
X84222857Y-86606190D01*
X83841904Y-86606190D01*
X85270476Y-86082380D02*
X85080000Y-86082380D01*
X84984761Y-86130000D01*
X84937142Y-86177619D01*
X84841904Y-86320476D01*
X84794285Y-86510952D01*
X84794285Y-86891904D01*
X84841904Y-86987142D01*
X84889523Y-87034761D01*
X84984761Y-87082380D01*
X85175238Y-87082380D01*
X85270476Y-87034761D01*
X85318095Y-86987142D01*
X85365714Y-86891904D01*
X85365714Y-86653809D01*
X85318095Y-86558571D01*
X85270476Y-86510952D01*
X85175238Y-86463333D01*
X84984761Y-86463333D01*
X84889523Y-86510952D01*
X84841904Y-86558571D01*
X84794285Y-86653809D01*
%TO.C,R5*%
X84413333Y-88322380D02*
X84080000Y-87846190D01*
X83841904Y-88322380D02*
X83841904Y-87322380D01*
X84222857Y-87322380D01*
X84318095Y-87370000D01*
X84365714Y-87417619D01*
X84413333Y-87512857D01*
X84413333Y-87655714D01*
X84365714Y-87750952D01*
X84318095Y-87798571D01*
X84222857Y-87846190D01*
X83841904Y-87846190D01*
X85318095Y-87322380D02*
X84841904Y-87322380D01*
X84794285Y-87798571D01*
X84841904Y-87750952D01*
X84937142Y-87703333D01*
X85175238Y-87703333D01*
X85270476Y-87750952D01*
X85318095Y-87798571D01*
X85365714Y-87893809D01*
X85365714Y-88131904D01*
X85318095Y-88227142D01*
X85270476Y-88274761D01*
X85175238Y-88322380D01*
X84937142Y-88322380D01*
X84841904Y-88274761D01*
X84794285Y-88227142D01*
%TO.C,R4*%
X84413333Y-103082380D02*
X84080000Y-102606190D01*
X83841904Y-103082380D02*
X83841904Y-102082380D01*
X84222857Y-102082380D01*
X84318095Y-102130000D01*
X84365714Y-102177619D01*
X84413333Y-102272857D01*
X84413333Y-102415714D01*
X84365714Y-102510952D01*
X84318095Y-102558571D01*
X84222857Y-102606190D01*
X83841904Y-102606190D01*
X85270476Y-102415714D02*
X85270476Y-103082380D01*
X85032380Y-102034761D02*
X84794285Y-102749047D01*
X85413333Y-102749047D01*
%TO.C,R3*%
X84413333Y-90582380D02*
X84080000Y-90106190D01*
X83841904Y-90582380D02*
X83841904Y-89582380D01*
X84222857Y-89582380D01*
X84318095Y-89630000D01*
X84365714Y-89677619D01*
X84413333Y-89772857D01*
X84413333Y-89915714D01*
X84365714Y-90010952D01*
X84318095Y-90058571D01*
X84222857Y-90106190D01*
X83841904Y-90106190D01*
X84746666Y-89582380D02*
X85365714Y-89582380D01*
X85032380Y-89963333D01*
X85175238Y-89963333D01*
X85270476Y-90010952D01*
X85318095Y-90058571D01*
X85365714Y-90153809D01*
X85365714Y-90391904D01*
X85318095Y-90487142D01*
X85270476Y-90534761D01*
X85175238Y-90582380D01*
X84889523Y-90582380D01*
X84794285Y-90534761D01*
X84746666Y-90487142D01*
%TO.C,R2*%
X174333333Y-83912380D02*
X174000000Y-83436190D01*
X173761904Y-83912380D02*
X173761904Y-82912380D01*
X174142857Y-82912380D01*
X174238095Y-82960000D01*
X174285714Y-83007619D01*
X174333333Y-83102857D01*
X174333333Y-83245714D01*
X174285714Y-83340952D01*
X174238095Y-83388571D01*
X174142857Y-83436190D01*
X173761904Y-83436190D01*
X174714285Y-83007619D02*
X174761904Y-82960000D01*
X174857142Y-82912380D01*
X175095238Y-82912380D01*
X175190476Y-82960000D01*
X175238095Y-83007619D01*
X175285714Y-83102857D01*
X175285714Y-83198095D01*
X175238095Y-83340952D01*
X174666666Y-83912380D01*
X175285714Y-83912380D01*
%TO.C,R1*%
X134923333Y-70842380D02*
X134590000Y-70366190D01*
X134351904Y-70842380D02*
X134351904Y-69842380D01*
X134732857Y-69842380D01*
X134828095Y-69890000D01*
X134875714Y-69937619D01*
X134923333Y-70032857D01*
X134923333Y-70175714D01*
X134875714Y-70270952D01*
X134828095Y-70318571D01*
X134732857Y-70366190D01*
X134351904Y-70366190D01*
X135875714Y-70842380D02*
X135304285Y-70842380D01*
X135590000Y-70842380D02*
X135590000Y-69842380D01*
X135494761Y-69985238D01*
X135399523Y-70080476D01*
X135304285Y-70128095D01*
%TO.C,Q8*%
X104054761Y-68817619D02*
X103959523Y-68770000D01*
X103864285Y-68674761D01*
X103721428Y-68531904D01*
X103626190Y-68484285D01*
X103530952Y-68484285D01*
X103578571Y-68722380D02*
X103483333Y-68674761D01*
X103388095Y-68579523D01*
X103340476Y-68389047D01*
X103340476Y-68055714D01*
X103388095Y-67865238D01*
X103483333Y-67770000D01*
X103578571Y-67722380D01*
X103769047Y-67722380D01*
X103864285Y-67770000D01*
X103959523Y-67865238D01*
X104007142Y-68055714D01*
X104007142Y-68389047D01*
X103959523Y-68579523D01*
X103864285Y-68674761D01*
X103769047Y-68722380D01*
X103578571Y-68722380D01*
X104578571Y-68150952D02*
X104483333Y-68103333D01*
X104435714Y-68055714D01*
X104388095Y-67960476D01*
X104388095Y-67912857D01*
X104435714Y-67817619D01*
X104483333Y-67770000D01*
X104578571Y-67722380D01*
X104769047Y-67722380D01*
X104864285Y-67770000D01*
X104911904Y-67817619D01*
X104959523Y-67912857D01*
X104959523Y-67960476D01*
X104911904Y-68055714D01*
X104864285Y-68103333D01*
X104769047Y-68150952D01*
X104578571Y-68150952D01*
X104483333Y-68198571D01*
X104435714Y-68246190D01*
X104388095Y-68341428D01*
X104388095Y-68531904D01*
X104435714Y-68627142D01*
X104483333Y-68674761D01*
X104578571Y-68722380D01*
X104769047Y-68722380D01*
X104864285Y-68674761D01*
X104911904Y-68627142D01*
X104959523Y-68531904D01*
X104959523Y-68341428D01*
X104911904Y-68246190D01*
X104864285Y-68198571D01*
X104769047Y-68150952D01*
%TO.C,Q7*%
X129354761Y-122787619D02*
X129259523Y-122740000D01*
X129164285Y-122644761D01*
X129021428Y-122501904D01*
X128926190Y-122454285D01*
X128830952Y-122454285D01*
X128878571Y-122692380D02*
X128783333Y-122644761D01*
X128688095Y-122549523D01*
X128640476Y-122359047D01*
X128640476Y-122025714D01*
X128688095Y-121835238D01*
X128783333Y-121740000D01*
X128878571Y-121692380D01*
X129069047Y-121692380D01*
X129164285Y-121740000D01*
X129259523Y-121835238D01*
X129307142Y-122025714D01*
X129307142Y-122359047D01*
X129259523Y-122549523D01*
X129164285Y-122644761D01*
X129069047Y-122692380D01*
X128878571Y-122692380D01*
X129640476Y-121692380D02*
X130307142Y-121692380D01*
X129878571Y-122692380D01*
%TO.C,Q6*%
X115464761Y-68527619D02*
X115369523Y-68480000D01*
X115274285Y-68384761D01*
X115131428Y-68241904D01*
X115036190Y-68194285D01*
X114940952Y-68194285D01*
X114988571Y-68432380D02*
X114893333Y-68384761D01*
X114798095Y-68289523D01*
X114750476Y-68099047D01*
X114750476Y-67765714D01*
X114798095Y-67575238D01*
X114893333Y-67480000D01*
X114988571Y-67432380D01*
X115179047Y-67432380D01*
X115274285Y-67480000D01*
X115369523Y-67575238D01*
X115417142Y-67765714D01*
X115417142Y-68099047D01*
X115369523Y-68289523D01*
X115274285Y-68384761D01*
X115179047Y-68432380D01*
X114988571Y-68432380D01*
X116274285Y-67432380D02*
X116083809Y-67432380D01*
X115988571Y-67480000D01*
X115940952Y-67527619D01*
X115845714Y-67670476D01*
X115798095Y-67860952D01*
X115798095Y-68241904D01*
X115845714Y-68337142D01*
X115893333Y-68384761D01*
X115988571Y-68432380D01*
X116179047Y-68432380D01*
X116274285Y-68384761D01*
X116321904Y-68337142D01*
X116369523Y-68241904D01*
X116369523Y-68003809D01*
X116321904Y-67908571D01*
X116274285Y-67860952D01*
X116179047Y-67813333D01*
X115988571Y-67813333D01*
X115893333Y-67860952D01*
X115845714Y-67908571D01*
X115798095Y-68003809D01*
%TO.C,Q5*%
X104074761Y-123107619D02*
X103979523Y-123060000D01*
X103884285Y-122964761D01*
X103741428Y-122821904D01*
X103646190Y-122774285D01*
X103550952Y-122774285D01*
X103598571Y-123012380D02*
X103503333Y-122964761D01*
X103408095Y-122869523D01*
X103360476Y-122679047D01*
X103360476Y-122345714D01*
X103408095Y-122155238D01*
X103503333Y-122060000D01*
X103598571Y-122012380D01*
X103789047Y-122012380D01*
X103884285Y-122060000D01*
X103979523Y-122155238D01*
X104027142Y-122345714D01*
X104027142Y-122679047D01*
X103979523Y-122869523D01*
X103884285Y-122964761D01*
X103789047Y-123012380D01*
X103598571Y-123012380D01*
X104931904Y-122012380D02*
X104455714Y-122012380D01*
X104408095Y-122488571D01*
X104455714Y-122440952D01*
X104550952Y-122393333D01*
X104789047Y-122393333D01*
X104884285Y-122440952D01*
X104931904Y-122488571D01*
X104979523Y-122583809D01*
X104979523Y-122821904D01*
X104931904Y-122917142D01*
X104884285Y-122964761D01*
X104789047Y-123012380D01*
X104550952Y-123012380D01*
X104455714Y-122964761D01*
X104408095Y-122917142D01*
%TO.C,J2*%
X199042380Y-96003333D02*
X199756666Y-96003333D01*
X199899523Y-96050952D01*
X199994761Y-96146190D01*
X200042380Y-96289047D01*
X200042380Y-96384285D01*
X199137619Y-95574761D02*
X199090000Y-95527142D01*
X199042380Y-95431904D01*
X199042380Y-95193809D01*
X199090000Y-95098571D01*
X199137619Y-95050952D01*
X199232857Y-95003333D01*
X199328095Y-95003333D01*
X199470952Y-95050952D01*
X200042380Y-95622380D01*
X200042380Y-95003333D01*
%TO.C,J1*%
X74712380Y-116233333D02*
X75426666Y-116233333D01*
X75569523Y-116280952D01*
X75664761Y-116376190D01*
X75712380Y-116519047D01*
X75712380Y-116614285D01*
X75712380Y-115233333D02*
X75712380Y-115804761D01*
X75712380Y-115519047D02*
X74712380Y-115519047D01*
X74855238Y-115614285D01*
X74950476Y-115709523D01*
X74998095Y-115804761D01*
%TO.C,F1*%
X79056666Y-73768571D02*
X78723333Y-73768571D01*
X78723333Y-74292380D02*
X78723333Y-73292380D01*
X79199523Y-73292380D01*
X80104285Y-74292380D02*
X79532857Y-74292380D01*
X79818571Y-74292380D02*
X79818571Y-73292380D01*
X79723333Y-73435238D01*
X79628095Y-73530476D01*
X79532857Y-73578095D01*
%TO.C,C12*%
X205907142Y-115892857D02*
X205954761Y-115940476D01*
X206002380Y-116083333D01*
X206002380Y-116178571D01*
X205954761Y-116321428D01*
X205859523Y-116416666D01*
X205764285Y-116464285D01*
X205573809Y-116511904D01*
X205430952Y-116511904D01*
X205240476Y-116464285D01*
X205145238Y-116416666D01*
X205050000Y-116321428D01*
X205002380Y-116178571D01*
X205002380Y-116083333D01*
X205050000Y-115940476D01*
X205097619Y-115892857D01*
X206002380Y-114940476D02*
X206002380Y-115511904D01*
X206002380Y-115226190D02*
X205002380Y-115226190D01*
X205145238Y-115321428D01*
X205240476Y-115416666D01*
X205288095Y-115511904D01*
X205097619Y-114559523D02*
X205050000Y-114511904D01*
X205002380Y-114416666D01*
X205002380Y-114178571D01*
X205050000Y-114083333D01*
X205097619Y-114035714D01*
X205192857Y-113988095D01*
X205288095Y-113988095D01*
X205430952Y-114035714D01*
X206002380Y-114607142D01*
X206002380Y-113988095D01*
%TO.C,C11*%
X190907142Y-78642857D02*
X190954761Y-78690476D01*
X191002380Y-78833333D01*
X191002380Y-78928571D01*
X190954761Y-79071428D01*
X190859523Y-79166666D01*
X190764285Y-79214285D01*
X190573809Y-79261904D01*
X190430952Y-79261904D01*
X190240476Y-79214285D01*
X190145238Y-79166666D01*
X190050000Y-79071428D01*
X190002380Y-78928571D01*
X190002380Y-78833333D01*
X190050000Y-78690476D01*
X190097619Y-78642857D01*
X191002380Y-77690476D02*
X191002380Y-78261904D01*
X191002380Y-77976190D02*
X190002380Y-77976190D01*
X190145238Y-78071428D01*
X190240476Y-78166666D01*
X190288095Y-78261904D01*
X191002380Y-76738095D02*
X191002380Y-77309523D01*
X191002380Y-77023809D02*
X190002380Y-77023809D01*
X190145238Y-77119047D01*
X190240476Y-77214285D01*
X190288095Y-77309523D01*
%TO.C,C10*%
X190907142Y-111842857D02*
X190954761Y-111890476D01*
X191002380Y-112033333D01*
X191002380Y-112128571D01*
X190954761Y-112271428D01*
X190859523Y-112366666D01*
X190764285Y-112414285D01*
X190573809Y-112461904D01*
X190430952Y-112461904D01*
X190240476Y-112414285D01*
X190145238Y-112366666D01*
X190050000Y-112271428D01*
X190002380Y-112128571D01*
X190002380Y-112033333D01*
X190050000Y-111890476D01*
X190097619Y-111842857D01*
X191002380Y-110890476D02*
X191002380Y-111461904D01*
X191002380Y-111176190D02*
X190002380Y-111176190D01*
X190145238Y-111271428D01*
X190240476Y-111366666D01*
X190288095Y-111461904D01*
X190002380Y-110271428D02*
X190002380Y-110176190D01*
X190050000Y-110080952D01*
X190097619Y-110033333D01*
X190192857Y-109985714D01*
X190383333Y-109938095D01*
X190621428Y-109938095D01*
X190811904Y-109985714D01*
X190907142Y-110033333D01*
X190954761Y-110080952D01*
X191002380Y-110176190D01*
X191002380Y-110271428D01*
X190954761Y-110366666D01*
X190907142Y-110414285D01*
X190811904Y-110461904D01*
X190621428Y-110509523D01*
X190383333Y-110509523D01*
X190192857Y-110461904D01*
X190097619Y-110414285D01*
X190050000Y-110366666D01*
X190002380Y-110271428D01*
%TO.C,C9*%
X190907142Y-89366666D02*
X190954761Y-89414285D01*
X191002380Y-89557142D01*
X191002380Y-89652380D01*
X190954761Y-89795238D01*
X190859523Y-89890476D01*
X190764285Y-89938095D01*
X190573809Y-89985714D01*
X190430952Y-89985714D01*
X190240476Y-89938095D01*
X190145238Y-89890476D01*
X190050000Y-89795238D01*
X190002380Y-89652380D01*
X190002380Y-89557142D01*
X190050000Y-89414285D01*
X190097619Y-89366666D01*
X191002380Y-88890476D02*
X191002380Y-88700000D01*
X190954761Y-88604761D01*
X190907142Y-88557142D01*
X190764285Y-88461904D01*
X190573809Y-88414285D01*
X190192857Y-88414285D01*
X190097619Y-88461904D01*
X190050000Y-88509523D01*
X190002380Y-88604761D01*
X190002380Y-88795238D01*
X190050000Y-88890476D01*
X190097619Y-88938095D01*
X190192857Y-88985714D01*
X190430952Y-88985714D01*
X190526190Y-88938095D01*
X190573809Y-88890476D01*
X190621428Y-88795238D01*
X190621428Y-88604761D01*
X190573809Y-88509523D01*
X190526190Y-88461904D01*
X190430952Y-88414285D01*
%TO.C,C8*%
X201907142Y-111366666D02*
X201954761Y-111414285D01*
X202002380Y-111557142D01*
X202002380Y-111652380D01*
X201954761Y-111795238D01*
X201859523Y-111890476D01*
X201764285Y-111938095D01*
X201573809Y-111985714D01*
X201430952Y-111985714D01*
X201240476Y-111938095D01*
X201145238Y-111890476D01*
X201050000Y-111795238D01*
X201002380Y-111652380D01*
X201002380Y-111557142D01*
X201050000Y-111414285D01*
X201097619Y-111366666D01*
X201430952Y-110795238D02*
X201383333Y-110890476D01*
X201335714Y-110938095D01*
X201240476Y-110985714D01*
X201192857Y-110985714D01*
X201097619Y-110938095D01*
X201050000Y-110890476D01*
X201002380Y-110795238D01*
X201002380Y-110604761D01*
X201050000Y-110509523D01*
X201097619Y-110461904D01*
X201192857Y-110414285D01*
X201240476Y-110414285D01*
X201335714Y-110461904D01*
X201383333Y-110509523D01*
X201430952Y-110604761D01*
X201430952Y-110795238D01*
X201478571Y-110890476D01*
X201526190Y-110938095D01*
X201621428Y-110985714D01*
X201811904Y-110985714D01*
X201907142Y-110938095D01*
X201954761Y-110890476D01*
X202002380Y-110795238D01*
X202002380Y-110604761D01*
X201954761Y-110509523D01*
X201907142Y-110461904D01*
X201811904Y-110414285D01*
X201621428Y-110414285D01*
X201526190Y-110461904D01*
X201478571Y-110509523D01*
X201430952Y-110604761D01*
%TO.C,C7*%
X201907142Y-89366666D02*
X201954761Y-89414285D01*
X202002380Y-89557142D01*
X202002380Y-89652380D01*
X201954761Y-89795238D01*
X201859523Y-89890476D01*
X201764285Y-89938095D01*
X201573809Y-89985714D01*
X201430952Y-89985714D01*
X201240476Y-89938095D01*
X201145238Y-89890476D01*
X201050000Y-89795238D01*
X201002380Y-89652380D01*
X201002380Y-89557142D01*
X201050000Y-89414285D01*
X201097619Y-89366666D01*
X201002380Y-89033333D02*
X201002380Y-88366666D01*
X202002380Y-88795238D01*
%TD*%
M02*
