M48
; DRILL file {KiCad (5.1.6)-1} date 12/26/20 12:13:40
; FORMAT={-:-/ absolute / inch / decimal}
; #@! TF.CreationDate,2020-12-26T12:13:40-05:00
; #@! TF.GenerationSoftware,Kicad,Pcbnew,(5.1.6)-1
; #@! TF.FileFunction,Plated,1,2,PTH
FMAT,2
INCH
T1C0.0197
T2C0.0236
T3C0.0295
T4C0.0315
T5C0.0354
T6C0.0394
T7C0.0433
T8C0.0787
T9C0.0866
T10C0.1260
%
G90
G05
T1
X2.6614Y-4.7244
X2.6891Y-4.6576
X2.6891Y-4.7912
X2.7559Y-4.6299
X2.7559Y-4.8189
X2.8227Y-4.6576
X2.8227Y-4.7912
X2.8504Y-4.7244
X8.1732Y-4.7244
X8.2009Y-4.6576
X8.2009Y-4.7912
X8.2677Y-4.6299
X8.2677Y-4.8189
X8.3345Y-4.6576
X8.3345Y-4.7912
X8.3622Y-4.7244
X2.6614Y-2.7559
X2.6891Y-2.6891
X2.6891Y-2.8227
X2.7559Y-2.6614
X2.7559Y-2.8504
X2.8227Y-2.6891
X2.8227Y-2.8227
X2.8504Y-2.7559
X8.1732Y-2.7559
X8.2009Y-2.6891
X8.2009Y-2.8227
X8.2677Y-2.6614
X8.2677Y-2.8504
X8.3345Y-2.6891
X8.3345Y-2.8227
X8.3622Y-2.7559
T2
X3.1693Y-3.7795
X3.1693Y-3.8583
T3
X4.3504Y-4.0433
X4.3504Y-4.0933
X4.3504Y-4.1433
X4.3685Y-3.7795
X4.4185Y-3.7795
X4.4685Y-3.7795
X4.1535Y-4.0433
X4.1535Y-4.0933
X4.1535Y-4.1433
X4.3685Y-3.5827
X4.4185Y-3.5827
X4.4685Y-3.5827
T4
X3.1299Y-3.3661
X3.5299Y-3.3661
X3.9961Y-4.626
X4.3961Y-4.626
X3.3268Y-3.7598
X3.5236Y-3.7598
X4.8425Y-3.1031
X4.8425Y-3.3
X3.6417Y-2.8543
X4.0417Y-2.8543
X5.1181Y-2.7756
X5.5181Y-2.7756
X6.6669Y-3.2874
X7.0669Y-3.2874
X3.1236Y-3.9961
X3.5236Y-3.9961
X4.6063Y-3.6945
X4.6063Y-4.0945
X4.1535Y-4.2913
X4.7535Y-4.2913
X4.5213Y-4.626
X4.9213Y-4.626
X3.1299Y-3.6417
X3.5299Y-3.6417
X7.9921Y-4.4882
X7.9921Y-4.5866
X3.6512Y-3.3535
X3.6512Y-3.4535
X3.6512Y-3.5535
X3.6512Y-3.6535
X3.6512Y-3.7535
X3.6512Y-3.8535
X3.6512Y-3.9535
X3.6512Y-4.0535
X3.9512Y-3.3535
X3.9512Y-3.4535
X3.9512Y-3.5535
X3.9512Y-3.6535
X3.9512Y-3.7535
X3.9512Y-3.8535
X3.9512Y-3.9535
X3.9512Y-4.0535
X3.1299Y-4.1339
X3.5299Y-4.1339
X4.0945Y-3.4449
X4.0945Y-3.8449
X7.9823Y-2.8642
X7.9823Y-2.9626
X5.6469Y-2.7756
X5.6469Y-2.8756
X5.9469Y-2.7756
X5.9469Y-2.8756
X3.1299Y-3.5039
X3.5299Y-3.5039
X4.3244Y-2.8543
X4.7244Y-2.8543
X4.2323Y-3.4386
X4.2323Y-3.8386
T5
X6.6079Y-2.8543
X7.0079Y-2.8543
X6.9488Y-3.6354
X6.9488Y-4.0354
T6
X3.4744Y-3.2504
X3.6614Y-4.2126
X3.8815Y-4.2126
X4.0945Y-3.3268
X4.2323Y-2.8543
X4.2323Y-3.3268
X4.4488Y-3.937
X4.4488Y-4.7638
X4.5398Y-3.378
X5.2228Y-3.378
X6.1811Y-3.4449
X6.6535Y-3.4449
X6.6732Y-4.6063
X6.9685Y-4.6063
X6.0866Y-2.7087
X6.185Y-2.9055
X6.2835Y-2.7087
X7.2559Y-4.2795
X7.2559Y-4.4764
X7.6969Y-2.9724
X7.6969Y-3.1693
X7.2559Y-2.9724
X7.2559Y-3.1693
X7.2559Y-3.8386
X7.2559Y-4.0354
X7.2559Y-3.4134
X7.2559Y-3.6102
X7.689Y-3.4134
X7.689Y-3.6102
X7.689Y-4.2795
X7.689Y-4.4764
X7.6969Y-3.8386
X7.6969Y-4.0354
T7
X6.7126Y-2.6969
X6.8126Y-2.6969
X6.9126Y-2.6969
X3.737Y-4.7835
X3.837Y-4.7835
X3.937Y-4.7835
X6.7094Y-4.7835
X6.8094Y-4.7835
X6.9094Y-4.7835
X4.7244Y-2.6969
X4.8244Y-2.6969
X4.9244Y-2.6969
X4.7244Y-4.7835
X4.8244Y-4.7835
X4.9244Y-4.7835
X3.737Y-2.6969
X3.837Y-2.6969
X3.937Y-2.6969
T8
X4.8031Y-3.7992
X5.0787Y-3.0906
X5.0787Y-4.5079
X6.4961Y-3.0906
X6.4961Y-4.5079
X6.7717Y-3.7992
T9
X2.7165Y-3.4843
X2.7165Y-3.878
X2.7165Y-4.2717
X8.2579Y-3.376
X8.2579Y-3.7697
X8.2579Y-4.1634
T10
X2.7559Y-4.7244
X8.2677Y-4.7244
X2.7559Y-2.7559
X8.2677Y-2.7559
T8
G00X2.8031Y-3.0709
M15
G01X2.6457Y-3.0709
M16
G05
G00X3.1693Y-3.0709
M15
G01X3.0118Y-3.0709
M16
G05
T0
M30
