%TF.GenerationSoftware,KiCad,Pcbnew,(5.1.6)-1*%
%TF.CreationDate,2020-12-26T12:13:23-05:00*%
%TF.ProjectId,fuente_smps_250w,6675656e-7465-45f7-936d-70735f323530,rev?*%
%TF.SameCoordinates,Original*%
%TF.FileFunction,Soldermask,Bot*%
%TF.FilePolarity,Negative*%
%FSLAX46Y46*%
G04 Gerber Fmt 4.6, Leading zero omitted, Abs format (unit mm)*
G04 Created by KiCad (PCBNEW (5.1.6)-1) date 2020-12-26 12:13:23*
%MOMM*%
%LPD*%
G01*
G04 APERTURE LIST*
%ADD10C,2.400000*%
%ADD11C,0.010000*%
%ADD12C,1.650000*%
%ADD13R,1.650000X1.650000*%
%ADD14O,2.500000X1.700000*%
%ADD15R,2.500000X1.700000*%
%ADD16O,1.700000X1.700000*%
%ADD17C,1.700000*%
%ADD18O,2.005000X2.100000*%
%ADD19R,2.005000X2.100000*%
%ADD20O,1.900000X1.900000*%
%ADD21R,1.900000X1.900000*%
%ADD22C,2.100000*%
%ADD23R,2.100000X2.100000*%
%ADD24C,1.300000*%
%ADD25R,1.300000X1.300000*%
%ADD26C,0.900000*%
%ADD27C,6.500000*%
%ADD28R,1.150000X1.600000*%
%ADD29R,1.600000X1.150000*%
%ADD30C,4.100000*%
%ADD31O,6.700000X3.400000*%
%ADD32R,6.700000X3.400000*%
%ADD33O,8.100000X3.900000*%
G04 APERTURE END LIST*
D10*
X81630000Y-78630000D02*
X81000000Y-78000000D01*
X81000000Y-78000000D02*
X78500000Y-78000000D01*
D11*
%TO.C,G\u002A\u002A\u002A*%
G36*
X186742493Y-118028455D02*
G01*
X186517608Y-118032416D01*
X186338603Y-118041026D01*
X186196675Y-118055927D01*
X186083021Y-118078763D01*
X185988840Y-118111176D01*
X185905327Y-118154809D01*
X185823680Y-118211305D01*
X185758011Y-118263405D01*
X185600031Y-118430554D01*
X185492832Y-118624409D01*
X185434996Y-118835516D01*
X185425103Y-119054425D01*
X185461734Y-119271684D01*
X185543470Y-119477841D01*
X185668890Y-119663445D01*
X185836577Y-119819043D01*
X186006552Y-119918500D01*
X186074375Y-119946982D01*
X186143351Y-119968323D01*
X186225222Y-119984102D01*
X186331729Y-119995896D01*
X186474616Y-120005284D01*
X186665624Y-120013844D01*
X186736124Y-120016565D01*
X186958181Y-120026169D01*
X187123463Y-120037157D01*
X187238693Y-120051389D01*
X187310594Y-120070725D01*
X187345888Y-120097025D01*
X187351299Y-120132150D01*
X187333550Y-120177960D01*
X187331742Y-120181376D01*
X187315461Y-120203904D01*
X187288123Y-120220635D01*
X187240544Y-120232714D01*
X187163544Y-120241289D01*
X187047942Y-120247504D01*
X186884555Y-120252505D01*
X186734227Y-120255954D01*
X186483287Y-120263990D01*
X186284942Y-120278276D01*
X186128350Y-120302220D01*
X186002668Y-120339228D01*
X185897056Y-120392708D01*
X185800671Y-120466065D01*
X185702671Y-120562706D01*
X185680035Y-120587193D01*
X185600981Y-120679035D01*
X185540097Y-120766692D01*
X185494938Y-120860350D01*
X185463058Y-120970196D01*
X185442012Y-121106416D01*
X185429354Y-121279195D01*
X185422640Y-121498721D01*
X185420327Y-121668984D01*
X185418876Y-121886455D01*
X185419843Y-122049779D01*
X185423861Y-122168287D01*
X185431564Y-122251308D01*
X185443586Y-122308170D01*
X185460558Y-122348203D01*
X185467178Y-122359042D01*
X185552207Y-122437889D01*
X185659843Y-122469160D01*
X185770686Y-122452897D01*
X185865335Y-122389144D01*
X185889434Y-122358110D01*
X185910067Y-122317739D01*
X185924300Y-122263155D01*
X185932967Y-122183760D01*
X185936900Y-122068956D01*
X185936931Y-121908145D01*
X185935268Y-121774837D01*
X185934556Y-121526886D01*
X185941704Y-121333672D01*
X185957907Y-121186783D01*
X185984362Y-121077808D01*
X186022265Y-120998335D01*
X186050941Y-120961376D01*
X186100712Y-120909082D01*
X186147253Y-120869865D01*
X186200521Y-120841555D01*
X186270469Y-120821985D01*
X186367055Y-120808987D01*
X186500233Y-120800394D01*
X186679959Y-120794037D01*
X186839080Y-120789750D01*
X187450752Y-120773875D01*
X187588314Y-120677215D01*
X187736087Y-120539535D01*
X187832431Y-120377899D01*
X187878756Y-120202707D01*
X187876478Y-120024359D01*
X187827007Y-119853254D01*
X187731758Y-119699791D01*
X187592144Y-119574370D01*
X187427450Y-119493277D01*
X187350804Y-119478656D01*
X187221054Y-119467210D01*
X187048541Y-119459558D01*
X186843610Y-119456317D01*
X186807830Y-119456250D01*
X186608790Y-119455302D01*
X186462005Y-119451747D01*
X186356246Y-119444518D01*
X186280286Y-119432548D01*
X186222897Y-119414769D01*
X186185505Y-119397096D01*
X186060103Y-119296053D01*
X185981571Y-119157039D01*
X185955925Y-118991137D01*
X185983317Y-118832918D01*
X186063137Y-118708100D01*
X186163913Y-118629352D01*
X186200432Y-118609776D01*
X186243246Y-118594800D01*
X186300871Y-118583814D01*
X186381828Y-118576208D01*
X186494633Y-118571371D01*
X186647806Y-118568693D01*
X186849865Y-118567564D01*
X187029145Y-118567368D01*
X187792914Y-118567250D01*
X187901364Y-118647262D01*
X187978032Y-118710947D01*
X188034021Y-118769955D01*
X188042470Y-118782199D01*
X188050970Y-118827991D01*
X188059095Y-118934194D01*
X188066745Y-119097716D01*
X188073821Y-119315471D01*
X188080226Y-119584367D01*
X188085858Y-119901316D01*
X188090621Y-120263228D01*
X188091000Y-120297625D01*
X188106875Y-121758125D01*
X188191025Y-121916875D01*
X188338418Y-122131372D01*
X188527543Y-122302636D01*
X188653891Y-122379224D01*
X188814232Y-122434306D01*
X189006512Y-122460115D01*
X189206577Y-122456451D01*
X189390274Y-122423111D01*
X189488000Y-122386154D01*
X189681744Y-122258493D01*
X189850622Y-122084471D01*
X189958873Y-121918704D01*
X190043625Y-121758125D01*
X190059500Y-120297625D01*
X190063276Y-119946722D01*
X190066784Y-119653620D01*
X190070742Y-119412624D01*
X190075870Y-119218042D01*
X190082886Y-119064182D01*
X190092508Y-118945350D01*
X190105456Y-118855853D01*
X190122448Y-118789999D01*
X190144202Y-118742096D01*
X190171437Y-118706449D01*
X190204872Y-118677367D01*
X190245226Y-118649157D01*
X190269681Y-118632601D01*
X190347112Y-118588719D01*
X190426734Y-118570691D01*
X190536756Y-118572699D01*
X190553598Y-118574031D01*
X190670863Y-118590593D01*
X190753089Y-118624193D01*
X190828519Y-118686577D01*
X190831621Y-118689664D01*
X190932625Y-118790617D01*
X190949792Y-120242621D01*
X190953995Y-120586177D01*
X190957955Y-120872239D01*
X190961973Y-121106813D01*
X190966350Y-121295901D01*
X190971386Y-121445510D01*
X190977384Y-121561642D01*
X190984644Y-121650302D01*
X190993467Y-121717494D01*
X191004154Y-121769224D01*
X191017007Y-121811494D01*
X191030146Y-121845156D01*
X191151828Y-122058443D01*
X191319909Y-122240992D01*
X191491349Y-122361632D01*
X191581907Y-122408259D01*
X191661090Y-122436597D01*
X191750318Y-122451095D01*
X191871009Y-122456202D01*
X191948625Y-122456625D01*
X192092845Y-122454492D01*
X192194991Y-122445150D01*
X192276431Y-122424184D01*
X192358530Y-122387180D01*
X192404410Y-122362445D01*
X192588482Y-122232625D01*
X192743694Y-122068743D01*
X192854646Y-121887846D01*
X192873021Y-121843676D01*
X192886490Y-121802210D01*
X192897860Y-121751575D01*
X192907404Y-121685840D01*
X192915396Y-121599073D01*
X192922111Y-121485341D01*
X192927822Y-121338713D01*
X192932804Y-121153257D01*
X192937330Y-120923041D01*
X192941675Y-120642132D01*
X192946111Y-120304600D01*
X192946843Y-120245339D01*
X192951132Y-119903884D01*
X192955066Y-119620235D01*
X192958950Y-119388702D01*
X192963087Y-119203595D01*
X192967783Y-119059224D01*
X192973340Y-118949898D01*
X192980063Y-118869927D01*
X192988257Y-118813622D01*
X192998225Y-118775291D01*
X193010271Y-118749245D01*
X193024700Y-118729793D01*
X193028051Y-118726026D01*
X193157612Y-118625161D01*
X193307673Y-118574844D01*
X193463828Y-118574203D01*
X193611669Y-118622363D01*
X193736793Y-118718452D01*
X193778173Y-118771487D01*
X193788980Y-118799177D01*
X193798287Y-118850645D01*
X193806287Y-118930849D01*
X193813175Y-119044747D01*
X193819145Y-119197297D01*
X193824388Y-119393458D01*
X193829100Y-119638188D01*
X193833474Y-119936445D01*
X193837702Y-120293187D01*
X193837750Y-120297625D01*
X193841546Y-120640243D01*
X193845032Y-120925312D01*
X193848531Y-121158779D01*
X193852367Y-121346593D01*
X193856862Y-121494702D01*
X193862341Y-121609051D01*
X193869126Y-121695591D01*
X193877541Y-121760268D01*
X193887909Y-121809030D01*
X193900553Y-121847824D01*
X193915797Y-121882599D01*
X193924906Y-121901164D01*
X194058386Y-122105201D01*
X194231743Y-122270964D01*
X194434248Y-122390933D01*
X194655169Y-122457590D01*
X194732016Y-122466733D01*
X194840438Y-122470992D01*
X194909569Y-122460008D01*
X194962967Y-122427629D01*
X194994413Y-122398224D01*
X195063546Y-122293014D01*
X195076451Y-122183297D01*
X195038200Y-122081129D01*
X194953869Y-121998561D01*
X194828531Y-121947648D01*
X194802741Y-121942888D01*
X194621908Y-121892121D01*
X194491631Y-121803665D01*
X194449237Y-121751000D01*
X194435924Y-121726185D01*
X194424732Y-121692047D01*
X194415394Y-121642883D01*
X194407643Y-121572990D01*
X194401212Y-121476664D01*
X194395835Y-121348203D01*
X194391242Y-121181904D01*
X194387168Y-120972064D01*
X194383346Y-120712981D01*
X194379507Y-120398950D01*
X194377500Y-120219723D01*
X194373659Y-119878430D01*
X194370089Y-119594623D01*
X194366473Y-119362291D01*
X194362492Y-119175421D01*
X194357829Y-119028002D01*
X194352163Y-118914023D01*
X194345177Y-118827471D01*
X194336552Y-118762337D01*
X194325970Y-118712607D01*
X194313112Y-118672271D01*
X194297660Y-118635317D01*
X194293017Y-118625172D01*
X194160307Y-118407785D01*
X193986930Y-118235523D01*
X193779481Y-118113039D01*
X193544559Y-118044988D01*
X193456296Y-118034837D01*
X193208326Y-118047316D01*
X192977641Y-118118022D01*
X192772758Y-118242384D01*
X192602196Y-118415830D01*
X192523262Y-118535500D01*
X192424875Y-118710125D01*
X192409000Y-120170625D01*
X192404423Y-120545385D01*
X192399426Y-120860335D01*
X192393876Y-121119165D01*
X192387643Y-121325564D01*
X192380592Y-121483222D01*
X192372593Y-121595827D01*
X192363511Y-121667069D01*
X192354154Y-121699137D01*
X192304519Y-121763675D01*
X192230825Y-121837616D01*
X192212797Y-121853302D01*
X192145838Y-121902808D01*
X192081713Y-121926226D01*
X191994763Y-121930092D01*
X191926766Y-121926169D01*
X191761819Y-121893538D01*
X191636875Y-121817911D01*
X191540898Y-121694625D01*
X191530876Y-121652811D01*
X191521892Y-121562299D01*
X191513863Y-121420742D01*
X191506709Y-121225796D01*
X191500349Y-120975114D01*
X191494701Y-120666350D01*
X191489684Y-120297159D01*
X191488250Y-120170625D01*
X191484448Y-119827926D01*
X191480948Y-119542824D01*
X191477433Y-119309418D01*
X191473586Y-119121806D01*
X191469090Y-118974088D01*
X191463627Y-118860363D01*
X191456879Y-118774731D01*
X191448531Y-118711291D01*
X191438263Y-118664141D01*
X191425759Y-118627382D01*
X191410702Y-118595113D01*
X191402709Y-118579923D01*
X191260428Y-118373210D01*
X191086643Y-118215304D01*
X190889829Y-118105983D01*
X190678465Y-118045026D01*
X190461028Y-118032212D01*
X190245995Y-118067320D01*
X190041844Y-118150128D01*
X189857052Y-118280416D01*
X189700097Y-118457962D01*
X189603486Y-118626863D01*
X189587443Y-118663695D01*
X189574051Y-118702618D01*
X189562994Y-118749642D01*
X189553955Y-118810777D01*
X189546618Y-118892031D01*
X189540666Y-118999415D01*
X189535784Y-119138938D01*
X189531656Y-119316609D01*
X189527965Y-119538438D01*
X189524394Y-119810434D01*
X189520629Y-120138608D01*
X189519750Y-120218250D01*
X189515356Y-120580438D01*
X189510696Y-120883720D01*
X189505596Y-121132689D01*
X189499884Y-121331939D01*
X189493383Y-121486062D01*
X189485920Y-121599653D01*
X189477321Y-121677305D01*
X189467411Y-121723611D01*
X189462162Y-121736011D01*
X189369092Y-121839799D01*
X189240169Y-121906101D01*
X189092986Y-121931716D01*
X188945139Y-121913444D01*
X188820387Y-121852737D01*
X188743719Y-121789052D01*
X188687730Y-121730044D01*
X188679281Y-121717800D01*
X188670748Y-121671966D01*
X188662590Y-121565782D01*
X188654909Y-121402400D01*
X188647807Y-121184970D01*
X188641385Y-120916643D01*
X188635745Y-120600567D01*
X188630991Y-120239895D01*
X188630750Y-120218250D01*
X188626956Y-119877940D01*
X188623499Y-119595057D01*
X188620035Y-119363532D01*
X188616219Y-119177296D01*
X188611706Y-119030280D01*
X188606152Y-118916415D01*
X188599213Y-118829631D01*
X188590544Y-118763860D01*
X188579801Y-118713032D01*
X188566639Y-118671078D01*
X188550713Y-118631929D01*
X188539253Y-118606298D01*
X188446358Y-118453670D01*
X188314710Y-118305464D01*
X188162718Y-118178912D01*
X188008792Y-118091244D01*
X187975347Y-118078493D01*
X187915891Y-118062007D01*
X187840790Y-118049335D01*
X187741680Y-118040032D01*
X187610199Y-118033649D01*
X187437983Y-118029738D01*
X187216669Y-118027853D01*
X187022060Y-118027499D01*
X186742493Y-118028455D01*
G37*
X186742493Y-118028455D02*
X186517608Y-118032416D01*
X186338603Y-118041026D01*
X186196675Y-118055927D01*
X186083021Y-118078763D01*
X185988840Y-118111176D01*
X185905327Y-118154809D01*
X185823680Y-118211305D01*
X185758011Y-118263405D01*
X185600031Y-118430554D01*
X185492832Y-118624409D01*
X185434996Y-118835516D01*
X185425103Y-119054425D01*
X185461734Y-119271684D01*
X185543470Y-119477841D01*
X185668890Y-119663445D01*
X185836577Y-119819043D01*
X186006552Y-119918500D01*
X186074375Y-119946982D01*
X186143351Y-119968323D01*
X186225222Y-119984102D01*
X186331729Y-119995896D01*
X186474616Y-120005284D01*
X186665624Y-120013844D01*
X186736124Y-120016565D01*
X186958181Y-120026169D01*
X187123463Y-120037157D01*
X187238693Y-120051389D01*
X187310594Y-120070725D01*
X187345888Y-120097025D01*
X187351299Y-120132150D01*
X187333550Y-120177960D01*
X187331742Y-120181376D01*
X187315461Y-120203904D01*
X187288123Y-120220635D01*
X187240544Y-120232714D01*
X187163544Y-120241289D01*
X187047942Y-120247504D01*
X186884555Y-120252505D01*
X186734227Y-120255954D01*
X186483287Y-120263990D01*
X186284942Y-120278276D01*
X186128350Y-120302220D01*
X186002668Y-120339228D01*
X185897056Y-120392708D01*
X185800671Y-120466065D01*
X185702671Y-120562706D01*
X185680035Y-120587193D01*
X185600981Y-120679035D01*
X185540097Y-120766692D01*
X185494938Y-120860350D01*
X185463058Y-120970196D01*
X185442012Y-121106416D01*
X185429354Y-121279195D01*
X185422640Y-121498721D01*
X185420327Y-121668984D01*
X185418876Y-121886455D01*
X185419843Y-122049779D01*
X185423861Y-122168287D01*
X185431564Y-122251308D01*
X185443586Y-122308170D01*
X185460558Y-122348203D01*
X185467178Y-122359042D01*
X185552207Y-122437889D01*
X185659843Y-122469160D01*
X185770686Y-122452897D01*
X185865335Y-122389144D01*
X185889434Y-122358110D01*
X185910067Y-122317739D01*
X185924300Y-122263155D01*
X185932967Y-122183760D01*
X185936900Y-122068956D01*
X185936931Y-121908145D01*
X185935268Y-121774837D01*
X185934556Y-121526886D01*
X185941704Y-121333672D01*
X185957907Y-121186783D01*
X185984362Y-121077808D01*
X186022265Y-120998335D01*
X186050941Y-120961376D01*
X186100712Y-120909082D01*
X186147253Y-120869865D01*
X186200521Y-120841555D01*
X186270469Y-120821985D01*
X186367055Y-120808987D01*
X186500233Y-120800394D01*
X186679959Y-120794037D01*
X186839080Y-120789750D01*
X187450752Y-120773875D01*
X187588314Y-120677215D01*
X187736087Y-120539535D01*
X187832431Y-120377899D01*
X187878756Y-120202707D01*
X187876478Y-120024359D01*
X187827007Y-119853254D01*
X187731758Y-119699791D01*
X187592144Y-119574370D01*
X187427450Y-119493277D01*
X187350804Y-119478656D01*
X187221054Y-119467210D01*
X187048541Y-119459558D01*
X186843610Y-119456317D01*
X186807830Y-119456250D01*
X186608790Y-119455302D01*
X186462005Y-119451747D01*
X186356246Y-119444518D01*
X186280286Y-119432548D01*
X186222897Y-119414769D01*
X186185505Y-119397096D01*
X186060103Y-119296053D01*
X185981571Y-119157039D01*
X185955925Y-118991137D01*
X185983317Y-118832918D01*
X186063137Y-118708100D01*
X186163913Y-118629352D01*
X186200432Y-118609776D01*
X186243246Y-118594800D01*
X186300871Y-118583814D01*
X186381828Y-118576208D01*
X186494633Y-118571371D01*
X186647806Y-118568693D01*
X186849865Y-118567564D01*
X187029145Y-118567368D01*
X187792914Y-118567250D01*
X187901364Y-118647262D01*
X187978032Y-118710947D01*
X188034021Y-118769955D01*
X188042470Y-118782199D01*
X188050970Y-118827991D01*
X188059095Y-118934194D01*
X188066745Y-119097716D01*
X188073821Y-119315471D01*
X188080226Y-119584367D01*
X188085858Y-119901316D01*
X188090621Y-120263228D01*
X188091000Y-120297625D01*
X188106875Y-121758125D01*
X188191025Y-121916875D01*
X188338418Y-122131372D01*
X188527543Y-122302636D01*
X188653891Y-122379224D01*
X188814232Y-122434306D01*
X189006512Y-122460115D01*
X189206577Y-122456451D01*
X189390274Y-122423111D01*
X189488000Y-122386154D01*
X189681744Y-122258493D01*
X189850622Y-122084471D01*
X189958873Y-121918704D01*
X190043625Y-121758125D01*
X190059500Y-120297625D01*
X190063276Y-119946722D01*
X190066784Y-119653620D01*
X190070742Y-119412624D01*
X190075870Y-119218042D01*
X190082886Y-119064182D01*
X190092508Y-118945350D01*
X190105456Y-118855853D01*
X190122448Y-118789999D01*
X190144202Y-118742096D01*
X190171437Y-118706449D01*
X190204872Y-118677367D01*
X190245226Y-118649157D01*
X190269681Y-118632601D01*
X190347112Y-118588719D01*
X190426734Y-118570691D01*
X190536756Y-118572699D01*
X190553598Y-118574031D01*
X190670863Y-118590593D01*
X190753089Y-118624193D01*
X190828519Y-118686577D01*
X190831621Y-118689664D01*
X190932625Y-118790617D01*
X190949792Y-120242621D01*
X190953995Y-120586177D01*
X190957955Y-120872239D01*
X190961973Y-121106813D01*
X190966350Y-121295901D01*
X190971386Y-121445510D01*
X190977384Y-121561642D01*
X190984644Y-121650302D01*
X190993467Y-121717494D01*
X191004154Y-121769224D01*
X191017007Y-121811494D01*
X191030146Y-121845156D01*
X191151828Y-122058443D01*
X191319909Y-122240992D01*
X191491349Y-122361632D01*
X191581907Y-122408259D01*
X191661090Y-122436597D01*
X191750318Y-122451095D01*
X191871009Y-122456202D01*
X191948625Y-122456625D01*
X192092845Y-122454492D01*
X192194991Y-122445150D01*
X192276431Y-122424184D01*
X192358530Y-122387180D01*
X192404410Y-122362445D01*
X192588482Y-122232625D01*
X192743694Y-122068743D01*
X192854646Y-121887846D01*
X192873021Y-121843676D01*
X192886490Y-121802210D01*
X192897860Y-121751575D01*
X192907404Y-121685840D01*
X192915396Y-121599073D01*
X192922111Y-121485341D01*
X192927822Y-121338713D01*
X192932804Y-121153257D01*
X192937330Y-120923041D01*
X192941675Y-120642132D01*
X192946111Y-120304600D01*
X192946843Y-120245339D01*
X192951132Y-119903884D01*
X192955066Y-119620235D01*
X192958950Y-119388702D01*
X192963087Y-119203595D01*
X192967783Y-119059224D01*
X192973340Y-118949898D01*
X192980063Y-118869927D01*
X192988257Y-118813622D01*
X192998225Y-118775291D01*
X193010271Y-118749245D01*
X193024700Y-118729793D01*
X193028051Y-118726026D01*
X193157612Y-118625161D01*
X193307673Y-118574844D01*
X193463828Y-118574203D01*
X193611669Y-118622363D01*
X193736793Y-118718452D01*
X193778173Y-118771487D01*
X193788980Y-118799177D01*
X193798287Y-118850645D01*
X193806287Y-118930849D01*
X193813175Y-119044747D01*
X193819145Y-119197297D01*
X193824388Y-119393458D01*
X193829100Y-119638188D01*
X193833474Y-119936445D01*
X193837702Y-120293187D01*
X193837750Y-120297625D01*
X193841546Y-120640243D01*
X193845032Y-120925312D01*
X193848531Y-121158779D01*
X193852367Y-121346593D01*
X193856862Y-121494702D01*
X193862341Y-121609051D01*
X193869126Y-121695591D01*
X193877541Y-121760268D01*
X193887909Y-121809030D01*
X193900553Y-121847824D01*
X193915797Y-121882599D01*
X193924906Y-121901164D01*
X194058386Y-122105201D01*
X194231743Y-122270964D01*
X194434248Y-122390933D01*
X194655169Y-122457590D01*
X194732016Y-122466733D01*
X194840438Y-122470992D01*
X194909569Y-122460008D01*
X194962967Y-122427629D01*
X194994413Y-122398224D01*
X195063546Y-122293014D01*
X195076451Y-122183297D01*
X195038200Y-122081129D01*
X194953869Y-121998561D01*
X194828531Y-121947648D01*
X194802741Y-121942888D01*
X194621908Y-121892121D01*
X194491631Y-121803665D01*
X194449237Y-121751000D01*
X194435924Y-121726185D01*
X194424732Y-121692047D01*
X194415394Y-121642883D01*
X194407643Y-121572990D01*
X194401212Y-121476664D01*
X194395835Y-121348203D01*
X194391242Y-121181904D01*
X194387168Y-120972064D01*
X194383346Y-120712981D01*
X194379507Y-120398950D01*
X194377500Y-120219723D01*
X194373659Y-119878430D01*
X194370089Y-119594623D01*
X194366473Y-119362291D01*
X194362492Y-119175421D01*
X194357829Y-119028002D01*
X194352163Y-118914023D01*
X194345177Y-118827471D01*
X194336552Y-118762337D01*
X194325970Y-118712607D01*
X194313112Y-118672271D01*
X194297660Y-118635317D01*
X194293017Y-118625172D01*
X194160307Y-118407785D01*
X193986930Y-118235523D01*
X193779481Y-118113039D01*
X193544559Y-118044988D01*
X193456296Y-118034837D01*
X193208326Y-118047316D01*
X192977641Y-118118022D01*
X192772758Y-118242384D01*
X192602196Y-118415830D01*
X192523262Y-118535500D01*
X192424875Y-118710125D01*
X192409000Y-120170625D01*
X192404423Y-120545385D01*
X192399426Y-120860335D01*
X192393876Y-121119165D01*
X192387643Y-121325564D01*
X192380592Y-121483222D01*
X192372593Y-121595827D01*
X192363511Y-121667069D01*
X192354154Y-121699137D01*
X192304519Y-121763675D01*
X192230825Y-121837616D01*
X192212797Y-121853302D01*
X192145838Y-121902808D01*
X192081713Y-121926226D01*
X191994763Y-121930092D01*
X191926766Y-121926169D01*
X191761819Y-121893538D01*
X191636875Y-121817911D01*
X191540898Y-121694625D01*
X191530876Y-121652811D01*
X191521892Y-121562299D01*
X191513863Y-121420742D01*
X191506709Y-121225796D01*
X191500349Y-120975114D01*
X191494701Y-120666350D01*
X191489684Y-120297159D01*
X191488250Y-120170625D01*
X191484448Y-119827926D01*
X191480948Y-119542824D01*
X191477433Y-119309418D01*
X191473586Y-119121806D01*
X191469090Y-118974088D01*
X191463627Y-118860363D01*
X191456879Y-118774731D01*
X191448531Y-118711291D01*
X191438263Y-118664141D01*
X191425759Y-118627382D01*
X191410702Y-118595113D01*
X191402709Y-118579923D01*
X191260428Y-118373210D01*
X191086643Y-118215304D01*
X190889829Y-118105983D01*
X190678465Y-118045026D01*
X190461028Y-118032212D01*
X190245995Y-118067320D01*
X190041844Y-118150128D01*
X189857052Y-118280416D01*
X189700097Y-118457962D01*
X189603486Y-118626863D01*
X189587443Y-118663695D01*
X189574051Y-118702618D01*
X189562994Y-118749642D01*
X189553955Y-118810777D01*
X189546618Y-118892031D01*
X189540666Y-118999415D01*
X189535784Y-119138938D01*
X189531656Y-119316609D01*
X189527965Y-119538438D01*
X189524394Y-119810434D01*
X189520629Y-120138608D01*
X189519750Y-120218250D01*
X189515356Y-120580438D01*
X189510696Y-120883720D01*
X189505596Y-121132689D01*
X189499884Y-121331939D01*
X189493383Y-121486062D01*
X189485920Y-121599653D01*
X189477321Y-121677305D01*
X189467411Y-121723611D01*
X189462162Y-121736011D01*
X189369092Y-121839799D01*
X189240169Y-121906101D01*
X189092986Y-121931716D01*
X188945139Y-121913444D01*
X188820387Y-121852737D01*
X188743719Y-121789052D01*
X188687730Y-121730044D01*
X188679281Y-121717800D01*
X188670748Y-121671966D01*
X188662590Y-121565782D01*
X188654909Y-121402400D01*
X188647807Y-121184970D01*
X188641385Y-120916643D01*
X188635745Y-120600567D01*
X188630991Y-120239895D01*
X188630750Y-120218250D01*
X188626956Y-119877940D01*
X188623499Y-119595057D01*
X188620035Y-119363532D01*
X188616219Y-119177296D01*
X188611706Y-119030280D01*
X188606152Y-118916415D01*
X188599213Y-118829631D01*
X188590544Y-118763860D01*
X188579801Y-118713032D01*
X188566639Y-118671078D01*
X188550713Y-118631929D01*
X188539253Y-118606298D01*
X188446358Y-118453670D01*
X188314710Y-118305464D01*
X188162718Y-118178912D01*
X188008792Y-118091244D01*
X187975347Y-118078493D01*
X187915891Y-118062007D01*
X187840790Y-118049335D01*
X187741680Y-118040032D01*
X187610199Y-118033649D01*
X187437983Y-118029738D01*
X187216669Y-118027853D01*
X187022060Y-118027499D01*
X186742493Y-118028455D01*
%TD*%
D12*
%TO.C,RV1*%
X157100000Y-73800000D03*
D13*
X154600000Y-68800000D03*
D12*
X159600000Y-68800000D03*
%TD*%
D14*
%TO.C,U1*%
X143430000Y-73040000D03*
X151050000Y-70500000D03*
X143430000Y-70500000D03*
D15*
X151050000Y-73040000D03*
%TD*%
D16*
%TO.C,R15*%
X120740000Y-109000000D03*
D17*
X105500000Y-109000000D03*
%TD*%
D16*
%TO.C,R12*%
X111660000Y-117500000D03*
D17*
X101500000Y-117500000D03*
%TD*%
D14*
%TO.C,IC1*%
X100360000Y-85180000D03*
X92740000Y-102960000D03*
X100360000Y-87720000D03*
X92740000Y-100420000D03*
X100360000Y-90260000D03*
X92740000Y-97880000D03*
X100360000Y-92800000D03*
X92740000Y-95340000D03*
X100360000Y-95340000D03*
X92740000Y-92800000D03*
X100360000Y-97880000D03*
X92740000Y-90260000D03*
X100360000Y-100420000D03*
X92740000Y-87720000D03*
X100360000Y-102960000D03*
D15*
X92740000Y-85180000D03*
%TD*%
D18*
%TO.C,D4*%
X170420000Y-121500000D03*
X172960000Y-121500000D03*
D19*
X175500000Y-121500000D03*
%TD*%
D18*
%TO.C,D3*%
X175580000Y-68500000D03*
X173040000Y-68500000D03*
D19*
X170500000Y-68500000D03*
%TD*%
D20*
%TO.C,D2*%
X176500000Y-92340000D03*
D21*
X176500000Y-102500000D03*
%TD*%
D20*
%TO.C,D1*%
X167840000Y-72500000D03*
D21*
X178000000Y-72500000D03*
%TD*%
D17*
%TO.C,C13*%
X202750000Y-75250000D03*
X202750000Y-72750000D03*
%TD*%
D22*
%TO.C,C6*%
X184300000Y-97500000D03*
D23*
X184300000Y-102500000D03*
%TD*%
D22*
%TO.C,C5*%
X195500000Y-80500000D03*
D23*
X195500000Y-75500000D03*
%TD*%
D22*
%TO.C,C4*%
X195500000Y-97500000D03*
D23*
X195500000Y-102500000D03*
%TD*%
D17*
%TO.C,C3*%
X123000000Y-78820000D03*
X123000000Y-83820000D03*
%TD*%
%TO.C,C2*%
X84500000Y-95500000D03*
X89500000Y-95500000D03*
%TD*%
D24*
%TO.C,C1*%
X80500000Y-98000000D03*
D25*
X80500000Y-96000000D03*
%TD*%
D26*
%TO.C,H4*%
X211697056Y-118302944D03*
X210000000Y-117600000D03*
X208302944Y-118302944D03*
X207600000Y-120000000D03*
X208302944Y-121697056D03*
X210000000Y-122400000D03*
X211697056Y-121697056D03*
X212400000Y-120000000D03*
D27*
X210000000Y-120000000D03*
%TD*%
D26*
%TO.C,H3*%
X211697056Y-68302944D03*
X210000000Y-67600000D03*
X208302944Y-68302944D03*
X207600000Y-70000000D03*
X208302944Y-71697056D03*
X210000000Y-72400000D03*
X211697056Y-71697056D03*
X212400000Y-70000000D03*
D27*
X210000000Y-70000000D03*
%TD*%
D26*
%TO.C,H2*%
X71697056Y-68302944D03*
X70000000Y-67600000D03*
X68302944Y-68302944D03*
X67600000Y-70000000D03*
X68302944Y-71697056D03*
X70000000Y-72400000D03*
X71697056Y-71697056D03*
X72400000Y-70000000D03*
D27*
X70000000Y-70000000D03*
%TD*%
D26*
%TO.C,H1*%
X71697056Y-118302944D03*
X70000000Y-117600000D03*
X68302944Y-118302944D03*
X67600000Y-120000000D03*
X68302944Y-121697056D03*
X70000000Y-122400000D03*
X71697056Y-121697056D03*
X72400000Y-120000000D03*
D27*
X70000000Y-120000000D03*
%TD*%
D16*
%TO.C,R14*%
X102660000Y-72500000D03*
D17*
X92500000Y-72500000D03*
%TD*%
D16*
%TO.C,R13*%
X109840000Y-72500000D03*
D17*
X120000000Y-72500000D03*
%TD*%
D28*
%TO.C,Q4*%
X113500000Y-91000000D03*
G36*
G01*
X111535000Y-90487500D02*
X111535000Y-91512500D01*
G75*
G02*
X111247500Y-91800000I-287500J0D01*
G01*
X110672500Y-91800000D01*
G75*
G02*
X110385000Y-91512500I0J287500D01*
G01*
X110385000Y-90487500D01*
G75*
G02*
X110672500Y-90200000I287500J0D01*
G01*
X111247500Y-90200000D01*
G75*
G02*
X111535000Y-90487500I0J-287500D01*
G01*
G37*
G36*
G01*
X112805000Y-90487500D02*
X112805000Y-91512500D01*
G75*
G02*
X112517500Y-91800000I-287500J0D01*
G01*
X111942500Y-91800000D01*
G75*
G02*
X111655000Y-91512500I0J287500D01*
G01*
X111655000Y-90487500D01*
G75*
G02*
X111942500Y-90200000I287500J0D01*
G01*
X112517500Y-90200000D01*
G75*
G02*
X112805000Y-90487500I0J-287500D01*
G01*
G37*
%TD*%
%TO.C,Q3*%
X113500000Y-96000000D03*
G36*
G01*
X111535000Y-95487500D02*
X111535000Y-96512500D01*
G75*
G02*
X111247500Y-96800000I-287500J0D01*
G01*
X110672500Y-96800000D01*
G75*
G02*
X110385000Y-96512500I0J287500D01*
G01*
X110385000Y-95487500D01*
G75*
G02*
X110672500Y-95200000I287500J0D01*
G01*
X111247500Y-95200000D01*
G75*
G02*
X111535000Y-95487500I0J-287500D01*
G01*
G37*
G36*
G01*
X112805000Y-95487500D02*
X112805000Y-96512500D01*
G75*
G02*
X112517500Y-96800000I-287500J0D01*
G01*
X111942500Y-96800000D01*
G75*
G02*
X111655000Y-96512500I0J287500D01*
G01*
X111655000Y-95487500D01*
G75*
G02*
X111942500Y-95200000I287500J0D01*
G01*
X112517500Y-95200000D01*
G75*
G02*
X112805000Y-95487500I0J-287500D01*
G01*
G37*
%TD*%
D29*
%TO.C,Q2*%
X110500000Y-102700000D03*
G36*
G01*
X109987500Y-104665000D02*
X111012500Y-104665000D01*
G75*
G02*
X111300000Y-104952500I0J-287500D01*
G01*
X111300000Y-105527500D01*
G75*
G02*
X111012500Y-105815000I-287500J0D01*
G01*
X109987500Y-105815000D01*
G75*
G02*
X109700000Y-105527500I0J287500D01*
G01*
X109700000Y-104952500D01*
G75*
G02*
X109987500Y-104665000I287500J0D01*
G01*
G37*
G36*
G01*
X109987500Y-103395000D02*
X111012500Y-103395000D01*
G75*
G02*
X111300000Y-103682500I0J-287500D01*
G01*
X111300000Y-104257500D01*
G75*
G02*
X111012500Y-104545000I-287500J0D01*
G01*
X109987500Y-104545000D01*
G75*
G02*
X109700000Y-104257500I0J287500D01*
G01*
X109700000Y-103682500D01*
G75*
G02*
X109987500Y-103395000I287500J0D01*
G01*
G37*
%TD*%
%TO.C,Q1*%
X105500000Y-102700000D03*
G36*
G01*
X104987500Y-104665000D02*
X106012500Y-104665000D01*
G75*
G02*
X106300000Y-104952500I0J-287500D01*
G01*
X106300000Y-105527500D01*
G75*
G02*
X106012500Y-105815000I-287500J0D01*
G01*
X104987500Y-105815000D01*
G75*
G02*
X104700000Y-105527500I0J287500D01*
G01*
X104700000Y-104952500D01*
G75*
G02*
X104987500Y-104665000I287500J0D01*
G01*
G37*
G36*
G01*
X104987500Y-103395000D02*
X106012500Y-103395000D01*
G75*
G02*
X106300000Y-103682500I0J-287500D01*
G01*
X106300000Y-104257500D01*
G75*
G02*
X106012500Y-104545000I-287500J0D01*
G01*
X104987500Y-104545000D01*
G75*
G02*
X104700000Y-104257500I0J287500D01*
G01*
X104700000Y-103682500D01*
G75*
G02*
X104987500Y-103395000I287500J0D01*
G01*
G37*
%TD*%
D30*
%TO.C,TR1*%
X165000000Y-78500000D03*
X172000000Y-96500000D03*
X165000000Y-114500000D03*
X129000000Y-114500000D03*
X122000000Y-96500000D03*
X129000000Y-78500000D03*
%TD*%
D16*
%TO.C,R11*%
X114840000Y-117500000D03*
D17*
X125000000Y-117500000D03*
%TD*%
D16*
%TO.C,R10*%
X107500000Y-87340000D03*
D17*
X107500000Y-97500000D03*
%TD*%
D16*
%TO.C,R9*%
X117000000Y-93840000D03*
D17*
X117000000Y-104000000D03*
%TD*%
D16*
%TO.C,R8*%
X104000000Y-97660000D03*
D17*
X104000000Y-87500000D03*
%TD*%
D16*
%TO.C,R7*%
X79340000Y-101500000D03*
D17*
X89500000Y-101500000D03*
%TD*%
D16*
%TO.C,R6*%
X89660000Y-89000000D03*
D17*
X79500000Y-89000000D03*
%TD*%
D16*
%TO.C,R5*%
X79500000Y-85500000D03*
D17*
X89660000Y-85500000D03*
%TD*%
D16*
%TO.C,R4*%
X89660000Y-105000000D03*
D17*
X79500000Y-105000000D03*
%TD*%
D16*
%TO.C,R3*%
X89660000Y-92500000D03*
D17*
X79500000Y-92500000D03*
%TD*%
D16*
%TO.C,R2*%
X169340000Y-83500000D03*
D17*
X179500000Y-83500000D03*
%TD*%
D16*
%TO.C,R1*%
X140160000Y-70500000D03*
D17*
X130000000Y-70500000D03*
%TD*%
D18*
%TO.C,Q8*%
X100000000Y-68500000D03*
X97460000Y-68500000D03*
D19*
X94920000Y-68500000D03*
%TD*%
D18*
%TO.C,Q7*%
X120000000Y-121500000D03*
X122540000Y-121500000D03*
D19*
X125080000Y-121500000D03*
%TD*%
D18*
%TO.C,Q6*%
X125080000Y-68500000D03*
X122540000Y-68500000D03*
D19*
X120000000Y-68500000D03*
%TD*%
D18*
%TO.C,Q5*%
X94920000Y-121500000D03*
X97460000Y-121500000D03*
D19*
X100000000Y-121500000D03*
%TD*%
D31*
%TO.C,J2*%
X209750000Y-85750000D03*
X209750000Y-95750000D03*
D32*
X209750000Y-105750000D03*
%TD*%
D31*
%TO.C,J1*%
X69000000Y-88500000D03*
X69000000Y-98500000D03*
D32*
X69000000Y-108500000D03*
%TD*%
D33*
%TO.C,F1*%
X69200000Y-78000000D03*
X78500000Y-78000000D03*
%TD*%
D17*
%TO.C,C12*%
X203000000Y-116500000D03*
X203000000Y-114000000D03*
%TD*%
D22*
%TO.C,C11*%
X184300000Y-80500000D03*
D23*
X184300000Y-75500000D03*
%TD*%
D22*
%TO.C,C10*%
X184300000Y-113700000D03*
D23*
X184300000Y-108700000D03*
%TD*%
D22*
%TO.C,C9*%
X184300000Y-91700000D03*
D23*
X184300000Y-86700000D03*
%TD*%
D22*
%TO.C,C8*%
X195300000Y-113700000D03*
D23*
X195300000Y-108700000D03*
%TD*%
D22*
%TO.C,C7*%
X195300000Y-91700000D03*
D23*
X195300000Y-86700000D03*
%TD*%
M02*
